{"glyphs":{"0":{"ha":888,"x_min":96,"x_max":792,"o":"m 444 -12 q 186 111 277 -12 q 96 514 96 235 q 186 917 96 794 q 444 1040 276 1040 q 703 917 613 1040 q 792 514 792 794 q 702 111 792 235 q 444 -12 611 -12 m 444 33 q 605 78 539 33 q 706 228 670 122 q 742 511 742 333 q 706 798 742 692 q 605 950 670 905 q 444 994 540 994 q 284 950 350 994 q 182 800 218 906 q 146 517 146 694 q 182 230 146 336 q 284 78 218 123 q 444 33 349 33 z "},"1":{"ha":510,"x_min":17,"x_max":362,"o":"m 331 1031 l 362 1031 l 362 0 l 315 0 l 315 963 l 17 749 l 17 803 l 331 1031 z "},"2":{"ha":696,"x_min":40,"x_max":644,"o":"m 644 44 l 644 0 l 52 0 l 52 28 l 369 431 q 494 619 458 542 q 530 773 530 697 q 467 941 530 888 q 278 994 405 994 q 40 953 149 994 l 40 1000 q 149 1030 88 1019 q 278 1040 210 1040 q 501 975 424 1040 q 578 776 578 910 q 562 662 578 717 q 508 546 545 608 q 403 399 470 484 l 122 44 l 644 44 z "},"3":{"ha":712,"x_min":42,"x_max":657,"o":"m 423 537 q 597 447 538 514 q 657 277 657 381 q 565 63 657 139 q 293 -12 474 -12 q 165 -1 230 -12 q 42 31 99 10 l 42 78 q 170 44 106 56 q 295 33 235 33 q 530 96 452 33 q 608 278 608 158 q 536 447 608 388 q 321 506 464 506 l 197 506 l 197 551 l 242 551 q 488 611 403 551 q 573 787 573 671 q 506 941 573 887 q 313 994 438 994 q 75 956 188 994 l 75 1003 q 313 1040 183 1040 q 480 1010 410 1040 q 585 924 549 981 q 622 788 622 867 q 569 631 622 695 q 423 537 517 567 z "},"4":{"ha":830,"x_min":39,"x_max":797,"o":"m 797 311 l 797 267 l 637 267 l 637 0 l 590 0 l 590 267 l 39 267 l 39 294 l 490 1028 l 544 1028 l 102 311 l 590 311 l 599 681 l 637 681 l 637 311 l 797 311 z "},"5":{"ha":721,"x_min":61,"x_max":676,"o":"m 253 576 q 497 532 404 567 q 633 437 590 498 q 676 284 676 376 q 583 63 676 139 q 313 -12 490 -12 q 184 -1 249 -12 q 61 31 118 10 l 61 78 q 315 33 188 33 q 627 283 627 33 q 590 414 627 363 q 468 493 552 465 q 241 530 383 522 l 106 538 l 141 1028 l 633 1028 l 633 983 l 185 983 l 156 581 l 253 576 z "},"6":{"ha":808,"x_min":102,"x_max":759,"o":"m 428 575 q 672 500 584 575 q 759 281 759 425 q 720 119 759 185 q 614 20 682 53 q 456 -12 545 -12 q 194 105 285 -12 q 102 481 102 222 q 209 903 102 765 q 524 1040 315 1040 q 713 1010 637 1040 l 713 963 q 624 987 674 979 q 525 994 574 994 q 244 872 338 994 q 151 489 151 749 q 277 552 203 528 q 428 575 352 575 m 457 33 q 641 94 572 33 q 710 278 710 156 q 636 467 710 405 q 425 529 563 529 q 278 506 353 529 q 151 437 203 483 q 236 127 158 222 q 457 33 314 33 z "},"7":{"ha":657,"x_min":10,"x_max":615,"o":"m 10 1028 l 615 1028 l 615 1000 l 185 0 l 133 0 l 557 983 l 10 983 l 10 1028 z "},"8":{"ha":888,"x_min":83,"x_max":805,"o":"m 572 511 q 750 413 694 474 q 805 258 805 351 q 764 114 805 175 q 643 20 722 53 q 451 -12 563 -12 q 178 58 274 -12 q 83 260 83 128 q 138 431 83 360 q 292 540 192 503 q 162 638 203 579 q 122 781 122 697 q 160 919 122 861 q 270 1009 198 978 q 440 1040 342 1040 q 615 1009 542 1040 q 727 919 688 978 q 766 781 766 861 q 716 619 766 687 q 572 511 667 551 m 172 783 q 200 669 172 715 q 293 590 228 622 q 469 536 358 558 q 511 527 493 532 q 670 630 621 570 q 719 781 719 689 q 645 940 719 885 q 440 994 572 994 q 240 939 309 994 q 172 783 172 883 m 453 33 q 677 91 599 33 q 755 255 755 148 q 726 364 755 320 q 633 438 697 408 q 461 490 569 468 q 346 519 397 503 q 188 420 242 488 q 133 263 133 353 q 214 92 133 151 q 453 33 296 33 z "},"9":{"ha":808,"x_min":49,"x_max":706,"o":"m 352 1040 q 615 923 523 1040 q 706 547 706 806 q 600 125 706 263 q 284 -12 493 -12 q 95 18 172 -12 l 95 65 q 185 41 135 49 q 283 33 235 33 q 564 156 471 33 q 658 539 658 278 q 531 476 606 499 q 381 453 456 453 q 137 528 224 453 q 49 747 49 603 q 88 909 49 843 q 195 1007 126 974 q 352 1040 263 1040 m 98 749 q 172 561 98 623 q 383 499 246 499 q 531 522 456 499 q 657 591 606 545 q 572 900 650 806 q 351 994 494 994 q 167 933 236 994 q 98 749 98 872 z "},"\u0000":{"ha":0,"x_min":0,"x_max":0,"o":""},"\r":{"ha":358,"x_min":0,"x_max":0,"o":""}," ":{"ha":358,"x_min":0,"x_max":0,"o":""},"A":{"ha":947,"x_min":30,"x_max":918,"o":"m 865 0 l 718 367 l 228 367 l 81 0 l 30 0 l 444 1028 l 503 1028 l 918 0 l 865 0 m 246 413 l 700 413 l 473 979 l 246 413 z "},"Á":{"ha":947,"x_min":30,"x_max":918,"o":"m 865 0 l 718 367 l 228 367 l 81 0 l 30 0 l 444 1028 l 503 1028 l 918 0 l 865 0 m 246 413 l 700 413 l 473 979 l 246 413 m 451 1122 l 589 1311 l 646 1311 l 498 1122 l 451 1122 z "},"Ă":{"ha":947,"x_min":30,"x_max":918,"o":"m 865 0 l 718 367 l 228 367 l 81 0 l 30 0 l 444 1028 l 503 1028 l 918 0 l 865 0 m 246 413 l 700 413 l 473 979 l 246 413 m 476 1131 q 325 1174 378 1131 q 265 1292 272 1218 l 306 1292 q 354 1202 315 1233 q 476 1172 393 1172 q 597 1202 559 1172 q 643 1292 635 1233 l 684 1292 q 625 1174 677 1217 q 476 1131 574 1131 z "},"Ắ":{"ha":947,"x_min":30,"x_max":918,"o":"m 865 0 l 718 367 l 228 367 l 81 0 l 30 0 l 444 1028 l 503 1028 l 918 0 l 865 0 m 246 413 l 700 413 l 473 979 l 246 413 m 451 1281 l 589 1456 l 646 1456 l 498 1281 l 451 1281 m 476 1131 q 325 1174 378 1131 q 265 1292 272 1218 l 306 1292 q 353 1202 314 1233 q 476 1172 392 1172 q 597 1202 558 1172 q 643 1292 635 1233 l 684 1292 q 625 1174 677 1217 q 476 1131 574 1131 z "},"Ặ":{"ha":947,"x_min":30,"x_max":918,"o":"m 865 0 l 718 367 l 228 367 l 81 0 l 30 0 l 444 1028 l 503 1028 l 918 0 l 865 0 m 246 413 l 700 413 l 473 979 l 246 413 m 474 -215 q 443 -203 456 -215 q 431 -172 431 -192 q 443 -140 431 -153 q 474 -128 456 -128 q 505 -140 493 -128 q 517 -172 517 -153 q 505 -203 517 -192 q 474 -215 493 -215 m 476 1131 q 325 1174 378 1131 q 265 1292 272 1218 l 306 1292 q 354 1202 315 1233 q 476 1172 393 1172 q 597 1202 559 1172 q 643 1292 635 1233 l 684 1292 q 625 1174 677 1217 q 476 1131 574 1131 z "},"Ằ":{"ha":947,"x_min":30,"x_max":918,"o":"m 865 0 l 718 367 l 228 367 l 81 0 l 30 0 l 444 1028 l 503 1028 l 918 0 l 865 0 m 246 413 l 700 413 l 473 979 l 246 413 m 451 1281 l 303 1456 l 360 1456 l 498 1281 l 451 1281 m 474 1131 q 324 1174 376 1131 q 265 1292 272 1217 l 306 1292 q 352 1202 314 1233 q 474 1172 390 1172 q 596 1202 557 1172 q 643 1292 635 1233 l 684 1292 q 624 1174 677 1218 q 474 1131 571 1131 z "},"Ẳ":{"ha":947,"x_min":30,"x_max":918,"o":"m 865 0 l 718 367 l 228 367 l 81 0 l 30 0 l 444 1028 l 503 1028 l 918 0 l 865 0 m 246 413 l 700 413 l 473 979 l 246 413 m 451 1281 q 463 1315 452 1301 q 486 1335 473 1328 q 523 1353 500 1343 q 561 1372 549 1363 q 574 1396 574 1381 q 555 1423 574 1414 q 487 1433 535 1433 q 414 1427 447 1433 q 343 1408 381 1422 l 343 1445 q 487 1470 404 1470 q 583 1450 551 1470 q 615 1396 615 1429 q 598 1355 615 1369 q 551 1328 582 1342 q 511 1308 524 1317 q 497 1281 499 1299 l 451 1281 m 473 1131 q 323 1174 375 1131 q 265 1292 272 1217 l 306 1292 q 352 1202 314 1233 q 473 1172 390 1172 q 595 1202 556 1172 q 643 1292 635 1233 l 684 1292 q 624 1174 677 1218 q 473 1131 571 1131 z "},"Ẵ":{"ha":947,"x_min":30,"x_max":918,"o":"m 865 0 l 718 367 l 228 367 l 81 0 l 30 0 l 444 1028 l 503 1028 l 918 0 l 865 0 m 246 413 l 700 413 l 473 979 l 246 413 m 574 1343 q 522 1350 547 1343 q 463 1372 497 1358 q 413 1390 431 1384 q 376 1395 394 1395 q 315 1383 342 1395 q 265 1347 288 1372 l 265 1393 q 376 1435 305 1435 q 427 1428 402 1435 q 485 1407 451 1421 q 536 1389 517 1394 q 574 1383 555 1383 q 634 1395 607 1383 q 684 1432 660 1407 l 684 1385 q 574 1343 645 1343 m 473 1131 q 323 1174 375 1131 q 265 1292 272 1217 l 306 1292 q 352 1202 314 1233 q 473 1172 390 1172 q 595 1202 556 1172 q 643 1292 635 1233 l 684 1292 q 624 1174 677 1218 q 473 1131 571 1131 z "},"Â":{"ha":947,"x_min":30,"x_max":918,"o":"m 865 0 l 718 367 l 228 367 l 81 0 l 30 0 l 444 1028 l 503 1028 l 918 0 l 865 0 m 246 413 l 700 413 l 473 979 l 246 413 m 683 1122 l 623 1122 l 475 1280 l 326 1122 l 266 1122 l 448 1311 l 501 1311 l 683 1122 z "},"Ấ":{"ha":947,"x_min":30,"x_max":918,"o":"m 865 0 l 718 367 l 228 367 l 81 0 l 30 0 l 444 1028 l 503 1028 l 918 0 l 865 0 m 246 413 l 700 413 l 473 979 l 246 413 m 774 1433 l 831 1433 l 683 1244 l 635 1244 l 774 1433 m 448 1311 l 501 1311 l 683 1122 l 623 1122 l 475 1280 l 326 1122 l 266 1122 l 448 1311 z "},"Ậ":{"ha":947,"x_min":30,"x_max":918,"o":"m 865 0 l 718 367 l 228 367 l 81 0 l 30 0 l 444 1028 l 503 1028 l 918 0 l 865 0 m 246 413 l 700 413 l 473 979 l 246 413 m 474 -215 q 443 -203 456 -215 q 431 -172 431 -192 q 443 -140 431 -153 q 474 -128 456 -128 q 505 -140 493 -128 q 517 -172 517 -153 q 505 -203 517 -192 q 474 -215 493 -215 m 683 1122 l 623 1122 l 475 1280 l 326 1122 l 266 1122 l 448 1311 l 501 1311 l 683 1122 z "},"Ầ":{"ha":947,"x_min":30,"x_max":918,"o":"m 865 0 l 718 367 l 228 367 l 81 0 l 30 0 l 444 1028 l 503 1028 l 918 0 l 865 0 m 246 413 l 700 413 l 473 979 l 246 413 m 697 1244 l 649 1244 l 501 1433 l 559 1433 l 697 1244 m 448 1311 l 501 1311 l 683 1122 l 623 1122 l 475 1280 l 326 1122 l 266 1122 l 448 1311 z "},"Ẩ":{"ha":947,"x_min":30,"x_max":918,"o":"m 865 0 l 718 367 l 228 367 l 81 0 l 30 0 l 444 1028 l 503 1028 l 918 0 l 865 0 m 246 413 l 700 413 l 473 979 l 246 413 m 672 1433 q 768 1413 736 1433 q 799 1359 799 1392 q 783 1318 799 1332 q 735 1292 767 1305 q 696 1271 709 1281 q 681 1244 683 1262 l 636 1244 q 647 1278 637 1265 q 671 1299 658 1291 q 708 1316 685 1306 q 746 1335 733 1326 q 758 1359 758 1344 q 739 1386 758 1377 q 672 1396 720 1396 q 599 1390 631 1396 q 528 1371 566 1385 l 528 1408 q 672 1433 589 1433 m 448 1311 l 501 1311 l 683 1122 l 623 1122 l 475 1280 l 326 1122 l 266 1122 l 448 1311 z "},"Ẫ":{"ha":947,"x_min":30,"x_max":918,"o":"m 865 0 l 718 367 l 228 367 l 81 0 l 30 0 l 444 1028 l 503 1028 l 918 0 l 865 0 m 246 413 l 700 413 l 473 979 l 246 413 m 573 1383 q 632 1395 606 1383 q 683 1432 659 1407 l 683 1385 q 573 1343 644 1343 q 522 1350 547 1343 q 463 1372 497 1358 q 413 1390 431 1384 q 376 1395 394 1395 q 316 1383 343 1395 q 266 1347 290 1372 l 266 1393 q 376 1435 305 1435 q 427 1428 403 1435 q 486 1407 452 1421 q 536 1389 517 1394 q 573 1383 554 1383 m 448 1311 l 501 1311 l 683 1122 l 623 1122 l 475 1280 l 326 1122 l 266 1122 l 448 1311 z "},"Ȁ":{"ha":947,"x_min":30,"x_max":918,"o":"m 865 0 l 718 367 l 228 367 l 81 0 l 30 0 l 444 1028 l 503 1028 l 918 0 l 865 0 m 246 413 l 700 413 l 473 979 l 246 413 m 342 1122 l 240 1311 l 289 1311 l 388 1122 l 342 1122 m 562 1122 l 460 1311 l 508 1311 l 606 1122 l 562 1122 z "},"Ä":{"ha":947,"x_min":30,"x_max":918,"o":"m 865 0 l 718 367 l 228 367 l 81 0 l 30 0 l 444 1028 l 503 1028 l 918 0 l 865 0 m 246 413 l 700 413 l 473 979 l 246 413 m 308 1174 q 277 1185 289 1174 q 265 1217 265 1197 q 277 1249 265 1236 q 308 1261 289 1261 q 339 1249 326 1261 q 351 1217 351 1236 q 339 1185 351 1197 q 308 1174 326 1174 m 641 1174 q 610 1185 622 1174 q 598 1217 598 1197 q 610 1249 598 1236 q 641 1261 622 1261 q 672 1249 660 1261 q 684 1217 684 1236 q 672 1185 684 1197 q 641 1174 660 1174 z "},"Ạ":{"ha":947,"x_min":30,"x_max":918,"o":"m 865 0 l 718 367 l 228 367 l 81 0 l 30 0 l 444 1028 l 503 1028 l 918 0 l 865 0 m 246 413 l 700 413 l 473 979 l 246 413 m 474 -215 q 443 -203 456 -215 q 431 -172 431 -192 q 443 -140 431 -153 q 474 -128 456 -128 q 505 -140 493 -128 q 517 -172 517 -153 q 505 -203 517 -192 q 474 -215 493 -215 z "},"À":{"ha":947,"x_min":30,"x_max":918,"o":"m 865 0 l 718 367 l 228 367 l 81 0 l 30 0 l 444 1028 l 503 1028 l 918 0 l 865 0 m 246 413 l 700 413 l 473 979 l 246 413 m 451 1122 l 303 1311 l 360 1311 l 498 1122 l 451 1122 z "},"Ả":{"ha":947,"x_min":30,"x_max":918,"o":"m 865 0 l 718 367 l 228 367 l 81 0 l 30 0 l 444 1028 l 503 1028 l 918 0 l 865 0 m 246 413 l 700 413 l 473 979 l 246 413 m 451 1122 q 463 1156 452 1142 q 486 1176 473 1169 q 523 1194 500 1184 q 561 1213 549 1203 q 574 1237 574 1222 q 555 1264 574 1255 q 487 1274 535 1274 q 414 1268 447 1274 q 343 1249 381 1263 l 343 1286 q 487 1311 404 1311 q 583 1291 551 1311 q 615 1237 615 1270 q 598 1196 615 1210 q 551 1169 582 1183 q 511 1149 524 1158 q 497 1122 499 1140 l 451 1122 z "},"Ȃ":{"ha":947,"x_min":30,"x_max":918,"o":"m 865 0 l 718 367 l 228 367 l 81 0 l 30 0 l 444 1028 l 503 1028 l 918 0 l 865 0 m 246 413 l 700 413 l 473 979 l 246 413 m 265 1142 q 323 1260 272 1217 q 473 1303 375 1303 q 624 1259 571 1303 q 684 1142 677 1215 l 643 1142 q 595 1232 635 1201 q 473 1262 556 1262 q 352 1232 390 1262 q 306 1142 314 1201 l 265 1142 z "},"Ā":{"ha":947,"x_min":30,"x_max":918,"o":"m 865 0 l 718 367 l 228 367 l 81 0 l 30 0 l 444 1028 l 503 1028 l 918 0 l 865 0 m 246 413 l 700 413 l 473 979 l 246 413 m 276 1197 l 276 1238 l 672 1238 l 672 1197 l 276 1197 z "},"Ą":{"ha":947,"x_min":30,"x_max":1010,"o":"m 884 -242 q 941 -235 913 -242 q 1010 -213 969 -228 l 1010 -251 q 886 -278 949 -278 q 776 -247 815 -278 q 738 -160 738 -217 q 766 -70 738 -111 q 860 11 794 -28 l 718 367 l 228 367 l 81 0 l 30 0 l 444 1028 l 503 1028 l 918 0 q 808 -77 839 -40 q 776 -158 776 -114 q 804 -220 776 -199 q 884 -242 831 -242 m 246 413 l 700 413 l 473 979 l 246 413 z "},"Å":{"ha":947,"x_min":30,"x_max":918,"o":"m 718 367 l 228 367 l 81 0 l 30 0 l 433 1001 q 372 1047 395 1014 q 349 1122 349 1079 q 365 1188 349 1158 q 411 1233 382 1217 q 476 1250 440 1250 q 542 1233 513 1250 q 588 1188 571 1217 q 604 1122 604 1158 q 580 1044 604 1077 q 515 1000 555 1012 l 918 0 l 865 0 l 718 367 m 386 1122 q 411 1055 386 1080 q 476 1031 436 1031 q 542 1055 517 1031 q 567 1122 567 1080 q 542 1189 567 1165 q 476 1214 517 1214 q 411 1189 436 1214 q 386 1122 386 1165 m 246 413 l 700 413 l 473 979 l 246 413 z "},"Ǻ":{"ha":947,"x_min":30,"x_max":918,"o":"m 718 367 l 228 367 l 81 0 l 30 0 l 433 1001 q 372 1047 395 1014 q 349 1122 349 1079 q 365 1188 349 1158 q 411 1233 382 1217 q 476 1250 440 1250 q 548 1230 515 1250 l 644 1325 l 700 1325 l 576 1205 q 597 1167 590 1189 q 604 1122 604 1146 q 580 1044 604 1077 q 515 1000 555 1012 l 918 0 l 865 0 l 718 367 m 386 1122 q 411 1055 386 1080 q 476 1031 436 1031 q 542 1055 517 1031 q 567 1122 567 1080 q 542 1189 567 1165 q 476 1214 517 1214 q 411 1189 436 1214 q 386 1122 386 1165 m 246 413 l 700 413 l 473 979 l 246 413 z "},"Ã":{"ha":947,"x_min":30,"x_max":918,"o":"m 865 0 l 718 367 l 228 367 l 81 0 l 30 0 l 444 1028 l 503 1028 l 918 0 l 865 0 m 246 413 l 700 413 l 473 979 l 246 413 m 580 1179 q 526 1186 551 1179 q 464 1207 501 1193 q 411 1225 431 1219 q 369 1231 390 1231 q 305 1219 333 1231 q 254 1182 278 1208 l 254 1229 q 369 1271 294 1271 q 422 1264 397 1271 q 485 1243 447 1257 q 538 1225 517 1231 q 580 1219 558 1219 q 643 1231 616 1219 q 695 1268 671 1242 l 695 1221 q 580 1179 655 1179 z "},"Æ":{"ha":1292,"x_min":30,"x_max":1229,"o":"m 717 46 l 1229 46 l 1229 0 l 672 0 l 645 367 l 230 367 l 81 0 l 30 0 l 451 1028 l 1222 1028 l 1222 982 l 647 982 l 679 551 l 1155 551 l 1155 506 l 683 506 l 717 46 m 249 413 l 642 413 l 600 982 l 481 982 l 249 413 z "},"Ǽ":{"ha":1292,"x_min":30,"x_max":1229,"o":"m 717 46 l 1229 46 l 1229 0 l 672 0 l 645 367 l 230 367 l 81 0 l 30 0 l 451 1028 l 1222 1028 l 1222 982 l 647 982 l 679 551 l 1155 551 l 1155 506 l 683 506 l 717 46 m 249 413 l 642 413 l 600 982 l 481 982 l 249 413 m 598 1122 l 736 1311 l 793 1311 l 645 1122 l 598 1122 z "},"B":{"ha":888,"x_min":141,"x_max":827,"o":"m 603 531 q 772 444 717 511 q 827 276 827 378 q 783 119 827 181 q 643 25 739 57 q 392 -7 547 -7 q 267 -3 324 -7 q 141 9 211 0 l 141 1012 q 272 1031 210 1025 q 415 1038 335 1038 q 706 972 615 1038 q 797 769 797 906 q 751 616 797 678 q 603 531 704 553 m 415 992 q 291 988 344 992 q 188 974 238 983 l 188 551 l 449 551 q 677 604 605 551 q 749 769 749 657 q 716 898 749 849 q 609 969 682 947 q 415 992 536 992 m 393 39 q 622 65 538 39 q 742 143 706 91 q 778 278 778 195 q 701 450 778 395 q 463 506 624 506 l 188 506 l 188 52 q 393 39 274 39 z "},"C":{"ha":824,"x_min":89,"x_max":793,"o":"m 540 -12 q 89 513 89 -12 q 210 913 89 785 q 551 1040 331 1040 q 675 1032 617 1040 q 793 1006 733 1023 l 793 958 q 549 994 674 994 q 243 882 348 994 q 139 515 139 769 q 188 231 139 338 q 325 79 237 124 q 540 33 414 33 q 665 43 606 33 q 793 78 724 53 l 793 31 q 540 -12 674 -12 z "},"Ć":{"ha":824,"x_min":89,"x_max":793,"o":"m 540 -12 q 89 513 89 -12 q 210 913 89 785 q 551 1040 331 1040 q 675 1032 617 1040 q 793 1006 733 1023 l 793 958 q 549 994 674 994 q 243 882 348 994 q 139 515 139 769 q 188 231 139 338 q 325 79 237 124 q 540 33 414 33 q 665 43 606 33 q 793 78 724 53 l 793 31 q 540 -12 674 -12 m 474 1122 l 613 1311 l 669 1311 l 522 1122 l 474 1122 z "},"Č":{"ha":824,"x_min":89,"x_max":793,"o":"m 540 -12 q 89 513 89 -12 q 210 913 89 785 q 551 1040 331 1040 q 675 1032 617 1040 q 793 1006 733 1023 l 793 958 q 549 994 674 994 q 243 882 348 994 q 139 515 139 769 q 188 231 139 338 q 325 79 237 124 q 540 33 414 33 q 665 43 606 33 q 793 78 724 53 l 793 31 q 540 -12 674 -12 m 647 1311 l 706 1311 l 524 1122 l 472 1122 l 290 1311 l 350 1311 l 499 1153 l 647 1311 z "},"Ç":{"ha":824,"x_min":89,"x_max":793,"o":"m 549 994 q 243 882 348 994 q 139 515 139 769 q 188 231 139 338 q 325 79 237 124 q 540 33 414 33 q 665 43 606 33 q 793 78 724 53 l 793 31 q 540 -12 674 -12 l 530 -12 l 530 -78 q 623 -105 589 -79 q 657 -178 657 -130 q 620 -252 657 -227 q 519 -278 583 -278 q 449 -271 485 -278 q 384 -251 413 -264 l 384 -212 q 454 -235 422 -228 q 519 -242 486 -242 q 618 -178 618 -242 q 517 -114 618 -114 l 491 -114 l 491 -11 q 89 513 89 17 q 210 913 89 785 q 551 1040 331 1040 q 675 1032 617 1040 q 793 1006 733 1023 l 793 958 q 549 994 674 994 z "},"Ḉ":{"ha":824,"x_min":89,"x_max":793,"o":"m 669 1311 l 522 1122 l 474 1122 l 613 1311 l 669 1311 m 549 994 q 243 882 348 994 q 139 515 139 769 q 188 231 139 338 q 325 79 237 124 q 540 33 414 33 q 665 43 606 33 q 793 78 724 53 l 793 31 q 540 -12 674 -12 l 530 -12 l 530 -78 q 623 -105 589 -79 q 657 -178 657 -130 q 620 -252 657 -227 q 519 -278 583 -278 q 449 -271 485 -278 q 384 -251 413 -264 l 384 -212 q 454 -235 422 -228 q 519 -242 486 -242 q 618 -178 618 -242 q 517 -114 618 -114 l 491 -114 l 491 -11 q 89 513 89 17 q 210 913 89 785 q 551 1040 331 1040 q 675 1032 617 1040 q 793 1006 733 1023 l 793 958 q 549 994 674 994 z "},"Ĉ":{"ha":824,"x_min":89,"x_max":793,"o":"m 540 -12 q 89 513 89 -12 q 210 913 89 785 q 551 1040 331 1040 q 675 1032 617 1040 q 793 1006 733 1023 l 793 958 q 549 994 674 994 q 243 882 348 994 q 139 515 139 769 q 188 231 139 338 q 325 79 237 124 q 540 33 414 33 q 665 43 606 33 q 793 78 724 53 l 793 31 q 540 -12 674 -12 m 706 1122 l 647 1122 l 499 1280 l 350 1122 l 290 1122 l 472 1311 l 524 1311 l 706 1122 z "},"Ċ":{"ha":824,"x_min":89,"x_max":793,"o":"m 540 -12 q 89 513 89 -12 q 210 913 89 785 q 551 1040 331 1040 q 675 1032 617 1040 q 793 1006 733 1023 l 793 958 q 549 994 674 994 q 243 882 348 994 q 139 515 139 769 q 188 231 139 338 q 325 79 237 124 q 540 33 414 33 q 665 43 606 33 q 793 78 724 53 l 793 31 q 540 -12 674 -12 m 498 1174 q 467 1185 479 1174 q 455 1217 455 1197 q 467 1249 455 1236 q 498 1261 479 1261 q 529 1249 517 1261 q 541 1217 541 1236 q 529 1185 541 1197 q 498 1174 517 1174 z "},"D":{"ha":998,"x_min":141,"x_max":909,"o":"m 385 -7 q 267 -3 322 -7 q 141 9 213 0 l 141 1013 q 398 1038 268 1038 q 780 907 651 1038 q 909 514 909 776 q 778 122 909 250 q 385 -7 647 -7 m 387 39 q 742 154 625 39 q 859 514 859 269 q 744 875 859 758 q 394 992 628 992 q 188 974 303 992 l 188 52 q 387 39 277 39 z "},"Ǳ":{"ha":1780,"x_min":141,"x_max":1733,"o":"m 385 -7 q 267 -3 322 -7 q 141 9 213 0 l 141 1013 q 398 1038 268 1038 q 780 907 651 1038 q 909 514 909 776 q 778 122 909 250 q 385 -7 647 -7 m 387 39 q 742 154 625 39 q 859 514 859 269 q 744 875 859 758 q 394 992 628 992 q 188 974 303 992 l 188 52 q 387 39 277 39 m 1074 44 l 1733 44 l 1733 0 l 1007 0 l 1007 28 l 1657 983 l 1016 983 l 1016 1028 l 1724 1028 l 1724 1000 l 1074 44 z "},"Ǆ":{"ha":1780,"x_min":141,"x_max":1733,"o":"m 385 -7 q 267 -3 322 -7 q 141 9 213 0 l 141 1013 q 398 1038 268 1038 q 780 907 651 1038 q 909 514 909 776 q 778 122 909 250 q 385 -7 647 -7 m 387 39 q 742 154 625 39 q 859 514 859 269 q 744 875 859 758 q 394 992 628 992 q 188 974 303 992 l 188 52 q 387 39 277 39 m 1074 44 l 1733 44 l 1733 0 l 1007 0 l 1007 28 l 1657 983 l 1016 983 l 1016 1028 l 1724 1028 l 1724 1000 l 1074 44 m 1519 1311 l 1578 1311 l 1397 1122 l 1344 1122 l 1162 1311 l 1222 1311 l 1371 1153 l 1519 1311 z "},"Ð":{"ha":998,"x_min":3,"x_max":909,"o":"m 398 1038 q 780 907 651 1038 q 909 514 909 776 q 778 122 909 250 q 385 -7 647 -7 q 267 -3 322 -7 q 141 9 213 0 l 141 508 l 3 508 l 3 550 l 141 550 l 141 1013 q 398 1038 268 1038 m 387 39 q 742 154 625 39 q 859 514 859 269 q 744 875 859 758 q 394 992 628 992 q 188 974 303 992 l 188 550 l 463 550 l 463 508 l 188 508 l 188 52 q 387 39 277 39 z "},"Ď":{"ha":998,"x_min":141,"x_max":909,"o":"m 385 -7 q 267 -3 322 -7 q 141 9 213 0 l 141 1013 q 398 1038 268 1038 q 780 907 651 1038 q 909 514 909 776 q 778 122 909 250 q 385 -7 647 -7 m 387 39 q 742 154 625 39 q 859 514 859 269 q 744 875 859 758 q 394 992 628 992 q 188 974 303 992 l 188 52 q 387 39 277 39 m 606 1311 l 666 1311 l 484 1122 l 431 1122 l 249 1311 l 310 1311 l 458 1153 l 606 1311 z "},"Đ":{"ha":998,"x_min":3,"x_max":909,"o":"m 398 1038 q 780 907 651 1038 q 909 514 909 776 q 778 122 909 250 q 385 -7 647 -7 q 267 -3 322 -7 q 141 9 213 0 l 141 508 l 3 508 l 3 550 l 141 550 l 141 1013 q 398 1038 268 1038 m 387 39 q 742 154 625 39 q 859 514 859 269 q 744 875 859 758 q 394 992 628 992 q 188 974 303 992 l 188 550 l 463 550 l 463 508 l 188 508 l 188 52 q 387 39 277 39 z "},"Ḍ":{"ha":998,"x_min":141,"x_max":909,"o":"m 385 -7 q 267 -3 322 -7 q 141 9 213 0 l 141 1013 q 398 1038 268 1038 q 780 907 651 1038 q 909 514 909 776 q 778 122 909 250 q 385 -7 647 -7 m 387 39 q 742 154 625 39 q 859 514 859 269 q 744 875 859 758 q 394 992 628 992 q 188 974 303 992 l 188 52 q 387 39 277 39 m 458 -215 q 427 -203 439 -215 q 415 -172 415 -192 q 427 -140 415 -153 q 458 -128 439 -128 q 489 -140 476 -128 q 501 -172 501 -153 q 489 -203 501 -192 q 458 -215 476 -215 z "},"Ḏ":{"ha":998,"x_min":141,"x_max":909,"o":"m 385 -7 q 267 -3 322 -7 q 141 9 213 0 l 141 1013 q 398 1038 268 1038 q 780 907 651 1038 q 909 514 909 776 q 778 122 909 250 q 385 -7 647 -7 m 387 39 q 742 154 625 39 q 859 514 859 269 q 744 875 859 758 q 394 992 628 992 q 188 974 303 992 l 188 52 q 387 39 277 39 m 260 -194 l 260 -153 l 656 -153 l 656 -194 l 260 -194 z "},"ǲ":{"ha":1642,"x_min":141,"x_max":1599,"o":"m 385 -7 q 267 -3 322 -7 q 141 9 213 0 l 141 1013 q 398 1038 268 1038 q 780 907 651 1038 q 909 514 909 776 q 778 122 909 250 q 385 -7 647 -7 m 387 39 q 742 154 625 39 q 859 514 859 269 q 744 875 859 758 q 394 992 628 992 q 188 974 303 992 l 188 52 q 387 39 277 39 m 1110 44 l 1599 44 l 1599 0 l 1043 0 l 1043 28 l 1523 706 l 1052 706 l 1052 750 l 1590 750 l 1590 722 l 1110 44 z "},"ǅ":{"ha":1642,"x_min":141,"x_max":1599,"o":"m 385 -7 q 267 -3 322 -7 q 141 9 213 0 l 141 1013 q 398 1038 268 1038 q 780 907 651 1038 q 909 514 909 776 q 778 122 909 250 q 385 -7 647 -7 m 387 39 q 742 154 625 39 q 859 514 859 269 q 744 875 859 758 q 394 992 628 992 q 188 974 303 992 l 188 52 q 387 39 277 39 m 1110 44 l 1599 44 l 1599 0 l 1043 0 l 1043 28 l 1523 706 l 1052 706 l 1052 750 l 1590 750 l 1590 722 l 1110 44 m 1470 1089 l 1530 1089 l 1348 900 l 1295 900 l 1113 1089 l 1174 1089 l 1322 931 l 1470 1089 z "},"E":{"ha":833,"x_min":141,"x_max":771,"o":"m 188 46 l 771 46 l 771 0 l 141 0 l 141 1028 l 764 1028 l 764 982 l 188 982 l 188 551 l 697 551 l 697 506 l 188 506 l 188 46 z "},"É":{"ha":833,"x_min":141,"x_max":771,"o":"m 188 46 l 771 46 l 771 0 l 141 0 l 141 1028 l 764 1028 l 764 982 l 188 982 l 188 551 l 697 551 l 697 506 l 188 506 l 188 46 m 444 1122 l 582 1311 l 639 1311 l 491 1122 l 444 1122 z "},"Ĕ":{"ha":833,"x_min":141,"x_max":771,"o":"m 188 46 l 771 46 l 771 0 l 141 0 l 141 1028 l 764 1028 l 764 982 l 188 982 l 188 551 l 697 551 l 697 506 l 188 506 l 188 46 m 469 1131 q 318 1174 371 1131 q 258 1292 265 1218 l 299 1292 q 347 1202 308 1233 q 469 1172 386 1172 q 590 1202 552 1172 q 636 1292 628 1233 l 677 1292 q 618 1174 670 1217 q 469 1131 567 1131 z "},"Ě":{"ha":833,"x_min":141,"x_max":771,"o":"m 188 46 l 771 46 l 771 0 l 141 0 l 141 1028 l 764 1028 l 764 982 l 188 982 l 188 551 l 697 551 l 697 506 l 188 506 l 188 46 m 616 1311 l 676 1311 l 494 1122 l 441 1122 l 259 1311 l 319 1311 l 468 1153 l 616 1311 z "},"Ḝ":{"ha":833,"x_min":141,"x_max":771,"o":"m 469 1131 q 318 1174 371 1131 q 258 1292 265 1218 l 299 1292 q 347 1202 308 1233 q 469 1172 386 1172 q 590 1202 552 1172 q 636 1292 628 1233 l 677 1292 q 618 1174 670 1217 q 469 1131 567 1131 m 489 0 l 489 -78 q 582 -105 548 -79 q 616 -178 616 -130 q 579 -252 616 -227 q 478 -278 542 -278 q 408 -271 444 -278 q 343 -251 372 -264 l 343 -212 q 413 -235 381 -228 q 478 -242 445 -242 q 577 -178 577 -242 q 476 -114 577 -114 l 450 -114 l 450 0 l 141 0 l 141 1028 l 764 1028 l 764 982 l 188 982 l 188 551 l 697 551 l 697 506 l 188 506 l 188 46 l 771 46 l 771 0 l 489 0 z "},"Ê":{"ha":833,"x_min":141,"x_max":771,"o":"m 188 46 l 771 46 l 771 0 l 141 0 l 141 1028 l 764 1028 l 764 982 l 188 982 l 188 551 l 697 551 l 697 506 l 188 506 l 188 46 m 676 1122 l 616 1122 l 468 1280 l 319 1122 l 259 1122 l 441 1311 l 494 1311 l 676 1122 z "},"Ế":{"ha":833,"x_min":141,"x_max":824,"o":"m 188 46 l 771 46 l 771 0 l 141 0 l 141 1028 l 764 1028 l 764 982 l 188 982 l 188 551 l 697 551 l 697 506 l 188 506 l 188 46 m 767 1433 l 824 1433 l 676 1244 l 628 1244 l 767 1433 m 441 1311 l 494 1311 l 676 1122 l 616 1122 l 468 1280 l 319 1122 l 259 1122 l 441 1311 z "},"Ệ":{"ha":833,"x_min":141,"x_max":771,"o":"m 188 46 l 771 46 l 771 0 l 141 0 l 141 1028 l 764 1028 l 764 982 l 188 982 l 188 551 l 697 551 l 697 506 l 188 506 l 188 46 m 469 -215 q 439 -203 451 -215 q 426 -172 426 -192 q 439 -140 426 -153 q 469 -128 451 -128 q 500 -140 488 -128 q 513 -172 513 -153 q 500 -203 513 -192 q 469 -215 488 -215 m 676 1122 l 616 1122 l 468 1280 l 319 1122 l 259 1122 l 441 1311 l 494 1311 l 676 1122 z "},"Ề":{"ha":833,"x_min":141,"x_max":771,"o":"m 188 46 l 771 46 l 771 0 l 141 0 l 141 1028 l 764 1028 l 764 982 l 188 982 l 188 551 l 697 551 l 697 506 l 188 506 l 188 46 m 690 1244 l 642 1244 l 494 1433 l 552 1433 l 690 1244 m 441 1311 l 494 1311 l 676 1122 l 616 1122 l 468 1280 l 319 1122 l 259 1122 l 441 1311 z "},"Ể":{"ha":833,"x_min":141,"x_max":792,"o":"m 188 46 l 771 46 l 771 0 l 141 0 l 141 1028 l 764 1028 l 764 982 l 188 982 l 188 551 l 697 551 l 697 506 l 188 506 l 188 46 m 665 1433 q 761 1413 729 1433 q 792 1359 792 1392 q 776 1318 792 1332 q 728 1292 760 1305 q 689 1271 702 1281 q 674 1244 676 1262 l 629 1244 q 640 1278 630 1265 q 664 1299 651 1291 q 701 1316 678 1306 q 739 1335 726 1326 q 751 1359 751 1344 q 732 1386 751 1377 q 665 1396 713 1396 q 592 1390 624 1396 q 521 1371 559 1385 l 521 1408 q 665 1433 582 1433 m 441 1311 l 494 1311 l 676 1122 l 616 1122 l 468 1280 l 319 1122 l 259 1122 l 441 1311 z "},"Ễ":{"ha":833,"x_min":141,"x_max":771,"o":"m 188 46 l 771 46 l 771 0 l 141 0 l 141 1028 l 764 1028 l 764 982 l 188 982 l 188 551 l 697 551 l 697 506 l 188 506 l 188 46 m 566 1383 q 625 1395 599 1383 q 676 1432 652 1407 l 676 1385 q 566 1343 637 1343 q 515 1350 540 1343 q 456 1372 490 1358 q 406 1390 424 1384 q 369 1395 388 1395 q 309 1383 336 1395 q 259 1347 283 1372 l 259 1393 q 369 1435 298 1435 q 420 1428 396 1435 q 479 1407 445 1421 q 529 1389 510 1394 q 566 1383 547 1383 m 441 1311 l 494 1311 l 676 1122 l 616 1122 l 468 1280 l 319 1122 l 259 1122 l 441 1311 z "},"Ȅ":{"ha":833,"x_min":141,"x_max":771,"o":"m 188 46 l 771 46 l 771 0 l 141 0 l 141 1028 l 764 1028 l 764 982 l 188 982 l 188 551 l 697 551 l 697 506 l 188 506 l 188 46 m 335 1122 l 233 1311 l 282 1311 l 381 1122 l 335 1122 m 555 1122 l 453 1311 l 501 1311 l 599 1122 l 555 1122 z "},"Ë":{"ha":833,"x_min":141,"x_max":771,"o":"m 188 46 l 771 46 l 771 0 l 141 0 l 141 1028 l 764 1028 l 764 982 l 188 982 l 188 551 l 697 551 l 697 506 l 188 506 l 188 46 m 301 1174 q 270 1185 282 1174 q 258 1217 258 1197 q 270 1249 258 1236 q 301 1261 282 1261 q 332 1249 319 1261 q 344 1217 344 1236 q 332 1185 344 1197 q 301 1174 319 1174 m 634 1174 q 603 1185 615 1174 q 591 1217 591 1197 q 603 1249 591 1236 q 634 1261 615 1261 q 665 1249 653 1261 q 677 1217 677 1236 q 665 1185 677 1197 q 634 1174 653 1174 z "},"Ė":{"ha":833,"x_min":141,"x_max":771,"o":"m 188 46 l 771 46 l 771 0 l 141 0 l 141 1028 l 764 1028 l 764 982 l 188 982 l 188 551 l 697 551 l 697 506 l 188 506 l 188 46 m 467 1174 q 436 1185 449 1174 q 424 1217 424 1197 q 436 1249 424 1236 q 467 1261 449 1261 q 498 1249 486 1261 q 510 1217 510 1236 q 498 1185 510 1197 q 467 1174 486 1174 z "},"Ẹ":{"ha":833,"x_min":141,"x_max":771,"o":"m 188 46 l 771 46 l 771 0 l 141 0 l 141 1028 l 764 1028 l 764 982 l 188 982 l 188 551 l 697 551 l 697 506 l 188 506 l 188 46 m 469 -215 q 439 -203 451 -215 q 426 -172 426 -192 q 439 -140 426 -153 q 469 -128 451 -128 q 500 -140 488 -128 q 513 -172 513 -153 q 500 -203 513 -192 q 469 -215 488 -215 z "},"È":{"ha":833,"x_min":141,"x_max":771,"o":"m 188 46 l 771 46 l 771 0 l 141 0 l 141 1028 l 764 1028 l 764 982 l 188 982 l 188 551 l 697 551 l 697 506 l 188 506 l 188 46 m 444 1122 l 296 1311 l 353 1311 l 491 1122 l 444 1122 z "},"Ẻ":{"ha":833,"x_min":141,"x_max":771,"o":"m 188 46 l 771 46 l 771 0 l 141 0 l 141 1028 l 764 1028 l 764 982 l 188 982 l 188 551 l 697 551 l 697 506 l 188 506 l 188 46 m 444 1122 q 456 1156 445 1142 q 480 1176 466 1169 q 516 1194 493 1184 q 554 1213 542 1203 q 567 1237 567 1222 q 548 1264 567 1255 q 480 1274 528 1274 q 407 1268 440 1274 q 336 1249 374 1263 l 336 1286 q 480 1311 397 1311 q 576 1291 544 1311 q 608 1237 608 1270 q 591 1196 608 1210 q 544 1169 575 1183 q 505 1149 517 1158 q 490 1122 492 1140 l 444 1122 z "},"Ȇ":{"ha":833,"x_min":141,"x_max":771,"o":"m 188 46 l 771 46 l 771 0 l 141 0 l 141 1028 l 764 1028 l 764 982 l 188 982 l 188 551 l 697 551 l 697 506 l 188 506 l 188 46 m 258 1142 q 316 1260 265 1217 q 466 1303 368 1303 q 617 1259 564 1303 q 677 1142 670 1215 l 636 1142 q 589 1232 628 1201 q 466 1262 549 1262 q 345 1232 383 1262 q 299 1142 307 1201 l 258 1142 z "},"Ē":{"ha":833,"x_min":141,"x_max":771,"o":"m 188 46 l 771 46 l 771 0 l 141 0 l 141 1028 l 764 1028 l 764 982 l 188 982 l 188 551 l 697 551 l 697 506 l 188 506 l 188 46 m 269 1197 l 269 1238 l 665 1238 l 665 1197 l 269 1197 z "},"Ḗ":{"ha":833,"x_min":141,"x_max":771,"o":"m 188 46 l 771 46 l 771 0 l 141 0 l 141 1028 l 764 1028 l 764 982 l 188 982 l 188 551 l 697 551 l 697 506 l 188 506 l 188 46 m 444 1308 l 581 1469 l 639 1469 l 492 1308 l 444 1308 m 269 1197 l 269 1238 l 665 1238 l 665 1197 l 269 1197 z "},"Ḕ":{"ha":833,"x_min":141,"x_max":771,"o":"m 188 46 l 771 46 l 771 0 l 141 0 l 141 1028 l 764 1028 l 764 982 l 188 982 l 188 551 l 697 551 l 697 506 l 188 506 l 188 46 m 444 1308 l 296 1469 l 353 1469 l 491 1308 l 444 1308 m 269 1197 l 269 1238 l 665 1238 l 665 1197 l 269 1197 z "},"Ę":{"ha":833,"x_min":141,"x_max":807,"o":"m 681 -242 q 738 -235 710 -242 q 807 -213 767 -228 l 807 -251 q 683 -278 746 -278 q 573 -247 612 -278 q 535 -160 535 -217 q 559 -76 535 -115 q 640 0 583 -37 l 141 0 l 141 1028 l 764 1028 l 764 982 l 188 982 l 188 551 l 697 551 l 697 506 l 188 506 l 188 46 l 771 46 l 771 0 l 715 0 q 605 -77 636 -40 q 574 -158 574 -114 q 601 -220 574 -199 q 681 -242 628 -242 z "},"Ẽ":{"ha":833,"x_min":141,"x_max":771,"o":"m 188 46 l 771 46 l 771 0 l 141 0 l 141 1028 l 764 1028 l 764 982 l 188 982 l 188 551 l 697 551 l 697 506 l 188 506 l 188 46 m 573 1179 q 519 1186 544 1179 q 457 1207 494 1193 q 404 1225 424 1219 q 362 1231 383 1231 q 298 1219 326 1231 q 247 1182 271 1208 l 247 1229 q 362 1271 287 1271 q 415 1264 390 1271 q 478 1243 440 1257 q 531 1225 510 1231 q 573 1219 551 1219 q 636 1231 609 1219 q 688 1268 664 1242 l 688 1221 q 573 1179 648 1179 z "},"F":{"ha":803,"x_min":141,"x_max":757,"o":"m 757 982 l 188 982 l 188 551 l 690 551 l 690 506 l 188 506 l 188 0 l 141 0 l 141 1028 l 757 1028 l 757 982 z "},"G":{"ha":972,"x_min":89,"x_max":844,"o":"m 844 500 l 844 13 q 722 -3 775 1 q 608 -7 669 -7 q 219 122 350 -7 q 89 515 89 250 q 150 814 89 697 q 320 986 212 931 q 572 1040 428 1040 q 694 1032 634 1040 q 820 1006 753 1023 l 820 958 q 691 986 749 978 q 573 994 632 994 q 255 880 372 994 q 139 517 139 766 q 256 155 139 271 q 608 39 372 39 q 797 54 718 39 l 797 500 l 844 500 z "},"Ǵ":{"ha":972,"x_min":89,"x_max":844,"o":"m 844 500 l 844 13 q 722 -3 775 1 q 608 -7 669 -7 q 219 122 350 -7 q 89 515 89 250 q 150 814 89 697 q 320 986 212 931 q 572 1040 428 1040 q 694 1032 634 1040 q 820 1006 753 1023 l 820 958 q 691 986 749 978 q 573 994 632 994 q 255 880 372 994 q 139 517 139 766 q 256 155 139 271 q 608 39 372 39 q 797 54 718 39 l 797 500 l 844 500 m 501 1122 l 639 1311 l 696 1311 l 548 1122 l 501 1122 z "},"Ğ":{"ha":972,"x_min":89,"x_max":844,"o":"m 844 500 l 844 13 q 722 -3 775 1 q 608 -7 669 -7 q 219 122 350 -7 q 89 515 89 250 q 150 814 89 697 q 320 986 212 931 q 572 1040 428 1040 q 694 1032 634 1040 q 820 1006 753 1023 l 820 958 q 691 986 749 978 q 573 994 632 994 q 255 880 372 994 q 139 517 139 766 q 256 155 139 271 q 608 39 372 39 q 797 54 718 39 l 797 500 l 844 500 m 526 1131 q 375 1174 428 1131 q 315 1292 322 1218 l 356 1292 q 404 1202 365 1233 q 526 1172 443 1172 q 647 1202 609 1172 q 693 1292 685 1233 l 734 1292 q 675 1174 727 1217 q 526 1131 624 1131 z "},"Ǧ":{"ha":972,"x_min":89,"x_max":844,"o":"m 844 500 l 844 13 q 722 -3 775 1 q 608 -7 669 -7 q 219 122 350 -7 q 89 515 89 250 q 150 814 89 697 q 320 986 212 931 q 572 1040 428 1040 q 694 1032 634 1040 q 820 1006 753 1023 l 820 958 q 691 986 749 978 q 573 994 632 994 q 255 880 372 994 q 139 517 139 766 q 256 155 139 271 q 608 39 372 39 q 797 54 718 39 l 797 500 l 844 500 m 673 1311 l 733 1311 l 551 1122 l 498 1122 l 316 1311 l 376 1311 l 525 1153 l 673 1311 z "},"Ĝ":{"ha":972,"x_min":89,"x_max":844,"o":"m 844 500 l 844 13 q 722 -3 775 1 q 608 -7 669 -7 q 219 122 350 -7 q 89 515 89 250 q 150 814 89 697 q 320 986 212 931 q 572 1040 428 1040 q 694 1032 634 1040 q 820 1006 753 1023 l 820 958 q 691 986 749 978 q 573 994 632 994 q 255 880 372 994 q 139 517 139 766 q 256 155 139 271 q 608 39 372 39 q 797 54 718 39 l 797 500 l 844 500 m 733 1122 l 673 1122 l 525 1280 l 376 1122 l 316 1122 l 498 1311 l 551 1311 l 733 1122 z "},"Ģ":{"ha":972,"x_min":89,"x_max":844,"o":"m 844 500 l 844 13 q 722 -3 775 1 q 608 -7 669 -7 q 219 122 350 -7 q 89 515 89 250 q 150 814 89 697 q 320 986 212 931 q 572 1040 428 1040 q 694 1032 634 1040 q 820 1006 753 1023 l 820 958 q 691 986 749 978 q 573 994 632 994 q 255 880 372 994 q 139 517 139 766 q 256 155 139 271 q 608 39 372 39 q 797 54 718 39 l 797 500 l 844 500 m 522 -128 q 555 -143 543 -128 q 567 -187 567 -158 q 560 -247 567 -214 q 537 -311 552 -281 l 506 -311 q 529 -215 526 -262 l 524 -215 q 493 -203 506 -215 q 481 -171 481 -190 q 493 -140 481 -152 q 522 -128 504 -128 z "},"Ġ":{"ha":972,"x_min":89,"x_max":844,"o":"m 844 500 l 844 13 q 722 -3 775 1 q 608 -7 669 -7 q 219 122 350 -7 q 89 515 89 250 q 150 814 89 697 q 320 986 212 931 q 572 1040 428 1040 q 694 1032 634 1040 q 820 1006 753 1023 l 820 958 q 691 986 749 978 q 573 994 632 994 q 255 880 372 994 q 139 517 139 766 q 256 155 139 271 q 608 39 372 39 q 797 54 718 39 l 797 500 l 844 500 m 524 1174 q 493 1185 506 1174 q 481 1217 481 1197 q 493 1249 481 1236 q 524 1261 506 1261 q 555 1249 543 1261 q 567 1217 567 1236 q 555 1185 567 1197 q 524 1174 543 1174 z "},"Ḡ":{"ha":972,"x_min":89,"x_max":844,"o":"m 844 500 l 844 13 q 722 -3 775 1 q 608 -7 669 -7 q 219 122 350 -7 q 89 515 89 250 q 150 814 89 697 q 320 986 212 931 q 572 1040 428 1040 q 694 1032 634 1040 q 820 1006 753 1023 l 820 958 q 691 986 749 978 q 573 994 632 994 q 255 880 372 994 q 139 517 139 766 q 256 155 139 271 q 608 39 372 39 q 797 54 718 39 l 797 500 l 844 500 m 326 1197 l 326 1238 l 722 1238 l 722 1197 l 326 1197 z "},"H":{"ha":1033,"x_min":141,"x_max":892,"o":"m 141 0 l 141 1028 l 188 1028 l 188 551 l 844 551 l 844 1028 l 892 1028 l 892 0 l 844 0 l 844 506 l 188 506 l 188 0 l 141 0 z "},"Ħ":{"ha":1033,"x_min":3,"x_max":1029,"o":"m 1029 813 l 1029 771 l 892 771 l 892 0 l 844 0 l 844 506 l 188 506 l 188 0 l 141 0 l 141 771 l 3 771 l 3 813 l 141 813 l 141 1028 l 188 1028 l 188 813 l 844 813 l 844 1028 l 892 1028 l 892 813 l 1029 813 m 844 551 l 844 771 l 188 771 l 188 551 l 844 551 z "},"Ḫ":{"ha":1033,"x_min":141,"x_max":892,"o":"m 141 0 l 141 1028 l 188 1028 l 188 551 l 844 551 l 844 1028 l 892 1028 l 892 0 l 844 0 l 844 506 l 188 506 l 188 0 l 141 0 m 518 -278 q 362 -232 415 -278 q 307 -111 308 -186 l 348 -111 q 392 -204 351 -172 q 518 -237 432 -237 q 643 -205 604 -237 q 685 -111 683 -172 l 726 -111 q 673 -233 725 -187 q 518 -278 621 -278 z "},"Ĥ":{"ha":1033,"x_min":141,"x_max":892,"o":"m 141 0 l 141 1028 l 188 1028 l 188 551 l 844 551 l 844 1028 l 892 1028 l 892 0 l 844 0 l 844 506 l 188 506 l 188 0 l 141 0 m 725 1122 l 665 1122 l 517 1280 l 369 1122 l 308 1122 l 490 1311 l 543 1311 l 725 1122 z "},"Ḥ":{"ha":1033,"x_min":141,"x_max":892,"o":"m 141 0 l 141 1028 l 188 1028 l 188 551 l 844 551 l 844 1028 l 892 1028 l 892 0 l 844 0 l 844 506 l 188 506 l 188 0 l 141 0 m 517 -215 q 486 -203 498 -215 q 474 -172 474 -192 q 486 -140 474 -153 q 517 -128 498 -128 q 548 -140 535 -128 q 560 -172 560 -153 q 548 -203 560 -192 q 517 -215 535 -215 z "},"I":{"ha":329,"x_min":141,"x_max":188,"o":"m 141 0 l 141 1028 l 188 1028 l 188 0 l 141 0 z "},"Í":{"ha":329,"x_min":141,"x_max":336,"o":"m 141 0 l 141 1028 l 188 1028 l 188 0 l 141 0 m 141 1122 l 279 1311 l 336 1311 l 188 1122 l 141 1122 z "},"Ĭ":{"ha":329,"x_min":-45,"x_max":374,"o":"m 141 0 l 141 1028 l 188 1028 l 188 0 l 141 0 m 166 1131 q 15 1174 68 1131 q -45 1292 -38 1218 l -4 1292 q 44 1202 5 1233 q 166 1172 83 1172 q 288 1202 249 1172 q 333 1292 326 1233 l 374 1292 q 316 1174 367 1217 q 166 1131 264 1131 z "},"Î":{"ha":329,"x_min":-44,"x_max":373,"o":"m 141 0 l 141 1028 l 188 1028 l 188 0 l 141 0 m 373 1122 l 313 1122 l 165 1280 l 17 1122 l -44 1122 l 138 1311 l 191 1311 l 373 1122 z "},"Ȉ":{"ha":329,"x_min":-69,"x_max":297,"o":"m 141 0 l 141 1028 l 188 1028 l 188 0 l 141 0 m 33 1122 l -69 1311 l -21 1311 l 78 1122 l 33 1122 m 252 1122 l 150 1311 l 199 1311 l 297 1122 l 252 1122 z "},"Ï":{"ha":329,"x_min":-45,"x_max":374,"o":"m 141 0 l 141 1028 l 188 1028 l 188 0 l 141 0 m -2 1174 q -33 1185 -21 1174 q -45 1217 -45 1197 q -33 1249 -45 1236 q -2 1261 -21 1261 q 29 1249 17 1261 q 41 1217 41 1236 q 29 1185 41 1197 q -2 1174 17 1174 m 331 1174 q 300 1185 313 1174 q 288 1217 288 1197 q 300 1249 288 1236 q 331 1261 313 1261 q 362 1249 350 1261 q 374 1217 374 1236 q 362 1185 374 1197 q 331 1174 350 1174 z "},"Ḯ":{"ha":329,"x_min":-45,"x_max":374,"o":"m 141 0 l 141 1028 l 188 1028 l 188 0 l 141 0 m 141 1308 l 278 1469 l 336 1469 l 190 1308 l 141 1308 m -2 1174 q -33 1185 -21 1174 q -45 1217 -45 1197 q -33 1249 -45 1236 q -2 1261 -21 1261 q 29 1249 17 1261 q 41 1217 41 1236 q 29 1185 41 1197 q -2 1174 17 1174 m 331 1174 q 300 1185 313 1174 q 288 1217 288 1197 q 300 1249 288 1236 q 331 1261 313 1261 q 362 1249 350 1261 q 374 1217 374 1236 q 362 1185 374 1197 q 331 1174 350 1174 z "},"İ":{"ha":329,"x_min":122,"x_max":208,"o":"m 141 0 l 141 1028 l 188 1028 l 188 0 l 141 0 m 165 1174 q 134 1185 146 1174 q 122 1217 122 1197 q 134 1249 122 1236 q 165 1261 146 1261 q 195 1249 183 1261 q 208 1217 208 1236 q 195 1185 208 1197 q 165 1174 183 1174 z "},"Ị":{"ha":329,"x_min":122,"x_max":208,"o":"m 141 0 l 141 1028 l 188 1028 l 188 0 l 141 0 m 165 -215 q 134 -203 146 -215 q 122 -172 122 -192 q 134 -140 122 -153 q 165 -128 146 -128 q 195 -140 183 -128 q 208 -172 208 -153 q 195 -203 208 -192 q 165 -215 183 -215 z "},"Ì":{"ha":329,"x_min":-7,"x_max":188,"o":"m 141 0 l 141 1028 l 188 1028 l 188 0 l 141 0 m 141 1122 l -7 1311 l 51 1311 l 188 1122 l 141 1122 z "},"Ỉ":{"ha":329,"x_min":33,"x_max":305,"o":"m 141 0 l 141 1028 l 188 1028 l 188 0 l 141 0 m 142 1122 q 153 1156 142 1142 q 177 1176 163 1169 q 213 1194 190 1184 q 251 1213 239 1203 q 264 1237 264 1222 q 245 1264 264 1255 q 177 1274 226 1274 q 104 1268 137 1274 q 33 1249 72 1263 l 33 1286 q 177 1311 94 1311 q 273 1291 242 1311 q 305 1237 305 1270 q 289 1196 305 1210 q 241 1169 272 1183 q 202 1149 215 1158 q 187 1122 189 1140 l 142 1122 z "},"Ȋ":{"ha":329,"x_min":-45,"x_max":374,"o":"m 141 0 l 141 1028 l 188 1028 l 188 0 l 141 0 m -45 1142 q 14 1260 -38 1217 q 163 1303 65 1303 q 314 1259 261 1303 q 374 1142 367 1215 l 333 1142 q 286 1232 325 1201 q 163 1262 247 1262 q 42 1232 81 1262 q -4 1142 4 1201 l -45 1142 z "},"Ī":{"ha":329,"x_min":-33,"x_max":363,"o":"m 141 0 l 141 1028 l 188 1028 l 188 0 l 141 0 m -33 1197 l -33 1238 l 363 1238 l 363 1197 l -33 1197 z "},"Į":{"ha":329,"x_min":8,"x_max":280,"o":"m 154 -242 q 211 -235 183 -242 q 280 -213 240 -228 l 280 -251 q 156 -278 219 -278 q 46 -247 85 -278 q 8 -160 8 -217 q 39 -66 8 -109 q 141 17 69 -24 l 141 1028 l 188 1028 l 188 0 q 78 -77 109 -40 q 47 -158 47 -114 q 74 -220 47 -199 q 154 -242 101 -242 z "},"Ĩ":{"ha":329,"x_min":-56,"x_max":385,"o":"m 141 0 l 141 1028 l 188 1028 l 188 0 l 141 0 m 270 1179 q 217 1186 242 1179 q 154 1207 192 1193 q 101 1225 122 1219 q 59 1231 81 1231 q -5 1219 23 1231 q -56 1182 -32 1208 l -56 1229 q 59 1271 -16 1271 q 113 1264 88 1271 q 175 1243 138 1257 q 228 1225 208 1231 q 270 1219 249 1219 q 334 1231 306 1219 q 385 1268 361 1242 l 385 1221 q 270 1179 345 1179 z "},"J":{"ha":329,"x_min":1,"x_max":188,"o":"m 1 -212 q 108 -20 74 -117 q 141 199 141 77 l 141 1028 l 188 1028 l 188 175 q 147 -42 182 53 q 35 -236 113 -137 l 1 -212 z "},"Ĵ":{"ha":329,"x_min":-44,"x_max":373,"o":"m 1 -212 q 108 -20 74 -117 q 141 199 141 77 l 141 1028 l 188 1028 l 188 175 q 147 -42 182 53 q 35 -236 113 -137 l 1 -212 m 373 1122 l 313 1122 l 165 1280 l 17 1122 l -44 1122 l 138 1311 l 191 1311 l 373 1122 z "},"K":{"ha":872,"x_min":141,"x_max":869,"o":"m 808 0 l 386 506 l 188 506 l 188 0 l 141 0 l 141 1028 l 188 1028 l 188 551 l 390 551 l 781 1028 l 840 1028 l 428 529 l 869 0 l 808 0 z "},"Ķ":{"ha":872,"x_min":141,"x_max":869,"o":"m 808 0 l 386 506 l 188 506 l 188 0 l 141 0 l 141 1028 l 188 1028 l 188 551 l 390 551 l 781 1028 l 840 1028 l 428 529 l 869 0 l 808 0 m 446 -128 q 480 -143 467 -128 q 492 -187 492 -158 q 484 -247 492 -214 q 461 -311 476 -281 l 431 -311 q 453 -215 450 -262 l 449 -215 q 418 -203 430 -215 q 406 -171 406 -190 q 417 -140 406 -152 q 446 -128 428 -128 z "},"L":{"ha":761,"x_min":141,"x_max":749,"o":"m 141 0 l 141 1028 l 188 1028 l 188 46 l 749 46 l 749 0 l 141 0 z "},"Ǉ":{"ha":1090,"x_min":141,"x_max":949,"o":"m 141 0 l 141 1028 l 188 1028 l 188 46 l 749 46 l 749 0 l 141 0 m 763 -212 q 869 -20 835 -117 q 902 199 902 77 l 902 1028 l 949 1028 l 949 175 q 908 -42 943 53 q 796 -236 874 -137 l 763 -212 z "},"Ĺ":{"ha":761,"x_min":141,"x_max":749,"o":"m 141 0 l 141 1028 l 188 1028 l 188 46 l 749 46 l 749 0 l 141 0 m 141 1122 l 279 1311 l 336 1311 l 188 1122 l 141 1122 z "},"Ľ":{"ha":761,"x_min":141,"x_max":749,"o":"m 141 0 l 141 1028 l 188 1028 l 188 46 l 749 46 l 749 0 l 141 0 m 481 792 q 491 938 488 858 q 493 1122 493 1018 l 538 1122 q 513 792 538 919 l 481 792 z "},"Ļ":{"ha":761,"x_min":141,"x_max":749,"o":"m 141 0 l 141 1028 l 188 1028 l 188 46 l 749 46 l 749 0 l 141 0 m 443 -128 q 477 -143 465 -128 q 489 -187 489 -158 q 481 -247 489 -214 q 458 -311 474 -281 l 428 -311 q 451 -215 447 -262 l 446 -215 q 415 -203 427 -215 q 403 -171 403 -190 q 414 -140 403 -152 q 443 -128 426 -128 z "},"Ŀ":{"ha":761,"x_min":141,"x_max":749,"o":"m 141 0 l 141 1028 l 188 1028 l 188 46 l 749 46 l 749 0 l 141 0 m 536 493 q 505 505 517 493 q 493 536 493 517 q 505 568 493 556 q 536 581 517 581 q 567 568 555 581 q 579 536 579 556 q 567 505 579 517 q 536 493 555 493 z "},"Ḷ":{"ha":761,"x_min":141,"x_max":749,"o":"m 141 0 l 141 1028 l 188 1028 l 188 46 l 749 46 l 749 0 l 141 0 m 446 -215 q 415 -203 427 -215 q 403 -172 403 -192 q 415 -140 403 -153 q 446 -128 427 -128 q 477 -140 465 -128 q 489 -172 489 -153 q 477 -203 489 -192 q 446 -215 465 -215 z "},"ǈ":{"ha":1063,"x_min":141,"x_max":955,"o":"m 141 0 l 141 1028 l 188 1028 l 188 46 l 749 46 l 749 0 l 141 0 m 748 -295 q 855 -103 822 -201 q 888 115 888 -6 l 888 750 l 935 750 l 935 119 q 899 -114 935 -12 q 782 -319 863 -217 l 748 -295 m 912 951 q 881 963 893 951 q 869 994 869 974 q 881 1026 869 1013 q 912 1038 893 1038 q 943 1026 931 1038 q 955 994 955 1013 q 943 963 955 974 q 912 951 931 951 z "},"Ḻ":{"ha":761,"x_min":141,"x_max":749,"o":"m 141 0 l 141 1028 l 188 1028 l 188 46 l 749 46 l 749 0 l 141 0 m 248 -194 l 248 -153 l 644 -153 l 644 -194 l 248 -194 z "},"Ł":{"ha":761,"x_min":3,"x_max":749,"o":"m 188 46 l 749 46 l 749 0 l 141 0 l 141 487 l 29 394 l 3 427 l 141 541 l 141 1028 l 188 1028 l 188 581 l 394 750 l 421 718 l 188 526 l 188 46 z "},"M":{"ha":1236,"x_min":144,"x_max":1092,"o":"m 1041 1028 l 1092 1028 l 1092 0 l 1047 0 l 1047 938 l 644 139 l 592 139 l 190 935 l 190 0 l 144 0 l 144 1028 l 196 1028 l 619 183 l 1041 1028 z "},"Ṃ":{"ha":1236,"x_min":144,"x_max":1092,"o":"m 1041 1028 l 1092 1028 l 1092 0 l 1047 0 l 1047 938 l 644 139 l 592 139 l 190 935 l 190 0 l 144 0 l 144 1028 l 196 1028 l 619 183 l 1041 1028 m 618 -215 q 587 -203 599 -215 q 575 -172 575 -192 q 587 -140 575 -153 q 618 -128 599 -128 q 649 -140 637 -128 q 661 -172 661 -153 q 649 -203 661 -192 q 618 -215 637 -215 z "},"N":{"ha":1053,"x_min":141,"x_max":913,"o":"m 867 1028 l 913 1028 l 913 0 l 860 0 l 187 956 l 187 0 l 141 0 l 141 1028 l 193 1028 l 867 72 l 867 1028 z "},"Ǌ":{"ha":1383,"x_min":141,"x_max":1242,"o":"m 867 1028 l 913 1028 l 913 0 l 860 0 l 187 956 l 187 0 l 141 0 l 141 1028 l 193 1028 l 867 72 l 867 1028 m 1055 -212 q 1161 -20 1128 -117 q 1194 199 1194 77 l 1194 1028 l 1242 1028 l 1242 175 q 1201 -42 1235 53 q 1088 -236 1166 -137 l 1055 -212 z "},"Ń":{"ha":1053,"x_min":141,"x_max":913,"o":"m 867 1028 l 913 1028 l 913 0 l 860 0 l 187 956 l 187 0 l 141 0 l 141 1028 l 193 1028 l 867 72 l 867 1028 m 503 1122 l 642 1311 l 699 1311 l 551 1122 l 503 1122 z "},"Ň":{"ha":1053,"x_min":141,"x_max":913,"o":"m 867 1028 l 913 1028 l 913 0 l 860 0 l 187 956 l 187 0 l 141 0 l 141 1028 l 193 1028 l 867 72 l 867 1028 m 676 1311 l 735 1311 l 553 1122 l 501 1122 l 319 1311 l 379 1311 l 528 1153 l 676 1311 z "},"Ņ":{"ha":1053,"x_min":141,"x_max":913,"o":"m 867 1028 l 913 1028 l 913 0 l 860 0 l 187 956 l 187 0 l 141 0 l 141 1028 l 193 1028 l 867 72 l 867 1028 m 524 -128 q 558 -143 546 -128 q 570 -187 570 -158 q 563 -247 570 -214 q 540 -311 555 -281 l 509 -311 q 532 -215 528 -262 l 527 -215 q 496 -203 508 -215 q 484 -171 484 -190 q 495 -140 484 -152 q 524 -128 507 -128 z "},"Ṅ":{"ha":1053,"x_min":141,"x_max":913,"o":"m 867 1028 l 913 1028 l 913 0 l 860 0 l 187 956 l 187 0 l 141 0 l 141 1028 l 193 1028 l 867 72 l 867 1028 m 527 1174 q 496 1185 508 1174 q 484 1217 484 1197 q 496 1249 484 1236 q 527 1261 508 1261 q 558 1249 546 1261 q 570 1217 570 1236 q 558 1185 570 1197 q 527 1174 546 1174 z "},"Ṇ":{"ha":1053,"x_min":141,"x_max":913,"o":"m 867 1028 l 913 1028 l 913 0 l 860 0 l 187 956 l 187 0 l 141 0 l 141 1028 l 193 1028 l 867 72 l 867 1028 m 527 -215 q 496 -203 508 -215 q 484 -172 484 -192 q 496 -140 484 -153 q 527 -128 508 -128 q 558 -140 546 -128 q 570 -172 570 -153 q 558 -203 570 -192 q 527 -215 546 -215 z "},"Ŋ":{"ha":1053,"x_min":141,"x_max":913,"o":"m 913 1028 l 913 119 q 876 -114 913 -11 q 759 -319 840 -216 l 725 -295 q 813 -151 781 -224 q 858 2 846 -79 l 187 955 l 187 0 l 141 0 l 141 1028 l 193 1028 l 866 74 q 867 115 867 88 l 867 1028 l 913 1028 z "},"ǋ":{"ha":1355,"x_min":141,"x_max":1247,"o":"m 867 1028 l 913 1028 l 913 0 l 860 0 l 187 956 l 187 0 l 141 0 l 141 1028 l 193 1028 l 867 72 l 867 1028 m 1040 -295 q 1147 -103 1114 -201 q 1181 115 1181 -6 l 1181 750 l 1228 750 l 1228 119 q 1191 -114 1228 -12 q 1074 -319 1155 -217 l 1040 -295 m 1204 951 q 1173 963 1185 951 q 1161 994 1161 974 q 1173 1026 1161 1013 q 1204 1038 1185 1038 q 1235 1026 1223 1038 q 1247 994 1247 1013 q 1235 963 1247 974 q 1204 951 1223 951 z "},"Ṉ":{"ha":1053,"x_min":141,"x_max":913,"o":"m 867 1028 l 913 1028 l 913 0 l 860 0 l 187 956 l 187 0 l 141 0 l 141 1028 l 193 1028 l 867 72 l 867 1028 m 329 -194 l 329 -153 l 725 -153 l 725 -194 l 329 -194 z "},"Ñ":{"ha":1053,"x_min":141,"x_max":913,"o":"m 867 1028 l 913 1028 l 913 0 l 860 0 l 187 956 l 187 0 l 141 0 l 141 1028 l 193 1028 l 867 72 l 867 1028 m 633 1179 q 579 1186 604 1179 q 517 1207 554 1193 q 464 1225 484 1219 q 422 1231 443 1231 q 358 1219 385 1231 q 307 1182 331 1208 l 307 1229 q 422 1271 347 1271 q 475 1264 450 1271 q 538 1243 500 1257 q 591 1225 570 1231 q 633 1219 611 1219 q 696 1231 669 1219 q 748 1268 724 1242 l 748 1221 q 633 1179 708 1179 z "},"O":{"ha":1021,"x_min":89,"x_max":932,"o":"m 510 -12 q 201 116 313 -12 q 89 514 89 244 q 142 813 89 696 q 289 985 194 931 q 510 1040 383 1040 q 820 912 708 1040 q 932 514 932 784 q 879 215 932 333 q 732 43 826 98 q 510 -12 638 -12 m 510 35 q 784 148 686 35 q 882 511 882 261 q 510 994 882 994 q 237 880 335 994 q 139 517 139 767 q 510 35 139 35 z "},"Ó":{"ha":1021,"x_min":89,"x_max":932,"o":"m 510 -12 q 201 116 313 -12 q 89 514 89 244 q 142 813 89 696 q 289 985 194 931 q 510 1040 383 1040 q 820 912 708 1040 q 932 514 932 784 q 879 215 932 333 q 732 43 826 98 q 510 -12 638 -12 m 510 35 q 784 148 686 35 q 882 511 882 261 q 510 994 882 994 q 237 880 335 994 q 139 517 139 767 q 510 35 139 35 m 487 1122 l 625 1311 l 682 1311 l 534 1122 l 487 1122 z "},"Ŏ":{"ha":1021,"x_min":89,"x_max":932,"o":"m 510 -12 q 201 116 313 -12 q 89 514 89 244 q 142 813 89 696 q 289 985 194 931 q 510 1040 383 1040 q 820 912 708 1040 q 932 514 932 784 q 879 215 932 333 q 732 43 826 98 q 510 -12 638 -12 m 510 35 q 784 148 686 35 q 882 511 882 261 q 510 994 882 994 q 237 880 335 994 q 139 517 139 767 q 510 35 139 35 m 512 1131 q 361 1174 414 1131 q 301 1292 308 1218 l 342 1292 q 390 1202 351 1233 q 512 1172 429 1172 q 633 1202 595 1172 q 679 1292 672 1233 l 720 1292 q 661 1174 713 1217 q 512 1131 610 1131 z "},"Ô":{"ha":1021,"x_min":89,"x_max":932,"o":"m 510 -12 q 201 116 313 -12 q 89 514 89 244 q 142 813 89 696 q 289 985 194 931 q 510 1040 383 1040 q 820 912 708 1040 q 932 514 932 784 q 879 215 932 333 q 732 43 826 98 q 510 -12 638 -12 m 510 35 q 784 148 686 35 q 882 511 882 261 q 510 994 882 994 q 237 880 335 994 q 139 517 139 767 q 510 35 139 35 m 719 1122 l 659 1122 l 511 1280 l 363 1122 l 302 1122 l 484 1311 l 537 1311 l 719 1122 z "},"Ố":{"ha":1021,"x_min":89,"x_max":932,"o":"m 510 -12 q 201 116 313 -12 q 89 514 89 244 q 142 813 89 696 q 289 985 194 931 q 510 1040 383 1040 q 820 912 708 1040 q 932 514 932 784 q 879 215 932 333 q 732 43 826 98 q 510 -12 638 -12 m 510 35 q 784 148 686 35 q 882 511 882 261 q 510 994 882 994 q 237 880 335 994 q 139 517 139 767 q 510 35 139 35 m 810 1433 l 867 1433 l 719 1244 l 672 1244 l 810 1433 m 484 1311 l 537 1311 l 719 1122 l 659 1122 l 511 1280 l 363 1122 l 302 1122 l 484 1311 z "},"Ộ":{"ha":1021,"x_min":89,"x_max":932,"o":"m 510 -12 q 201 116 313 -12 q 89 514 89 244 q 142 813 89 696 q 289 985 194 931 q 510 1040 383 1040 q 820 912 708 1040 q 932 514 932 784 q 879 215 932 333 q 732 43 826 98 q 510 -12 638 -12 m 510 35 q 784 148 686 35 q 882 511 882 261 q 510 994 882 994 q 237 880 335 994 q 139 517 139 767 q 510 35 139 35 m 510 -215 q 480 -203 492 -215 q 467 -172 467 -192 q 480 -140 467 -153 q 510 -128 492 -128 q 541 -140 529 -128 q 553 -172 553 -153 q 541 -203 553 -192 q 510 -215 529 -215 m 719 1122 l 659 1122 l 511 1280 l 363 1122 l 302 1122 l 484 1311 l 537 1311 l 719 1122 z "},"Ồ":{"ha":1021,"x_min":89,"x_max":932,"o":"m 510 -12 q 201 116 313 -12 q 89 514 89 244 q 142 813 89 696 q 289 985 194 931 q 510 1040 383 1040 q 820 912 708 1040 q 932 514 932 784 q 879 215 932 333 q 732 43 826 98 q 510 -12 638 -12 m 510 35 q 784 148 686 35 q 882 511 882 261 q 510 994 882 994 q 237 880 335 994 q 139 517 139 767 q 510 35 139 35 m 733 1244 l 685 1244 l 538 1433 l 595 1433 l 733 1244 m 484 1311 l 537 1311 l 719 1122 l 659 1122 l 511 1280 l 363 1122 l 302 1122 l 484 1311 z "},"Ổ":{"ha":1021,"x_min":89,"x_max":932,"o":"m 510 -12 q 201 116 313 -12 q 89 514 89 244 q 142 813 89 696 q 289 985 194 931 q 510 1040 383 1040 q 820 912 708 1040 q 932 514 932 784 q 879 215 932 333 q 732 43 826 98 q 510 -12 638 -12 m 510 35 q 784 148 686 35 q 882 511 882 261 q 510 994 882 994 q 237 880 335 994 q 139 517 139 767 q 510 35 139 35 m 708 1433 q 804 1413 772 1433 q 835 1359 835 1392 q 819 1318 835 1332 q 772 1292 803 1305 q 732 1271 745 1281 q 717 1244 719 1262 l 672 1244 q 683 1278 673 1265 q 707 1299 694 1291 q 744 1316 721 1306 q 782 1335 769 1326 q 794 1359 794 1344 q 775 1386 794 1377 q 708 1396 756 1396 q 635 1390 667 1396 q 564 1371 602 1385 l 564 1408 q 708 1433 625 1433 m 484 1311 l 537 1311 l 719 1122 l 659 1122 l 511 1280 l 363 1122 l 302 1122 l 484 1311 z "},"Ỗ":{"ha":1021,"x_min":89,"x_max":932,"o":"m 510 -12 q 201 116 313 -12 q 89 514 89 244 q 142 813 89 696 q 289 985 194 931 q 510 1040 383 1040 q 820 912 708 1040 q 932 514 932 784 q 879 215 932 333 q 732 43 826 98 q 510 -12 638 -12 m 510 35 q 784 148 686 35 q 882 511 882 261 q 510 994 882 994 q 237 880 335 994 q 139 517 139 767 q 510 35 139 35 m 609 1383 q 668 1395 642 1383 q 719 1432 695 1407 l 719 1385 q 609 1343 680 1343 q 558 1350 583 1343 q 499 1372 533 1358 q 449 1390 467 1384 q 413 1395 431 1395 q 352 1383 379 1395 q 302 1347 326 1372 l 302 1393 q 413 1435 341 1435 q 464 1428 439 1435 q 522 1407 488 1421 q 572 1389 553 1394 q 609 1383 590 1383 m 484 1311 l 537 1311 l 719 1122 l 659 1122 l 511 1280 l 363 1122 l 302 1122 l 484 1311 z "},"Ȍ":{"ha":1021,"x_min":89,"x_max":932,"o":"m 510 -12 q 201 116 313 -12 q 89 514 89 244 q 142 813 89 696 q 289 985 194 931 q 510 1040 383 1040 q 820 912 708 1040 q 932 514 932 784 q 879 215 932 333 q 732 43 826 98 q 510 -12 638 -12 m 510 35 q 784 148 686 35 q 882 511 882 261 q 510 994 882 994 q 237 880 335 994 q 139 517 139 767 q 510 35 139 35 m 378 1122 l 276 1311 l 325 1311 l 424 1122 l 378 1122 m 598 1122 l 496 1311 l 544 1311 l 642 1122 l 598 1122 z "},"Ö":{"ha":1021,"x_min":89,"x_max":932,"o":"m 510 -12 q 201 116 313 -12 q 89 514 89 244 q 142 813 89 696 q 289 985 194 931 q 510 1040 383 1040 q 820 912 708 1040 q 932 514 932 784 q 879 215 932 333 q 732 43 826 98 q 510 -12 638 -12 m 510 35 q 784 148 686 35 q 882 511 882 261 q 510 994 882 994 q 237 880 335 994 q 139 517 139 767 q 510 35 139 35 m 344 1174 q 313 1185 325 1174 q 301 1217 301 1197 q 313 1249 301 1236 q 344 1261 325 1261 q 375 1249 363 1261 q 387 1217 387 1236 q 375 1185 387 1197 q 344 1174 363 1174 m 677 1174 q 646 1185 658 1174 q 634 1217 634 1197 q 646 1249 634 1236 q 677 1261 658 1261 q 708 1249 696 1261 q 720 1217 720 1236 q 708 1185 720 1197 q 677 1174 696 1174 z "},"Ȫ":{"ha":1021,"x_min":89,"x_max":932,"o":"m 510 -12 q 201 116 313 -12 q 89 514 89 244 q 142 813 89 696 q 289 985 194 931 q 510 1040 383 1040 q 820 912 708 1040 q 932 514 932 784 q 879 215 932 333 q 732 43 826 98 q 510 -12 638 -12 m 510 35 q 784 148 686 35 q 882 511 882 261 q 510 994 882 994 q 237 880 335 994 q 139 517 139 767 q 510 35 139 35 m 344 1174 q 313 1185 325 1174 q 301 1217 301 1197 q 313 1249 301 1236 q 344 1261 325 1261 q 375 1249 363 1261 q 387 1217 387 1236 q 375 1185 387 1197 q 344 1174 363 1174 m 677 1174 q 646 1185 658 1174 q 634 1217 634 1197 q 646 1249 634 1236 q 677 1261 658 1261 q 708 1249 696 1261 q 720 1217 720 1236 q 708 1185 720 1197 q 677 1174 696 1174 m 313 1355 l 313 1396 l 708 1396 l 708 1355 l 313 1355 z "},"Ȱ":{"ha":1021,"x_min":89,"x_max":932,"o":"m 510 -12 q 201 116 313 -12 q 89 514 89 244 q 142 813 89 696 q 289 985 194 931 q 510 1040 383 1040 q 820 912 708 1040 q 932 514 932 784 q 879 215 932 333 q 732 43 826 98 q 510 -12 638 -12 m 510 35 q 784 148 686 35 q 882 511 882 261 q 510 994 882 994 q 237 880 335 994 q 139 517 139 767 q 510 35 139 35 m 510 1174 q 480 1185 492 1174 q 467 1217 467 1197 q 480 1249 467 1236 q 510 1261 492 1261 q 541 1249 529 1261 q 553 1217 553 1236 q 541 1185 553 1197 q 510 1174 529 1174 m 313 1355 l 313 1396 l 708 1396 l 708 1355 l 313 1355 z "},"Ọ":{"ha":1021,"x_min":89,"x_max":932,"o":"m 510 -12 q 201 116 313 -12 q 89 514 89 244 q 142 813 89 696 q 289 985 194 931 q 510 1040 383 1040 q 820 912 708 1040 q 932 514 932 784 q 879 215 932 333 q 732 43 826 98 q 510 -12 638 -12 m 510 35 q 784 148 686 35 q 882 511 882 261 q 510 994 882 994 q 237 880 335 994 q 139 517 139 767 q 510 35 139 35 m 510 -215 q 480 -203 492 -215 q 467 -172 467 -192 q 480 -140 467 -153 q 510 -128 492 -128 q 541 -140 529 -128 q 553 -172 553 -153 q 541 -203 553 -192 q 510 -215 529 -215 z "},"Ò":{"ha":1021,"x_min":89,"x_max":932,"o":"m 510 -12 q 201 116 313 -12 q 89 514 89 244 q 142 813 89 696 q 289 985 194 931 q 510 1040 383 1040 q 820 912 708 1040 q 932 514 932 784 q 879 215 932 333 q 732 43 826 98 q 510 -12 638 -12 m 510 35 q 784 148 686 35 q 882 511 882 261 q 510 994 882 994 q 237 880 335 994 q 139 517 139 767 q 510 35 139 35 m 487 1122 l 339 1311 l 397 1311 l 534 1122 l 487 1122 z "},"Ỏ":{"ha":1021,"x_min":89,"x_max":932,"o":"m 510 -12 q 201 116 313 -12 q 89 514 89 244 q 142 813 89 696 q 289 985 194 931 q 510 1040 383 1040 q 820 912 708 1040 q 932 514 932 784 q 879 215 932 333 q 732 43 826 98 q 510 -12 638 -12 m 510 35 q 784 148 686 35 q 882 511 882 261 q 510 994 882 994 q 237 880 335 994 q 139 517 139 767 q 510 35 139 35 m 488 1122 q 499 1156 488 1142 q 523 1176 509 1169 q 559 1194 536 1184 q 597 1213 585 1203 q 610 1237 610 1222 q 591 1264 610 1255 q 523 1274 572 1274 q 450 1268 483 1274 q 379 1249 417 1263 l 379 1286 q 523 1311 440 1311 q 619 1291 588 1311 q 651 1237 651 1270 q 634 1196 651 1210 q 587 1169 618 1183 q 548 1149 560 1158 q 533 1122 535 1140 l 488 1122 z "},"Ơ":{"ha":1021,"x_min":89,"x_max":932,"o":"m 749 976 q 884 803 837 918 q 932 514 932 689 q 820 114 932 241 q 510 -12 708 -12 q 201 116 314 -12 q 89 514 89 244 q 142 813 89 696 q 289 985 194 931 q 510 1040 383 1040 q 563 1038 536 1040 q 616 1032 590 1035 q 677 1026 644 1028 q 741 1023 709 1023 q 848 1051 810 1023 q 886 1135 886 1079 q 882 1184 886 1162 q 869 1233 878 1206 l 915 1233 q 928 1186 924 1208 q 932 1133 932 1163 q 884 1022 932 1063 q 749 976 837 980 m 510 35 q 784 148 686 35 q 882 511 882 261 q 510 994 882 994 q 237 880 335 994 q 139 517 139 767 q 510 35 139 35 z "},"Ớ":{"ha":1021,"x_min":89,"x_max":932,"o":"m 749 976 q 884 803 837 918 q 932 514 932 689 q 820 114 932 241 q 510 -12 708 -12 q 201 116 314 -12 q 89 514 89 244 q 142 813 89 696 q 289 985 194 931 q 510 1040 383 1040 q 563 1038 536 1040 q 616 1032 590 1035 q 677 1026 644 1028 q 741 1023 709 1023 q 848 1051 810 1023 q 886 1135 886 1079 q 882 1184 886 1162 q 869 1233 878 1206 l 915 1233 q 928 1186 924 1208 q 932 1133 932 1163 q 884 1022 932 1063 q 749 976 837 980 m 510 35 q 784 148 686 35 q 882 511 882 261 q 510 994 882 994 q 237 880 335 994 q 139 517 139 767 q 510 35 139 35 m 487 1122 l 625 1311 l 682 1311 l 534 1122 l 487 1122 z "},"Ợ":{"ha":1021,"x_min":89,"x_max":932,"o":"m 749 976 q 884 803 837 918 q 932 514 932 689 q 820 114 932 241 q 510 -12 708 -12 q 201 116 314 -12 q 89 514 89 244 q 142 813 89 696 q 289 985 194 931 q 510 1040 383 1040 q 563 1038 536 1040 q 616 1032 590 1035 q 677 1026 644 1028 q 741 1023 709 1023 q 848 1051 810 1023 q 886 1135 886 1079 q 882 1184 886 1162 q 869 1233 878 1206 l 915 1233 q 928 1186 924 1208 q 932 1133 932 1163 q 884 1022 932 1063 q 749 976 837 980 m 510 35 q 784 148 686 35 q 882 511 882 261 q 510 994 882 994 q 237 880 335 994 q 139 517 139 767 q 510 35 139 35 m 510 -215 q 480 -203 492 -215 q 467 -172 467 -192 q 480 -140 467 -153 q 510 -128 492 -128 q 541 -140 529 -128 q 553 -172 553 -153 q 541 -203 553 -192 q 510 -215 529 -215 z "},"Ờ":{"ha":1021,"x_min":89,"x_max":932,"o":"m 749 976 q 884 803 837 918 q 932 514 932 689 q 820 114 932 241 q 510 -12 708 -12 q 201 116 314 -12 q 89 514 89 244 q 142 813 89 696 q 289 985 194 931 q 510 1040 383 1040 q 563 1038 536 1040 q 616 1032 590 1035 q 677 1026 644 1028 q 741 1023 709 1023 q 848 1051 810 1023 q 886 1135 886 1079 q 882 1184 886 1162 q 869 1233 878 1206 l 915 1233 q 928 1186 924 1208 q 932 1133 932 1163 q 884 1022 932 1063 q 749 976 837 980 m 510 35 q 784 148 686 35 q 882 511 882 261 q 510 994 882 994 q 237 880 335 994 q 139 517 139 767 q 510 35 139 35 m 487 1122 l 339 1311 l 397 1311 l 534 1122 l 487 1122 z "},"Ở":{"ha":1021,"x_min":89,"x_max":932,"o":"m 749 976 q 884 803 837 918 q 932 514 932 689 q 820 114 932 241 q 510 -12 708 -12 q 201 116 314 -12 q 89 514 89 244 q 142 813 89 696 q 289 985 194 931 q 510 1040 383 1040 q 563 1038 536 1040 q 616 1032 590 1035 q 677 1026 644 1028 q 741 1023 709 1023 q 848 1051 810 1023 q 886 1135 886 1079 q 882 1184 886 1162 q 869 1233 878 1206 l 915 1233 q 928 1186 924 1208 q 932 1133 932 1163 q 884 1022 932 1063 q 749 976 837 980 m 510 35 q 784 148 686 35 q 882 511 882 261 q 510 994 882 994 q 237 880 335 994 q 139 517 139 767 q 510 35 139 35 m 488 1122 q 499 1156 488 1142 q 523 1176 509 1169 q 559 1194 536 1184 q 597 1213 585 1203 q 610 1237 610 1222 q 591 1264 610 1255 q 523 1274 572 1274 q 450 1268 483 1274 q 379 1249 417 1263 l 379 1286 q 523 1311 440 1311 q 619 1291 588 1311 q 651 1237 651 1270 q 634 1196 651 1210 q 587 1169 618 1183 q 548 1149 560 1158 q 533 1122 535 1140 l 488 1122 z "},"Ỡ":{"ha":1021,"x_min":89,"x_max":932,"o":"m 405 1231 q 341 1219 369 1231 q 290 1182 314 1208 l 290 1229 q 405 1271 330 1271 q 458 1264 433 1271 q 521 1243 483 1257 q 574 1225 553 1231 q 616 1219 594 1219 q 680 1231 652 1219 q 731 1268 707 1242 l 731 1221 q 616 1179 691 1179 q 563 1186 588 1179 q 500 1207 538 1193 q 447 1225 467 1219 q 405 1231 426 1231 m 749 976 q 884 803 837 918 q 932 514 932 689 q 820 114 932 241 q 510 -12 708 -12 q 201 116 314 -12 q 89 514 89 244 q 142 813 89 696 q 289 985 194 931 q 510 1040 383 1040 q 563 1038 536 1040 q 616 1032 590 1035 q 677 1026 644 1028 q 741 1023 709 1023 q 848 1051 810 1023 q 886 1135 886 1079 q 882 1184 886 1162 q 869 1233 878 1206 l 915 1233 q 928 1186 924 1208 q 932 1133 932 1163 q 884 1022 932 1063 q 749 976 837 980 m 510 35 q 784 148 686 35 q 882 511 882 261 q 510 994 882 994 q 237 880 335 994 q 139 517 139 767 q 510 35 139 35 z "},"Ő":{"ha":1021,"x_min":89,"x_max":932,"o":"m 510 -12 q 201 116 313 -12 q 89 514 89 244 q 142 813 89 696 q 289 985 194 931 q 510 1040 383 1040 q 820 912 708 1040 q 932 514 932 784 q 879 215 932 333 q 732 43 826 98 q 510 -12 638 -12 m 510 35 q 784 148 686 35 q 882 511 882 261 q 510 994 882 994 q 237 880 335 994 q 139 517 139 767 q 510 35 139 35 m 378 1122 l 477 1311 l 526 1311 l 424 1122 l 378 1122 m 598 1122 l 696 1311 l 744 1311 l 642 1122 l 598 1122 z "},"Ȏ":{"ha":1021,"x_min":89,"x_max":932,"o":"m 510 -12 q 201 116 313 -12 q 89 514 89 244 q 142 813 89 696 q 289 985 194 931 q 510 1040 383 1040 q 820 912 708 1040 q 932 514 932 784 q 879 215 932 333 q 732 43 826 98 q 510 -12 638 -12 m 510 35 q 784 148 686 35 q 882 511 882 261 q 510 994 882 994 q 237 880 335 994 q 139 517 139 767 q 510 35 139 35 m 301 1142 q 359 1260 308 1217 q 509 1303 411 1303 q 660 1259 607 1303 q 720 1142 713 1215 l 679 1142 q 632 1232 671 1201 q 509 1262 592 1262 q 388 1232 426 1262 q 342 1142 350 1201 l 301 1142 z "},"Ō":{"ha":1021,"x_min":89,"x_max":932,"o":"m 510 -12 q 201 116 313 -12 q 89 514 89 244 q 142 813 89 696 q 289 985 194 931 q 510 1040 383 1040 q 820 912 708 1040 q 932 514 932 784 q 879 215 932 333 q 732 43 826 98 q 510 -12 638 -12 m 510 35 q 784 148 686 35 q 882 511 882 261 q 510 994 882 994 q 237 880 335 994 q 139 517 139 767 q 510 35 139 35 m 313 1197 l 313 1238 l 708 1238 l 708 1197 l 313 1197 z "},"Ṓ":{"ha":1021,"x_min":89,"x_max":932,"o":"m 510 -12 q 201 116 313 -12 q 89 514 89 244 q 142 813 89 696 q 289 985 194 931 q 510 1040 383 1040 q 820 912 708 1040 q 932 514 932 784 q 879 215 932 333 q 732 43 826 98 q 510 -12 638 -12 m 510 35 q 784 148 686 35 q 882 511 882 261 q 510 994 882 994 q 237 880 335 994 q 139 517 139 767 q 510 35 139 35 m 487 1308 l 624 1469 l 682 1469 l 535 1308 l 487 1308 m 313 1197 l 313 1238 l 708 1238 l 708 1197 l 313 1197 z "},"Ṑ":{"ha":1021,"x_min":89,"x_max":932,"o":"m 510 -12 q 201 116 313 -12 q 89 514 89 244 q 142 813 89 696 q 289 985 194 931 q 510 1040 383 1040 q 820 912 708 1040 q 932 514 932 784 q 879 215 932 333 q 732 43 826 98 q 510 -12 638 -12 m 510 35 q 784 148 686 35 q 882 511 882 261 q 510 994 882 994 q 237 880 335 994 q 139 517 139 767 q 510 35 139 35 m 487 1308 l 339 1469 l 397 1469 l 534 1308 l 487 1308 m 313 1197 l 313 1238 l 708 1238 l 708 1197 l 313 1197 z "},"Ǫ":{"ha":1021,"x_min":89,"x_max":932,"o":"m 671 13 q 527 -66 568 -24 q 487 -158 487 -108 q 514 -220 487 -199 q 594 -242 542 -242 q 651 -235 623 -242 q 720 -213 680 -228 l 720 -251 q 597 -278 659 -278 q 486 -247 525 -278 q 447 -160 447 -216 q 468 -80 447 -117 q 541 -12 490 -44 l 515 -12 q 202 116 315 -12 q 89 514 89 244 q 142 813 89 696 q 289 985 194 931 q 510 1040 383 1040 q 819 914 707 1040 q 932 514 932 787 q 862 178 932 299 q 671 13 792 56 m 510 35 q 784 148 686 35 q 882 511 882 261 q 510 994 882 994 q 237 880 335 994 q 139 517 139 767 q 510 35 139 35 z "},"Ø":{"ha":1021,"x_min":89,"x_max":932,"o":"m 835 893 q 932 514 932 759 q 879 215 932 333 q 732 43 826 98 q 510 -12 638 -12 q 215 101 322 -12 l 127 -11 l 93 15 l 187 135 q 89 514 89 267 q 142 813 89 696 q 289 985 194 931 q 510 1040 383 1040 q 806 927 699 1040 l 894 1039 l 928 1013 l 835 893 m 139 517 q 218 175 139 294 l 776 888 q 510 994 683 994 q 237 880 335 994 q 139 517 139 767 m 510 35 q 784 148 686 35 q 882 511 882 261 q 803 853 882 733 l 245 140 q 510 35 338 35 z "},"Ǿ":{"ha":1021,"x_min":89,"x_max":932,"o":"m 835 893 q 932 514 932 759 q 879 215 932 333 q 732 43 826 98 q 510 -12 638 -12 q 215 101 322 -12 l 127 -11 l 93 15 l 187 135 q 89 514 89 267 q 142 813 89 696 q 289 985 194 931 q 510 1040 383 1040 q 806 927 699 1040 l 894 1039 l 928 1013 l 835 893 m 139 517 q 218 175 139 294 l 776 888 q 510 994 683 994 q 237 880 335 994 q 139 517 139 767 m 510 35 q 784 148 686 35 q 882 511 882 261 q 803 853 882 733 l 245 140 q 510 35 338 35 m 482 1122 l 620 1311 l 677 1311 l 529 1122 l 482 1122 z "},"Õ":{"ha":1021,"x_min":89,"x_max":932,"o":"m 510 -12 q 201 116 313 -12 q 89 514 89 244 q 142 813 89 696 q 289 985 194 931 q 510 1040 383 1040 q 820 912 708 1040 q 932 514 932 784 q 879 215 932 333 q 732 43 826 98 q 510 -12 638 -12 m 510 35 q 784 148 686 35 q 882 511 882 261 q 510 994 882 994 q 237 880 335 994 q 139 517 139 767 q 510 35 139 35 m 616 1179 q 563 1186 588 1179 q 500 1207 538 1193 q 447 1225 467 1219 q 405 1231 426 1231 q 341 1219 369 1231 q 290 1182 314 1208 l 290 1229 q 405 1271 330 1271 q 458 1264 433 1271 q 521 1243 483 1257 q 574 1225 553 1231 q 616 1219 594 1219 q 680 1231 652 1219 q 731 1268 707 1242 l 731 1221 q 616 1179 691 1179 z "},"Ṍ":{"ha":1021,"x_min":89,"x_max":932,"o":"m 510 -12 q 201 116 313 -12 q 89 514 89 244 q 142 813 89 696 q 289 985 194 931 q 510 1040 383 1040 q 820 912 708 1040 q 932 514 932 784 q 879 215 932 333 q 732 43 826 98 q 510 -12 638 -12 m 510 35 q 784 148 686 35 q 882 511 882 261 q 510 994 882 994 q 237 880 335 994 q 139 517 139 767 q 510 35 139 35 m 487 1308 l 624 1469 l 682 1469 l 535 1308 l 487 1308 m 616 1179 q 563 1186 588 1179 q 500 1207 538 1193 q 447 1225 467 1219 q 405 1231 426 1231 q 341 1219 369 1231 q 290 1182 314 1208 l 290 1229 q 405 1271 330 1271 q 458 1264 433 1271 q 521 1243 483 1257 q 574 1225 553 1231 q 616 1219 594 1219 q 680 1231 652 1219 q 731 1268 707 1242 l 731 1221 q 616 1179 691 1179 z "},"Ṏ":{"ha":1021,"x_min":89,"x_max":932,"o":"m 510 -12 q 201 116 313 -12 q 89 514 89 244 q 142 813 89 696 q 289 985 194 931 q 510 1040 383 1040 q 820 912 708 1040 q 932 514 932 784 q 879 215 932 333 q 732 43 826 98 q 510 -12 638 -12 m 510 35 q 784 148 686 35 q 882 511 882 261 q 510 994 882 994 q 237 880 335 994 q 139 517 139 767 q 510 35 139 35 m 616 1179 q 563 1186 588 1179 q 500 1207 538 1193 q 447 1225 467 1219 q 405 1231 426 1231 q 341 1219 369 1231 q 290 1182 314 1208 l 290 1229 q 405 1271 330 1271 q 458 1264 433 1271 q 521 1243 483 1257 q 574 1225 553 1231 q 616 1219 594 1219 q 680 1231 652 1219 q 731 1268 707 1242 l 731 1221 q 616 1179 691 1179 m 344 1332 q 313 1344 325 1332 q 301 1375 301 1356 q 313 1407 301 1394 q 344 1419 325 1419 q 375 1407 363 1419 q 387 1375 387 1394 q 375 1344 387 1356 q 344 1332 363 1332 m 677 1332 q 646 1344 658 1332 q 634 1375 634 1356 q 646 1407 634 1394 q 677 1419 658 1419 q 708 1407 696 1419 q 720 1375 720 1394 q 708 1344 720 1356 q 677 1332 696 1332 z "},"Ȭ":{"ha":1021,"x_min":89,"x_max":932,"o":"m 510 -12 q 201 116 313 -12 q 89 514 89 244 q 142 813 89 696 q 289 985 194 931 q 510 1040 383 1040 q 820 912 708 1040 q 932 514 932 784 q 879 215 932 333 q 732 43 826 98 q 510 -12 638 -12 m 510 35 q 784 148 686 35 q 882 511 882 261 q 510 994 882 994 q 237 880 335 994 q 139 517 139 767 q 510 35 139 35 m 616 1179 q 563 1186 588 1179 q 500 1207 538 1193 q 447 1225 467 1219 q 405 1231 426 1231 q 341 1219 369 1231 q 290 1182 314 1208 l 290 1229 q 405 1271 330 1271 q 458 1264 433 1271 q 521 1243 483 1257 q 574 1225 553 1231 q 616 1219 594 1219 q 680 1231 652 1219 q 731 1268 707 1242 l 731 1221 q 616 1179 691 1179 m 313 1355 l 313 1396 l 708 1396 l 708 1355 l 313 1355 z "},"Œ":{"ha":1451,"x_min":89,"x_max":1390,"o":"m 1390 46 l 1390 0 l 834 0 q 731 -3 794 0 q 599 -7 621 -7 q 218 122 347 -7 q 89 514 89 251 q 216 906 89 775 q 590 1038 344 1038 q 663 1035 623 1038 q 714 1033 702 1033 q 823 1028 782 1028 l 1383 1028 l 1383 982 l 832 982 l 832 551 l 1315 551 l 1315 506 l 832 506 l 832 46 l 1390 46 m 785 981 q 594 992 691 992 q 253 875 367 992 q 139 514 139 758 q 254 155 139 270 q 598 39 369 39 q 785 47 718 39 l 785 981 z "},"P":{"ha":867,"x_min":141,"x_max":797,"o":"m 141 1013 q 269 1032 209 1026 q 396 1038 329 1038 q 695 955 594 1038 q 797 701 797 873 q 691 446 797 533 q 360 360 585 360 q 188 369 278 360 l 188 0 l 141 0 l 141 1013 m 362 406 q 583 438 498 406 q 707 535 668 471 q 747 699 747 600 q 660 921 747 850 q 396 992 573 992 q 188 974 286 992 l 188 417 q 362 406 269 406 z "},"Þ":{"ha":874,"x_min":141,"x_max":797,"o":"m 141 1029 l 188 1029 l 188 849 q 396 867 286 867 q 695 784 594 867 q 797 530 797 702 q 691 275 797 362 q 360 189 585 189 q 188 198 278 189 l 188 0 l 141 0 l 141 1029 m 362 235 q 583 267 498 235 q 707 365 668 300 q 747 528 747 429 q 660 750 747 679 q 396 821 573 821 q 188 803 286 821 l 188 246 q 362 235 269 235 z "},"Q":{"ha":1021,"x_min":89,"x_max":932,"o":"m 932 514 q 827 123 932 256 q 521 -10 722 -10 l 498 -9 q 689 -53 580 -36 q 912 -79 797 -71 l 906 -125 q 412 -26 588 -96 q 163 172 236 44 q 89 514 89 299 q 142 813 89 696 q 289 985 194 931 q 510 1040 383 1040 q 819 914 707 1040 q 932 514 932 787 m 139 517 q 510 35 139 35 q 784 148 686 35 q 882 511 882 261 q 510 994 882 994 q 237 880 335 994 q 139 517 139 767 z "},"R":{"ha":929,"x_min":141,"x_max":872,"o":"m 813 0 l 444 454 q 371 452 409 452 q 281 454 321 452 q 188 460 242 456 l 188 0 l 141 0 l 141 1013 q 267 1031 206 1024 q 406 1038 328 1038 q 628 1007 541 1038 q 757 913 715 977 q 799 748 799 849 q 725 551 800 623 q 497 460 650 479 l 872 0 l 813 0 m 188 506 q 282 499 247 501 q 371 497 317 497 q 590 525 506 497 q 713 607 674 552 q 752 746 752 662 q 716 890 752 836 q 605 968 681 944 q 403 992 528 992 q 290 987 338 992 q 188 973 242 983 l 188 506 z "},"Ŕ":{"ha":929,"x_min":141,"x_max":872,"o":"m 813 0 l 444 454 q 371 452 409 452 q 281 454 321 452 q 188 460 242 456 l 188 0 l 141 0 l 141 1013 q 267 1031 206 1024 q 406 1038 328 1038 q 628 1007 541 1038 q 757 913 715 977 q 799 748 799 849 q 725 551 800 623 q 497 460 650 479 l 872 0 l 813 0 m 188 506 q 282 499 247 501 q 371 497 317 497 q 590 525 506 497 q 713 607 674 552 q 752 746 752 662 q 716 890 752 836 q 605 968 681 944 q 403 992 528 992 q 290 987 338 992 q 188 973 242 983 l 188 506 m 421 1122 l 559 1311 l 616 1311 l 468 1122 l 421 1122 z "},"Ř":{"ha":929,"x_min":141,"x_max":872,"o":"m 813 0 l 444 454 q 371 452 409 452 q 281 454 321 452 q 188 460 242 456 l 188 0 l 141 0 l 141 1013 q 267 1031 206 1024 q 406 1038 328 1038 q 628 1007 541 1038 q 757 913 715 977 q 799 748 799 849 q 725 551 800 623 q 497 460 650 479 l 872 0 l 813 0 m 188 506 q 282 499 247 501 q 371 497 317 497 q 590 525 506 497 q 713 607 674 552 q 752 746 752 662 q 716 890 752 836 q 605 968 681 944 q 403 992 528 992 q 290 987 338 992 q 188 973 242 983 l 188 506 m 593 1311 l 653 1311 l 471 1122 l 418 1122 l 236 1311 l 297 1311 l 445 1153 l 593 1311 z "},"Ŗ":{"ha":929,"x_min":141,"x_max":872,"o":"m 813 0 l 444 454 q 371 452 409 452 q 281 454 321 452 q 188 460 242 456 l 188 0 l 141 0 l 141 1013 q 267 1031 206 1024 q 406 1038 328 1038 q 628 1007 541 1038 q 757 913 715 977 q 799 748 799 849 q 725 551 800 623 q 497 460 650 479 l 872 0 l 813 0 m 188 506 q 282 499 247 501 q 371 497 317 497 q 590 525 506 497 q 713 607 674 552 q 752 746 752 662 q 716 890 752 836 q 605 968 681 944 q 403 992 528 992 q 290 987 338 992 q 188 973 242 983 l 188 506 m 478 -128 q 511 -143 499 -128 q 524 -187 524 -158 q 516 -247 524 -214 q 493 -311 508 -281 l 463 -311 q 485 -215 482 -262 l 481 -215 q 450 -203 462 -215 q 438 -171 438 -190 q 449 -140 438 -152 q 478 -128 460 -128 z "},"Ȑ":{"ha":929,"x_min":141,"x_max":872,"o":"m 813 0 l 444 454 q 371 452 409 452 q 281 454 321 452 q 188 460 242 456 l 188 0 l 141 0 l 141 1013 q 267 1031 206 1024 q 406 1038 328 1038 q 628 1007 541 1038 q 757 913 715 977 q 799 748 799 849 q 725 551 800 623 q 497 460 650 479 l 872 0 l 813 0 m 188 506 q 282 499 247 501 q 371 497 317 497 q 590 525 506 497 q 713 607 674 552 q 752 746 752 662 q 716 890 752 836 q 605 968 681 944 q 403 992 528 992 q 290 987 338 992 q 188 973 242 983 l 188 506 m 313 1122 l 210 1311 l 259 1311 l 358 1122 l 313 1122 m 532 1122 l 430 1311 l 478 1311 l 576 1122 l 532 1122 z "},"Ṛ":{"ha":929,"x_min":141,"x_max":872,"o":"m 813 0 l 444 454 q 371 452 409 452 q 281 454 321 452 q 188 460 242 456 l 188 0 l 141 0 l 141 1013 q 267 1031 206 1024 q 406 1038 328 1038 q 628 1007 541 1038 q 757 913 715 977 q 799 748 799 849 q 725 551 800 623 q 497 460 650 479 l 872 0 l 813 0 m 188 506 q 282 499 247 501 q 371 497 317 497 q 590 525 506 497 q 713 607 674 552 q 752 746 752 662 q 716 890 752 836 q 605 968 681 944 q 403 992 528 992 q 290 987 338 992 q 188 973 242 983 l 188 506 m 481 -215 q 450 -203 462 -215 q 438 -172 438 -192 q 450 -140 438 -153 q 481 -128 462 -128 q 511 -140 499 -128 q 524 -172 524 -153 q 511 -203 524 -192 q 481 -215 499 -215 z "},"Ȓ":{"ha":929,"x_min":141,"x_max":872,"o":"m 813 0 l 444 454 q 371 452 409 452 q 281 454 321 452 q 188 460 242 456 l 188 0 l 141 0 l 141 1013 q 267 1031 206 1024 q 406 1038 328 1038 q 628 1007 541 1038 q 757 913 715 977 q 799 748 799 849 q 725 551 800 623 q 497 460 650 479 l 872 0 l 813 0 m 188 506 q 282 499 247 501 q 371 497 317 497 q 590 525 506 497 q 713 607 674 552 q 752 746 752 662 q 716 890 752 836 q 605 968 681 944 q 403 992 528 992 q 290 987 338 992 q 188 973 242 983 l 188 506 m 235 1142 q 293 1260 242 1217 q 443 1303 345 1303 q 594 1259 541 1303 q 654 1142 647 1215 l 613 1142 q 566 1232 605 1201 q 443 1262 526 1262 q 322 1232 360 1262 q 276 1142 284 1201 l 235 1142 z "},"Ṟ":{"ha":929,"x_min":141,"x_max":872,"o":"m 813 0 l 444 454 q 371 452 409 452 q 281 454 321 452 q 188 460 242 456 l 188 0 l 141 0 l 141 1013 q 267 1031 206 1024 q 406 1038 328 1038 q 628 1007 541 1038 q 757 913 715 977 q 799 748 799 849 q 725 551 800 623 q 497 460 650 479 l 872 0 l 813 0 m 188 506 q 282 499 247 501 q 371 497 317 497 q 590 525 506 497 q 713 607 674 552 q 752 746 752 662 q 716 890 752 836 q 605 968 681 944 q 403 992 528 992 q 290 987 338 992 q 188 973 242 983 l 188 506 m 283 -194 l 283 -153 l 678 -153 l 678 -194 l 283 -194 z "},"S":{"ha":751,"x_min":65,"x_max":687,"o":"m 330 -12 q 203 -2 269 -12 q 77 30 137 9 l 77 77 q 332 33 208 33 q 560 92 483 33 q 637 264 637 150 q 611 370 637 328 q 531 440 585 412 q 384 488 476 467 l 338 499 q 132 595 198 530 q 65 769 65 661 q 105 914 65 853 q 221 1008 144 975 q 412 1040 299 1040 q 532 1032 472 1040 q 645 1006 592 1023 l 645 959 q 409 994 528 994 q 189 938 263 994 q 115 772 115 881 q 139 667 115 709 q 213 596 162 624 q 351 547 264 567 l 398 537 q 563 478 500 514 q 657 390 626 442 q 687 265 687 338 q 594 59 687 131 q 330 -12 501 -12 z "},"Ś":{"ha":751,"x_min":65,"x_max":687,"o":"m 330 -12 q 203 -2 269 -12 q 77 30 137 9 l 77 77 q 332 33 208 33 q 560 92 483 33 q 637 264 637 150 q 611 370 637 328 q 531 440 585 412 q 384 488 476 467 l 338 499 q 132 595 198 530 q 65 769 65 661 q 105 914 65 853 q 221 1008 144 975 q 412 1040 299 1040 q 532 1032 472 1040 q 645 1006 592 1023 l 645 959 q 409 994 528 994 q 189 938 263 994 q 115 772 115 881 q 139 667 115 709 q 213 596 162 624 q 351 547 264 567 l 398 537 q 563 478 500 514 q 657 390 626 442 q 687 265 687 338 q 594 59 687 131 q 330 -12 501 -12 m 357 1122 l 495 1311 l 552 1311 l 404 1122 l 357 1122 z "},"Ṥ":{"ha":751,"x_min":65,"x_max":687,"o":"m 330 -12 q 203 -2 269 -12 q 77 30 137 9 l 77 77 q 332 33 208 33 q 560 92 483 33 q 637 264 637 150 q 611 370 637 328 q 531 440 585 412 q 384 488 476 467 l 338 499 q 132 595 198 530 q 65 769 65 661 q 105 914 65 853 q 221 1008 144 975 q 412 1040 299 1040 q 532 1032 472 1040 q 645 1006 592 1023 l 645 959 q 409 994 528 994 q 189 938 263 994 q 115 772 115 881 q 139 667 115 709 q 213 596 162 624 q 351 547 264 567 l 398 537 q 563 478 500 514 q 657 390 626 442 q 687 265 687 338 q 594 59 687 131 q 330 -12 501 -12 m 353 1283 q 322 1295 334 1283 q 310 1326 310 1307 q 322 1358 310 1346 q 353 1371 334 1371 q 384 1358 372 1371 q 396 1326 396 1346 q 384 1295 396 1307 q 353 1283 372 1283 m 357 1122 l 495 1311 l 552 1311 l 404 1122 l 357 1122 z "},"Š":{"ha":751,"x_min":65,"x_max":687,"o":"m 330 -12 q 203 -2 269 -12 q 77 30 137 9 l 77 77 q 332 33 208 33 q 560 92 483 33 q 637 264 637 150 q 611 370 637 328 q 531 440 585 412 q 384 488 476 467 l 338 499 q 132 595 198 530 q 65 769 65 661 q 105 914 65 853 q 221 1008 144 975 q 412 1040 299 1040 q 532 1032 472 1040 q 645 1006 592 1023 l 645 959 q 409 994 528 994 q 189 938 263 994 q 115 772 115 881 q 139 667 115 709 q 213 596 162 624 q 351 547 264 567 l 398 537 q 563 478 500 514 q 657 390 626 442 q 687 265 687 338 q 594 59 687 131 q 330 -12 501 -12 m 529 1311 l 589 1311 l 407 1122 l 354 1122 l 172 1311 l 233 1311 l 381 1153 l 529 1311 z "},"Ṧ":{"ha":751,"x_min":65,"x_max":687,"o":"m 330 -12 q 203 -2 269 -12 q 77 30 137 9 l 77 77 q 332 33 208 33 q 560 92 483 33 q 637 264 637 150 q 611 370 637 328 q 531 440 585 412 q 384 488 476 467 l 338 499 q 132 595 198 530 q 65 769 65 661 q 105 914 65 853 q 221 1008 144 975 q 412 1040 299 1040 q 532 1032 472 1040 q 645 1006 592 1023 l 645 959 q 409 994 528 994 q 189 938 263 994 q 115 772 115 881 q 139 667 115 709 q 213 596 162 624 q 351 547 264 567 l 398 537 q 563 478 500 514 q 657 390 626 442 q 687 265 687 338 q 594 59 687 131 q 330 -12 501 -12 m 381 1311 q 350 1323 362 1311 q 338 1354 338 1335 q 350 1386 338 1374 q 381 1399 362 1399 q 411 1386 399 1399 q 424 1354 424 1374 q 411 1323 424 1335 q 381 1311 399 1311 m 529 1311 l 589 1311 l 407 1122 l 354 1122 l 172 1311 l 233 1311 l 381 1153 l 529 1311 z "},"Ş":{"ha":751,"x_min":65,"x_max":687,"o":"m 687 265 q 613 75 687 146 q 400 -9 539 5 l 400 -78 q 493 -105 459 -79 q 527 -178 527 -130 q 490 -252 527 -227 q 389 -278 453 -278 q 319 -271 355 -278 q 254 -251 283 -264 l 254 -212 q 324 -235 292 -228 q 389 -242 356 -242 q 488 -178 488 -242 q 388 -114 488 -114 l 361 -114 l 361 -12 q 330 -12 351 -12 q 203 -2 269 -12 q 77 30 137 9 l 77 77 q 332 33 208 33 q 560 92 483 33 q 637 264 637 150 q 611 370 637 328 q 531 440 585 412 q 384 488 476 467 l 338 499 q 132 595 198 530 q 65 769 65 661 q 105 914 65 853 q 221 1008 144 975 q 412 1040 299 1040 q 532 1032 472 1040 q 645 1006 592 1023 l 645 959 q 409 994 528 994 q 189 938 263 994 q 115 772 115 881 q 139 667 115 709 q 213 596 162 624 q 351 547 264 567 l 398 537 q 563 478 500 514 q 657 390 626 442 q 687 265 687 338 z "},"Ŝ":{"ha":751,"x_min":65,"x_max":687,"o":"m 330 -12 q 203 -2 269 -12 q 77 30 137 9 l 77 77 q 332 33 208 33 q 560 92 483 33 q 637 264 637 150 q 611 370 637 328 q 531 440 585 412 q 384 488 476 467 l 338 499 q 132 595 198 530 q 65 769 65 661 q 105 914 65 853 q 221 1008 144 975 q 412 1040 299 1040 q 532 1032 472 1040 q 645 1006 592 1023 l 645 959 q 409 994 528 994 q 189 938 263 994 q 115 772 115 881 q 139 667 115 709 q 213 596 162 624 q 351 547 264 567 l 398 537 q 563 478 500 514 q 657 390 626 442 q 687 265 687 338 q 594 59 687 131 q 330 -12 501 -12 m 589 1122 l 529 1122 l 381 1280 l 233 1122 l 172 1122 l 354 1311 l 407 1311 l 589 1122 z "},"Ș":{"ha":751,"x_min":65,"x_max":687,"o":"m 330 -12 q 203 -2 269 -12 q 77 30 137 9 l 77 77 q 332 33 208 33 q 560 92 483 33 q 637 264 637 150 q 611 370 637 328 q 531 440 585 412 q 384 488 476 467 l 338 499 q 132 595 198 530 q 65 769 65 661 q 105 914 65 853 q 221 1008 144 975 q 412 1040 299 1040 q 532 1032 472 1040 q 645 1006 592 1023 l 645 959 q 409 994 528 994 q 189 938 263 994 q 115 772 115 881 q 139 667 115 709 q 213 596 162 624 q 351 547 264 567 l 398 537 q 563 478 500 514 q 657 390 626 442 q 687 265 687 338 q 594 59 687 131 q 330 -12 501 -12 m 378 -128 q 411 -143 399 -128 q 424 -187 424 -158 q 416 -247 424 -214 q 393 -311 408 -281 l 363 -311 q 385 -215 382 -262 l 381 -215 q 350 -203 362 -215 q 338 -171 338 -190 q 349 -140 338 -152 q 378 -128 360 -128 z "},"Ṡ":{"ha":751,"x_min":65,"x_max":687,"o":"m 330 -12 q 203 -2 269 -12 q 77 30 137 9 l 77 77 q 332 33 208 33 q 560 92 483 33 q 637 264 637 150 q 611 370 637 328 q 531 440 585 412 q 384 488 476 467 l 338 499 q 132 595 198 530 q 65 769 65 661 q 105 914 65 853 q 221 1008 144 975 q 412 1040 299 1040 q 532 1032 472 1040 q 645 1006 592 1023 l 645 959 q 409 994 528 994 q 189 938 263 994 q 115 772 115 881 q 139 667 115 709 q 213 596 162 624 q 351 547 264 567 l 398 537 q 563 478 500 514 q 657 390 626 442 q 687 265 687 338 q 594 59 687 131 q 330 -12 501 -12 m 381 1174 q 350 1185 362 1174 q 338 1217 338 1197 q 350 1249 338 1236 q 381 1261 362 1261 q 411 1249 399 1261 q 424 1217 424 1236 q 411 1185 424 1197 q 381 1174 399 1174 z "},"Ṣ":{"ha":751,"x_min":65,"x_max":687,"o":"m 330 -12 q 203 -2 269 -12 q 77 30 137 9 l 77 77 q 332 33 208 33 q 560 92 483 33 q 637 264 637 150 q 611 370 637 328 q 531 440 585 412 q 384 488 476 467 l 338 499 q 132 595 198 530 q 65 769 65 661 q 105 914 65 853 q 221 1008 144 975 q 412 1040 299 1040 q 532 1032 472 1040 q 645 1006 592 1023 l 645 959 q 409 994 528 994 q 189 938 263 994 q 115 772 115 881 q 139 667 115 709 q 213 596 162 624 q 351 547 264 567 l 398 537 q 563 478 500 514 q 657 390 626 442 q 687 265 687 338 q 594 59 687 131 q 330 -12 501 -12 m 381 -215 q 350 -203 362 -215 q 338 -172 338 -192 q 350 -140 338 -153 q 381 -128 362 -128 q 411 -140 399 -128 q 424 -172 424 -153 q 411 -203 424 -192 q 381 -215 399 -215 z "},"Ṩ":{"ha":751,"x_min":65,"x_max":687,"o":"m 330 -12 q 203 -2 269 -12 q 77 30 137 9 l 77 77 q 332 33 208 33 q 560 92 483 33 q 637 264 637 150 q 611 370 637 328 q 531 440 585 412 q 384 488 476 467 l 338 499 q 132 595 198 530 q 65 769 65 661 q 105 914 65 853 q 221 1008 144 975 q 412 1040 299 1040 q 532 1032 472 1040 q 645 1006 592 1023 l 645 959 q 409 994 528 994 q 189 938 263 994 q 115 772 115 881 q 139 667 115 709 q 213 596 162 624 q 351 547 264 567 l 398 537 q 563 478 500 514 q 657 390 626 442 q 687 265 687 338 q 594 59 687 131 q 330 -12 501 -12 m 381 -215 q 350 -203 362 -215 q 338 -172 338 -192 q 350 -140 338 -153 q 381 -128 362 -128 q 411 -140 399 -128 q 424 -172 424 -153 q 411 -203 424 -192 q 381 -215 399 -215 m 381 1174 q 350 1185 362 1174 q 338 1217 338 1197 q 350 1249 338 1236 q 381 1261 362 1261 q 411 1249 399 1261 q 424 1217 424 1236 q 411 1185 424 1197 q 381 1174 399 1174 z "},"ẞ":{"ha":1204,"x_min":141,"x_max":1140,"o":"m 851 537 q 1016 478 953 514 q 1109 390 1079 442 q 1140 265 1140 338 q 1047 59 1140 131 q 783 -12 954 -12 q 656 -2 722 -12 q 530 30 590 9 l 530 77 q 785 33 660 33 q 1013 92 936 33 q 1090 264 1090 150 q 1064 370 1090 328 q 983 440 1038 412 q 837 488 928 467 l 790 499 q 584 595 651 530 q 518 769 518 661 q 545 894 518 840 q 627 983 573 948 q 513 994 578 994 q 328 959 400 994 q 223 848 257 923 q 188 655 188 774 l 188 0 l 141 0 l 141 648 q 181 872 141 785 q 303 999 222 958 q 513 1040 385 1040 q 688 1013 619 1040 q 865 1040 763 1040 q 985 1032 925 1040 q 1098 1006 1045 1023 l 1098 959 q 862 994 981 994 q 642 938 716 994 q 568 772 568 881 q 591 667 568 709 q 666 596 615 624 q 804 547 717 567 l 851 537 z "},"Ə":{"ha":1022,"x_min":82,"x_max":933,"o":"m 417 1040 q 933 513 933 1040 q 822 114 933 241 q 514 -12 710 -12 q 196 113 310 -12 q 82 503 82 238 l 82 542 l 883 542 q 823 805 878 704 q 666 950 767 905 q 417 994 565 994 q 274 986 348 994 q 135 958 201 977 l 135 1006 q 417 1040 263 1040 m 514 35 q 782 144 685 35 q 883 496 880 253 l 132 496 q 234 143 135 252 q 514 35 333 35 z "},"T":{"ha":818,"x_min":12,"x_max":806,"o":"m 385 0 l 385 982 l 12 982 l 12 1028 l 806 1028 l 806 982 l 433 982 l 433 0 l 385 0 z "},"Ŧ":{"ha":818,"x_min":12,"x_max":806,"o":"m 806 982 l 433 982 l 433 576 l 681 576 l 681 535 l 433 535 l 433 0 l 385 0 l 385 535 l 137 535 l 137 576 l 385 576 l 385 982 l 12 982 l 12 1028 l 806 1028 l 806 982 z "},"Ť":{"ha":818,"x_min":12,"x_max":806,"o":"m 385 0 l 385 982 l 12 982 l 12 1028 l 806 1028 l 806 982 l 433 982 l 433 0 l 385 0 m 558 1311 l 617 1311 l 435 1122 l 383 1122 l 201 1311 l 261 1311 l 410 1153 l 558 1311 z "},"Ţ":{"ha":818,"x_min":12,"x_max":806,"o":"m 428 0 l 428 -78 q 522 -105 488 -79 q 556 -178 556 -130 q 519 -252 556 -227 q 417 -278 482 -278 q 347 -271 383 -278 q 283 -251 311 -264 l 283 -212 q 353 -235 321 -228 q 417 -242 385 -242 q 517 -178 517 -242 q 416 -114 517 -114 l 390 -114 l 390 0 l 385 0 l 385 982 l 12 982 l 12 1028 l 806 1028 l 806 982 l 433 982 l 433 0 l 428 0 z "},"Ț":{"ha":818,"x_min":12,"x_max":806,"o":"m 385 0 l 385 982 l 12 982 l 12 1028 l 806 1028 l 806 982 l 433 982 l 433 0 l 385 0 m 406 -128 q 440 -143 428 -128 q 452 -187 452 -158 q 444 -247 452 -214 q 422 -311 437 -281 l 391 -311 q 414 -215 410 -262 l 409 -215 q 378 -203 390 -215 q 366 -171 366 -190 q 377 -140 366 -152 q 406 -128 389 -128 z "},"Ṭ":{"ha":818,"x_min":12,"x_max":806,"o":"m 385 0 l 385 982 l 12 982 l 12 1028 l 806 1028 l 806 982 l 433 982 l 433 0 l 385 0 m 409 -215 q 378 -203 390 -215 q 366 -172 366 -192 q 378 -140 366 -153 q 409 -128 390 -128 q 440 -140 428 -128 q 452 -172 452 -153 q 440 -203 452 -192 q 409 -215 428 -215 z "},"Ṯ":{"ha":818,"x_min":12,"x_max":806,"o":"m 385 0 l 385 982 l 12 982 l 12 1028 l 806 1028 l 806 982 l 433 982 l 433 0 l 385 0 m 211 -194 l 211 -153 l 607 -153 l 607 -194 l 211 -194 z "},"U":{"ha":1013,"x_min":135,"x_max":878,"o":"m 508 -12 q 298 29 380 -12 q 176 157 216 70 q 135 381 135 243 l 135 1028 l 183 1028 l 183 374 q 217 180 183 255 q 323 69 251 105 q 508 33 394 33 q 692 69 620 33 q 798 180 763 105 q 832 374 832 255 l 832 1028 l 878 1028 l 878 381 q 838 157 878 243 q 717 29 798 70 q 508 -12 635 -12 z "},"Ú":{"ha":1013,"x_min":135,"x_max":878,"o":"m 508 -12 q 298 29 380 -12 q 176 157 216 70 q 135 381 135 243 l 135 1028 l 183 1028 l 183 374 q 217 180 183 255 q 323 69 251 105 q 508 33 394 33 q 692 69 620 33 q 798 180 763 105 q 832 374 832 255 l 832 1028 l 878 1028 l 878 381 q 838 157 878 243 q 717 29 798 70 q 508 -12 635 -12 m 484 1122 l 622 1311 l 679 1311 l 531 1122 l 484 1122 z "},"Ŭ":{"ha":1013,"x_min":135,"x_max":878,"o":"m 508 -12 q 298 29 380 -12 q 176 157 216 70 q 135 381 135 243 l 135 1028 l 183 1028 l 183 374 q 217 180 183 255 q 323 69 251 105 q 508 33 394 33 q 692 69 620 33 q 798 180 763 105 q 832 374 832 255 l 832 1028 l 878 1028 l 878 381 q 838 157 878 243 q 717 29 798 70 q 508 -12 635 -12 m 509 1131 q 358 1174 411 1131 q 298 1292 305 1218 l 339 1292 q 387 1202 348 1233 q 509 1172 426 1172 q 631 1202 592 1172 q 676 1292 669 1233 l 717 1292 q 659 1174 710 1217 q 509 1131 607 1131 z "},"Û":{"ha":1013,"x_min":135,"x_max":878,"o":"m 508 -12 q 298 29 380 -12 q 176 157 216 70 q 135 381 135 243 l 135 1028 l 183 1028 l 183 374 q 217 180 183 255 q 323 69 251 105 q 508 33 394 33 q 692 69 620 33 q 798 180 763 105 q 832 374 832 255 l 832 1028 l 878 1028 l 878 381 q 838 157 878 243 q 717 29 798 70 q 508 -12 635 -12 m 716 1122 l 656 1122 l 508 1280 l 360 1122 l 299 1122 l 481 1311 l 534 1311 l 716 1122 z "},"Ȕ":{"ha":1013,"x_min":135,"x_max":878,"o":"m 508 -12 q 298 29 380 -12 q 176 157 216 70 q 135 381 135 243 l 135 1028 l 183 1028 l 183 374 q 217 180 183 255 q 323 69 251 105 q 508 33 394 33 q 692 69 620 33 q 798 180 763 105 q 832 374 832 255 l 832 1028 l 878 1028 l 878 381 q 838 157 878 243 q 717 29 798 70 q 508 -12 635 -12 m 376 1122 l 274 1311 l 322 1311 l 421 1122 l 376 1122 m 595 1122 l 493 1311 l 542 1311 l 640 1122 l 595 1122 z "},"Ü":{"ha":1013,"x_min":135,"x_max":878,"o":"m 508 -12 q 298 29 380 -12 q 176 157 216 70 q 135 381 135 243 l 135 1028 l 183 1028 l 183 374 q 217 180 183 255 q 323 69 251 105 q 508 33 394 33 q 692 69 620 33 q 798 180 763 105 q 832 374 832 255 l 832 1028 l 878 1028 l 878 381 q 838 157 878 243 q 717 29 798 70 q 508 -12 635 -12 m 341 1174 q 310 1185 322 1174 q 298 1217 298 1197 q 310 1249 298 1236 q 341 1261 322 1261 q 372 1249 360 1261 q 384 1217 384 1236 q 372 1185 384 1197 q 341 1174 360 1174 m 674 1174 q 643 1185 656 1174 q 631 1217 631 1197 q 643 1249 631 1236 q 674 1261 656 1261 q 705 1249 693 1261 q 717 1217 717 1236 q 705 1185 717 1197 q 674 1174 693 1174 z "},"Ụ":{"ha":1013,"x_min":135,"x_max":878,"o":"m 508 -12 q 298 29 380 -12 q 176 157 216 70 q 135 381 135 243 l 135 1028 l 183 1028 l 183 374 q 217 180 183 255 q 323 69 251 105 q 508 33 394 33 q 692 69 620 33 q 798 180 763 105 q 832 374 832 255 l 832 1028 l 878 1028 l 878 381 q 838 157 878 243 q 717 29 798 70 q 508 -12 635 -12 m 508 -215 q 477 -203 489 -215 q 465 -172 465 -192 q 477 -140 465 -153 q 508 -128 489 -128 q 539 -140 526 -128 q 551 -172 551 -153 q 539 -203 551 -192 q 508 -215 526 -215 z "},"Ù":{"ha":1013,"x_min":135,"x_max":878,"o":"m 508 -12 q 298 29 380 -12 q 176 157 216 70 q 135 381 135 243 l 135 1028 l 183 1028 l 183 374 q 217 180 183 255 q 323 69 251 105 q 508 33 394 33 q 692 69 620 33 q 798 180 763 105 q 832 374 832 255 l 832 1028 l 878 1028 l 878 381 q 838 157 878 243 q 717 29 798 70 q 508 -12 635 -12 m 484 1122 l 336 1311 l 394 1311 l 531 1122 l 484 1122 z "},"Ủ":{"ha":1013,"x_min":135,"x_max":878,"o":"m 508 -12 q 298 29 380 -12 q 176 157 216 70 q 135 381 135 243 l 135 1028 l 183 1028 l 183 374 q 217 180 183 255 q 323 69 251 105 q 508 33 394 33 q 692 69 620 33 q 798 180 763 105 q 832 374 832 255 l 832 1028 l 878 1028 l 878 381 q 838 157 878 243 q 717 29 798 70 q 508 -12 635 -12 m 485 1122 q 496 1156 485 1142 q 520 1176 506 1169 q 556 1194 533 1184 q 594 1213 582 1203 q 607 1237 607 1222 q 588 1264 607 1255 q 520 1274 569 1274 q 447 1268 480 1274 q 376 1249 415 1263 l 376 1286 q 520 1311 438 1311 q 616 1291 585 1311 q 648 1237 648 1270 q 632 1196 648 1210 q 584 1169 615 1183 q 545 1149 558 1158 q 530 1122 532 1140 l 485 1122 z "},"Ư":{"ha":1013,"x_min":135,"x_max":1047,"o":"m 508 -12 q 298 29 380 -12 q 176 157 216 70 q 135 381 135 243 l 135 1028 l 183 1028 l 183 374 q 217 180 183 255 q 323 69 251 105 q 508 33 394 33 q 692 69 620 33 q 798 180 763 105 q 832 374 832 255 l 832 1028 l 856 1028 q 1001 1135 1001 1028 q 997 1184 1001 1162 q 983 1233 992 1206 l 1029 1233 q 1042 1186 1038 1208 q 1047 1133 1047 1163 q 1002 1026 1047 1065 q 878 984 958 988 l 878 381 q 838 157 878 243 q 717 29 798 70 q 508 -12 635 -12 z "},"Ứ":{"ha":1013,"x_min":135,"x_max":1047,"o":"m 508 -12 q 298 29 380 -12 q 176 157 216 70 q 135 381 135 243 l 135 1028 l 183 1028 l 183 374 q 217 180 183 255 q 323 69 251 105 q 508 33 394 33 q 692 69 620 33 q 798 180 763 105 q 832 374 832 255 l 832 1028 l 856 1028 q 1001 1135 1001 1028 q 997 1184 1001 1162 q 983 1233 992 1206 l 1029 1233 q 1042 1186 1038 1208 q 1047 1133 1047 1163 q 1002 1026 1047 1065 q 878 984 958 988 l 878 381 q 838 157 878 243 q 717 29 798 70 q 508 -12 635 -12 m 484 1122 l 622 1311 l 679 1311 l 531 1122 l 484 1122 z "},"Ự":{"ha":1013,"x_min":135,"x_max":1047,"o":"m 508 -12 q 298 29 380 -12 q 176 157 216 70 q 135 381 135 243 l 135 1028 l 183 1028 l 183 374 q 217 180 183 255 q 323 69 251 105 q 508 33 394 33 q 692 69 620 33 q 798 180 763 105 q 832 374 832 255 l 832 1028 l 856 1028 q 1001 1135 1001 1028 q 997 1184 1001 1162 q 983 1233 992 1206 l 1029 1233 q 1042 1186 1038 1208 q 1047 1133 1047 1163 q 1002 1026 1047 1065 q 878 984 958 988 l 878 381 q 838 157 878 243 q 717 29 798 70 q 508 -12 635 -12 m 508 -215 q 477 -203 489 -215 q 465 -172 465 -192 q 477 -140 465 -153 q 508 -128 489 -128 q 539 -140 526 -128 q 551 -172 551 -153 q 539 -203 551 -192 q 508 -215 526 -215 z "},"Ừ":{"ha":1013,"x_min":135,"x_max":1047,"o":"m 508 -12 q 298 29 380 -12 q 176 157 216 70 q 135 381 135 243 l 135 1028 l 183 1028 l 183 374 q 217 180 183 255 q 323 69 251 105 q 508 33 394 33 q 692 69 620 33 q 798 180 763 105 q 832 374 832 255 l 832 1028 l 856 1028 q 1001 1135 1001 1028 q 997 1184 1001 1162 q 983 1233 992 1206 l 1029 1233 q 1042 1186 1038 1208 q 1047 1133 1047 1163 q 1002 1026 1047 1065 q 878 984 958 988 l 878 381 q 838 157 878 243 q 717 29 798 70 q 508 -12 635 -12 m 484 1122 l 336 1311 l 394 1311 l 531 1122 l 484 1122 z "},"Ử":{"ha":1013,"x_min":135,"x_max":1047,"o":"m 508 -12 q 298 29 380 -12 q 176 157 216 70 q 135 381 135 243 l 135 1028 l 183 1028 l 183 374 q 217 180 183 255 q 323 69 251 105 q 508 33 394 33 q 692 69 620 33 q 798 180 763 105 q 832 374 832 255 l 832 1028 l 856 1028 q 1001 1135 1001 1028 q 997 1184 1001 1162 q 983 1233 992 1206 l 1029 1233 q 1042 1186 1038 1208 q 1047 1133 1047 1163 q 1002 1026 1047 1065 q 878 984 958 988 l 878 381 q 838 157 878 243 q 717 29 798 70 q 508 -12 635 -12 m 485 1122 q 496 1156 485 1142 q 520 1176 506 1169 q 556 1194 533 1184 q 594 1213 582 1203 q 607 1237 607 1222 q 588 1264 607 1255 q 520 1274 569 1274 q 447 1268 480 1274 q 376 1249 415 1263 l 376 1286 q 520 1311 438 1311 q 616 1291 585 1311 q 648 1237 648 1270 q 632 1196 648 1210 q 584 1169 615 1183 q 545 1149 558 1158 q 530 1122 532 1140 l 485 1122 z "},"Ữ":{"ha":1013,"x_min":135,"x_max":1047,"o":"m 508 -12 q 298 29 380 -12 q 176 157 216 70 q 135 381 135 243 l 135 1028 l 183 1028 l 183 374 q 217 180 183 255 q 323 69 251 105 q 508 33 394 33 q 692 69 620 33 q 798 180 763 105 q 832 374 832 255 l 832 1028 l 856 1028 q 1001 1135 1001 1028 q 997 1184 1001 1162 q 983 1233 992 1206 l 1029 1233 q 1042 1186 1038 1208 q 1047 1133 1047 1163 q 1002 1026 1047 1065 q 878 984 958 988 l 878 381 q 838 157 878 243 q 717 29 798 70 q 508 -12 635 -12 m 613 1179 q 560 1186 585 1179 q 497 1207 535 1193 q 444 1225 465 1219 q 402 1231 424 1231 q 339 1219 366 1231 q 288 1182 311 1208 l 288 1229 q 402 1271 327 1271 q 456 1264 431 1271 q 518 1243 481 1257 q 571 1225 551 1231 q 613 1219 592 1219 q 677 1231 649 1219 q 728 1268 704 1242 l 728 1221 q 613 1179 688 1179 z "},"Ű":{"ha":1013,"x_min":135,"x_max":878,"o":"m 508 -12 q 298 29 380 -12 q 176 157 216 70 q 135 381 135 243 l 135 1028 l 183 1028 l 183 374 q 217 180 183 255 q 323 69 251 105 q 508 33 394 33 q 692 69 620 33 q 798 180 763 105 q 832 374 832 255 l 832 1028 l 878 1028 l 878 381 q 838 157 878 243 q 717 29 798 70 q 508 -12 635 -12 m 376 1122 l 474 1311 l 523 1311 l 421 1122 l 376 1122 m 595 1122 l 693 1311 l 742 1311 l 640 1122 l 595 1122 z "},"Ȗ":{"ha":1013,"x_min":135,"x_max":878,"o":"m 508 -12 q 298 29 380 -12 q 176 157 216 70 q 135 381 135 243 l 135 1028 l 183 1028 l 183 374 q 217 180 183 255 q 323 69 251 105 q 508 33 394 33 q 692 69 620 33 q 798 180 763 105 q 832 374 832 255 l 832 1028 l 878 1028 l 878 381 q 838 157 878 243 q 717 29 798 70 q 508 -12 635 -12 m 298 1142 q 357 1260 305 1217 q 506 1303 408 1303 q 657 1259 604 1303 q 717 1142 710 1215 l 676 1142 q 629 1232 668 1201 q 506 1262 590 1262 q 385 1232 424 1262 q 339 1142 347 1201 l 298 1142 z "},"Ū":{"ha":1013,"x_min":135,"x_max":878,"o":"m 508 -12 q 298 29 380 -12 q 176 157 216 70 q 135 381 135 243 l 135 1028 l 183 1028 l 183 374 q 217 180 183 255 q 323 69 251 105 q 508 33 394 33 q 692 69 620 33 q 798 180 763 105 q 832 374 832 255 l 832 1028 l 878 1028 l 878 381 q 838 157 878 243 q 717 29 798 70 q 508 -12 635 -12 m 310 1197 l 310 1238 l 706 1238 l 706 1197 l 310 1197 z "},"Ṻ":{"ha":1013,"x_min":135,"x_max":878,"o":"m 508 -12 q 298 29 380 -12 q 176 157 216 70 q 135 381 135 243 l 135 1028 l 183 1028 l 183 374 q 217 180 183 255 q 323 69 251 105 q 508 33 394 33 q 692 69 620 33 q 798 180 763 105 q 832 374 832 255 l 832 1028 l 878 1028 l 878 381 q 838 157 878 243 q 717 29 798 70 q 508 -12 635 -12 m 310 1197 l 310 1238 l 706 1238 l 706 1197 l 310 1197 m 341 1332 q 310 1344 322 1332 q 298 1375 298 1356 q 310 1407 298 1394 q 341 1419 322 1419 q 372 1407 360 1419 q 384 1375 384 1394 q 372 1344 384 1356 q 341 1332 360 1332 m 674 1332 q 643 1344 656 1332 q 631 1375 631 1356 q 643 1407 631 1394 q 674 1419 656 1419 q 705 1407 693 1419 q 717 1375 717 1394 q 705 1344 717 1356 q 674 1332 693 1332 z "},"Ų":{"ha":1013,"x_min":135,"x_max":878,"o":"m 878 1028 l 878 381 q 823 127 878 219 q 648 3 767 35 q 509 -63 553 -23 q 465 -154 465 -103 q 493 -218 465 -197 q 573 -240 520 -240 q 630 -233 601 -240 q 699 -211 658 -226 l 699 -249 q 575 -276 638 -276 q 464 -244 502 -276 q 426 -154 426 -213 q 449 -76 426 -113 q 519 -12 471 -39 l 508 -12 q 298 29 380 -12 q 176 157 216 70 q 135 381 135 243 l 135 1028 l 183 1028 l 183 374 q 217 180 183 255 q 323 69 251 105 q 508 33 394 33 q 692 69 620 33 q 798 180 763 105 q 832 374 832 255 l 832 1028 l 878 1028 z "},"Ů":{"ha":1013,"x_min":135,"x_max":878,"o":"m 508 -12 q 298 29 380 -12 q 176 157 216 70 q 135 381 135 243 l 135 1028 l 183 1028 l 183 374 q 217 180 183 255 q 323 69 251 105 q 508 33 394 33 q 692 69 620 33 q 798 180 763 105 q 832 374 832 255 l 832 1028 l 878 1028 l 878 381 q 838 157 878 243 q 717 29 798 70 q 508 -12 635 -12 m 508 1119 q 442 1136 472 1119 q 397 1182 413 1153 q 380 1247 380 1211 q 397 1313 380 1283 q 442 1358 413 1342 q 508 1375 472 1375 q 573 1358 544 1375 q 619 1313 602 1342 q 635 1247 635 1283 q 619 1182 635 1211 q 573 1136 602 1153 q 508 1119 544 1119 m 508 1156 q 573 1180 548 1156 q 598 1247 598 1205 q 573 1314 598 1290 q 508 1339 548 1339 q 442 1314 467 1339 q 417 1247 417 1290 q 442 1180 417 1205 q 508 1156 467 1156 z "},"Ũ":{"ha":1013,"x_min":135,"x_max":878,"o":"m 508 -12 q 298 29 380 -12 q 176 157 216 70 q 135 381 135 243 l 135 1028 l 183 1028 l 183 374 q 217 180 183 255 q 323 69 251 105 q 508 33 394 33 q 692 69 620 33 q 798 180 763 105 q 832 374 832 255 l 832 1028 l 878 1028 l 878 381 q 838 157 878 243 q 717 29 798 70 q 508 -12 635 -12 m 613 1179 q 560 1186 585 1179 q 497 1207 535 1193 q 444 1225 465 1219 q 402 1231 424 1231 q 339 1219 366 1231 q 288 1182 311 1208 l 288 1229 q 402 1271 327 1271 q 456 1264 431 1271 q 518 1243 481 1257 q 571 1225 551 1231 q 613 1219 592 1219 q 677 1231 649 1219 q 728 1268 704 1242 l 728 1221 q 613 1179 688 1179 z "},"Ṹ":{"ha":1013,"x_min":135,"x_max":878,"o":"m 508 -12 q 298 29 380 -12 q 176 157 216 70 q 135 381 135 243 l 135 1028 l 183 1028 l 183 374 q 217 180 183 255 q 323 69 251 105 q 508 33 394 33 q 692 69 620 33 q 798 180 763 105 q 832 374 832 255 l 832 1028 l 878 1028 l 878 381 q 838 157 878 243 q 717 29 798 70 q 508 -12 635 -12 m 484 1308 l 621 1469 l 679 1469 l 533 1308 l 484 1308 m 613 1179 q 560 1186 585 1179 q 497 1207 535 1193 q 444 1225 465 1219 q 402 1231 424 1231 q 339 1219 366 1231 q 288 1182 311 1208 l 288 1229 q 402 1271 327 1271 q 456 1264 431 1271 q 518 1243 481 1257 q 571 1225 551 1231 q 613 1219 592 1219 q 677 1231 649 1219 q 728 1268 704 1242 l 728 1221 q 613 1179 688 1179 z "},"V":{"ha":917,"x_min":15,"x_max":903,"o":"m 853 1028 l 903 1028 l 491 0 l 426 0 l 15 1028 l 67 1028 l 460 42 l 853 1028 z "},"W":{"ha":1490,"x_min":53,"x_max":1437,"o":"m 1388 1028 l 1437 1028 l 1118 0 l 1053 0 l 745 974 l 438 0 l 372 0 l 53 1028 l 103 1028 l 406 46 l 713 1028 l 778 1028 l 1086 46 l 1388 1028 z "},"Ẃ":{"ha":1490,"x_min":53,"x_max":1437,"o":"m 1388 1028 l 1437 1028 l 1118 0 l 1053 0 l 745 974 l 438 0 l 372 0 l 53 1028 l 103 1028 l 406 46 l 713 1028 l 778 1028 l 1086 46 l 1388 1028 m 722 1122 l 860 1311 l 917 1311 l 769 1122 l 722 1122 z "},"Ŵ":{"ha":1490,"x_min":53,"x_max":1437,"o":"m 1388 1028 l 1437 1028 l 1118 0 l 1053 0 l 745 974 l 438 0 l 372 0 l 53 1028 l 103 1028 l 406 46 l 713 1028 l 778 1028 l 1086 46 l 1388 1028 m 954 1122 l 894 1122 l 747 1280 l 598 1122 l 538 1122 l 719 1311 l 772 1311 l 954 1122 z "},"Ẅ":{"ha":1490,"x_min":53,"x_max":1437,"o":"m 1388 1028 l 1437 1028 l 1118 0 l 1053 0 l 745 974 l 438 0 l 372 0 l 53 1028 l 103 1028 l 406 46 l 713 1028 l 778 1028 l 1086 46 l 1388 1028 m 579 1174 q 548 1185 560 1174 q 536 1217 536 1197 q 548 1249 536 1236 q 579 1261 560 1261 q 610 1249 598 1261 q 622 1217 622 1236 q 610 1185 622 1197 q 579 1174 598 1174 m 913 1174 q 882 1185 894 1174 q 869 1217 869 1197 q 882 1249 869 1236 q 913 1261 894 1261 q 943 1249 931 1261 q 956 1217 956 1236 q 943 1185 956 1197 q 913 1174 931 1174 z "},"Ẁ":{"ha":1490,"x_min":53,"x_max":1437,"o":"m 1388 1028 l 1437 1028 l 1118 0 l 1053 0 l 745 974 l 438 0 l 372 0 l 53 1028 l 103 1028 l 406 46 l 713 1028 l 778 1028 l 1086 46 l 1388 1028 m 722 1122 l 574 1311 l 632 1311 l 769 1122 l 722 1122 z "},"X":{"ha":899,"x_min":26,"x_max":873,"o":"m 478 519 l 873 0 l 812 0 l 449 479 l 85 0 l 26 0 l 420 519 l 33 1028 l 93 1028 l 450 558 l 808 1028 l 866 1028 l 478 519 z "},"Y":{"ha":818,"x_min":-12,"x_max":825,"o":"m 825 1028 l 433 472 l 433 0 l 385 0 l 385 472 l -12 1028 l 47 1028 l 410 517 l 768 1028 l 825 1028 z "},"Ý":{"ha":818,"x_min":-12,"x_max":825,"o":"m 825 1028 l 433 472 l 433 0 l 385 0 l 385 472 l -12 1028 l 47 1028 l 410 517 l 768 1028 l 825 1028 m 385 1122 l 524 1311 l 581 1311 l 433 1122 l 385 1122 z "},"Ŷ":{"ha":818,"x_min":-12,"x_max":825,"o":"m 825 1028 l 433 472 l 433 0 l 385 0 l 385 472 l -12 1028 l 47 1028 l 410 517 l 768 1028 l 825 1028 m 617 1122 l 558 1122 l 410 1280 l 261 1122 l 201 1122 l 383 1311 l 435 1311 l 617 1122 z "},"Ÿ":{"ha":818,"x_min":-12,"x_max":825,"o":"m 825 1028 l 433 472 l 433 0 l 385 0 l 385 472 l -12 1028 l 47 1028 l 410 517 l 768 1028 l 825 1028 m 242 1174 q 211 1185 224 1174 q 199 1217 199 1197 q 211 1249 199 1236 q 242 1261 224 1261 q 273 1249 261 1261 q 285 1217 285 1236 q 273 1185 285 1197 q 242 1174 261 1174 m 576 1174 q 545 1185 557 1174 q 533 1217 533 1197 q 545 1249 533 1236 q 576 1261 557 1261 q 607 1249 594 1261 q 619 1217 619 1236 q 607 1185 619 1197 q 576 1174 594 1174 z "},"Ẏ":{"ha":818,"x_min":-12,"x_max":825,"o":"m 825 1028 l 433 472 l 433 0 l 385 0 l 385 472 l -12 1028 l 47 1028 l 410 517 l 768 1028 l 825 1028 m 409 1174 q 378 1185 390 1174 q 366 1217 366 1197 q 378 1249 366 1236 q 409 1261 390 1261 q 440 1249 428 1261 q 452 1217 452 1236 q 440 1185 452 1197 q 409 1174 428 1174 z "},"Ỵ":{"ha":818,"x_min":-12,"x_max":825,"o":"m 825 1028 l 433 472 l 433 0 l 385 0 l 385 472 l -12 1028 l 47 1028 l 410 517 l 768 1028 l 825 1028 m 409 -215 q 378 -203 390 -215 q 366 -172 366 -192 q 378 -140 366 -153 q 409 -128 390 -128 q 440 -140 428 -128 q 452 -172 452 -153 q 440 -203 452 -192 q 409 -215 428 -215 z "},"Ỳ":{"ha":818,"x_min":-12,"x_max":825,"o":"m 825 1028 l 433 472 l 433 0 l 385 0 l 385 472 l -12 1028 l 47 1028 l 410 517 l 768 1028 l 825 1028 m 385 1122 l 238 1311 l 295 1311 l 433 1122 l 385 1122 z "},"Ỷ":{"ha":818,"x_min":-12,"x_max":825,"o":"m 825 1028 l 433 472 l 433 0 l 385 0 l 385 472 l -12 1028 l 47 1028 l 410 517 l 768 1028 l 825 1028 m 386 1122 q 397 1156 387 1142 q 421 1176 408 1169 q 458 1194 435 1184 q 496 1213 483 1203 q 508 1237 508 1222 q 489 1264 508 1255 q 422 1274 470 1274 q 349 1268 381 1274 q 278 1249 316 1263 l 278 1286 q 422 1311 339 1311 q 518 1291 486 1311 q 549 1237 549 1270 q 533 1196 549 1210 q 485 1169 517 1183 q 446 1149 459 1158 q 431 1122 433 1140 l 386 1122 z "},"Ȳ":{"ha":818,"x_min":-12,"x_max":825,"o":"m 825 1028 l 433 472 l 433 0 l 385 0 l 385 472 l -12 1028 l 47 1028 l 410 517 l 768 1028 l 825 1028 m 211 1197 l 211 1238 l 607 1238 l 607 1197 l 211 1197 z "},"Ỹ":{"ha":818,"x_min":-12,"x_max":825,"o":"m 825 1028 l 433 472 l 433 0 l 385 0 l 385 472 l -12 1028 l 47 1028 l 410 517 l 768 1028 l 825 1028 m 515 1179 q 461 1186 486 1179 q 399 1207 436 1193 q 345 1225 366 1219 q 303 1231 325 1231 q 240 1219 267 1231 q 189 1182 213 1208 l 189 1229 q 303 1271 228 1271 q 357 1264 332 1271 q 419 1243 382 1257 q 473 1225 452 1231 q 515 1219 493 1219 q 578 1231 551 1219 q 630 1268 606 1242 l 630 1221 q 515 1179 590 1179 z "},"Z":{"ha":819,"x_min":47,"x_max":773,"o":"m 113 44 l 773 44 l 773 0 l 47 0 l 47 28 l 697 983 l 56 983 l 56 1028 l 764 1028 l 764 1000 l 113 44 z "},"Ź":{"ha":819,"x_min":47,"x_max":773,"o":"m 113 44 l 773 44 l 773 0 l 47 0 l 47 28 l 697 983 l 56 983 l 56 1028 l 764 1028 l 764 1000 l 113 44 m 386 1122 l 524 1311 l 581 1311 l 433 1122 l 386 1122 z "},"Ž":{"ha":819,"x_min":47,"x_max":773,"o":"m 113 44 l 773 44 l 773 0 l 47 0 l 47 28 l 697 983 l 56 983 l 56 1028 l 764 1028 l 764 1000 l 113 44 m 558 1311 l 618 1311 l 436 1122 l 383 1122 l 201 1311 l 262 1311 l 410 1153 l 558 1311 z "},"Ż":{"ha":819,"x_min":47,"x_max":773,"o":"m 113 44 l 773 44 l 773 0 l 47 0 l 47 28 l 697 983 l 56 983 l 56 1028 l 764 1028 l 764 1000 l 113 44 m 410 1174 q 379 1185 391 1174 q 367 1217 367 1197 q 379 1249 367 1236 q 410 1261 391 1261 q 441 1249 428 1261 q 453 1217 453 1236 q 441 1185 453 1197 q 410 1174 428 1174 z "},"Ẓ":{"ha":819,"x_min":47,"x_max":773,"o":"m 113 44 l 773 44 l 773 0 l 47 0 l 47 28 l 697 983 l 56 983 l 56 1028 l 764 1028 l 764 1000 l 113 44 m 410 -215 q 379 -203 391 -215 q 367 -172 367 -192 q 379 -140 367 -153 q 410 -128 391 -128 q 441 -140 428 -128 q 453 -172 453 -153 q 441 -203 453 -192 q 410 -215 428 -215 z "},"a":{"ha":724,"x_min":84,"x_max":608,"o":"m 341 761 q 488 738 429 761 q 577 661 547 715 q 608 515 608 607 l 608 0 l 567 0 l 563 91 l 557 91 q 451 17 516 44 q 313 -11 385 -11 q 145 41 206 -11 q 84 186 84 93 q 146 331 84 280 q 344 398 208 382 l 561 424 l 561 515 q 536 636 561 592 q 464 698 511 681 q 342 715 416 715 q 236 707 292 715 q 126 678 180 698 l 126 726 q 228 752 171 743 q 341 761 285 761 m 314 35 q 448 64 383 35 q 561 152 512 93 l 561 378 l 343 352 q 184 300 233 340 q 135 190 135 261 q 180 75 135 115 q 314 35 224 35 z "},"á":{"ha":724,"x_min":84,"x_max":608,"o":"m 341 761 q 488 738 429 761 q 577 661 547 715 q 608 515 608 607 l 608 0 l 567 0 l 563 91 l 557 91 q 451 17 516 44 q 313 -11 385 -11 q 145 41 206 -11 q 84 186 84 93 q 146 331 84 280 q 344 398 208 382 l 561 424 l 561 515 q 536 636 561 592 q 464 698 511 681 q 342 715 416 715 q 236 707 292 715 q 126 678 180 698 l 126 726 q 228 752 171 743 q 341 761 285 761 m 314 35 q 448 64 383 35 q 561 152 512 93 l 561 378 l 343 352 q 184 300 233 340 q 135 190 135 261 q 180 75 135 115 q 314 35 224 35 m 336 878 l 501 1122 l 558 1122 l 383 878 l 336 878 z "},"ă":{"ha":724,"x_min":84,"x_max":608,"o":"m 341 761 q 488 738 429 761 q 577 661 547 715 q 608 515 608 607 l 608 0 l 567 0 l 563 91 l 557 91 q 451 17 516 44 q 313 -11 385 -11 q 145 41 206 -11 q 84 186 84 93 q 146 331 84 280 q 344 398 208 382 l 561 424 l 561 515 q 536 636 561 592 q 464 698 511 681 q 342 715 416 715 q 236 707 292 715 q 126 678 180 698 l 126 726 q 228 752 171 743 q 341 761 285 761 m 314 35 q 448 64 383 35 q 561 152 512 93 l 561 378 l 343 352 q 184 300 233 340 q 135 190 135 261 q 180 75 135 115 q 314 35 224 35 m 361 886 q 219 944 270 886 q 164 1103 168 1003 l 205 1103 q 361 926 216 926 q 473 972 436 926 q 515 1103 510 1017 l 556 1103 q 502 944 552 1002 q 361 886 451 886 z "},"ắ":{"ha":724,"x_min":84,"x_max":608,"o":"m 341 761 q 488 738 429 761 q 577 661 547 715 q 608 515 608 607 l 608 0 l 567 0 l 563 91 l 557 91 q 451 17 516 44 q 313 -11 385 -11 q 145 41 206 -11 q 84 186 84 93 q 146 331 84 280 q 344 398 208 382 l 561 424 l 561 515 q 536 636 561 592 q 464 698 511 681 q 342 715 416 715 q 236 707 292 715 q 126 678 180 698 l 126 726 q 228 752 171 743 q 341 761 285 761 m 314 35 q 448 64 383 35 q 561 152 512 93 l 561 378 l 343 352 q 184 300 233 340 q 135 190 135 261 q 180 75 135 115 q 314 35 224 35 m 336 1108 l 474 1297 l 531 1297 l 383 1108 l 336 1108 m 361 886 q 219 944 270 886 q 164 1103 168 1003 l 205 1103 q 361 926 216 926 q 473 972 436 926 q 515 1103 510 1017 l 556 1103 q 502 944 552 1002 q 361 886 451 886 z "},"ặ":{"ha":724,"x_min":84,"x_max":608,"o":"m 341 761 q 488 738 429 761 q 577 661 547 715 q 608 515 608 607 l 608 0 l 567 0 l 563 91 l 557 91 q 451 17 516 44 q 313 -11 385 -11 q 145 41 206 -11 q 84 186 84 93 q 146 331 84 280 q 344 398 208 382 l 561 424 l 561 515 q 536 636 561 592 q 464 698 511 681 q 342 715 416 715 q 236 707 292 715 q 126 678 180 698 l 126 726 q 228 752 171 743 q 341 761 285 761 m 314 35 q 448 64 383 35 q 561 152 512 93 l 561 378 l 343 352 q 184 300 233 340 q 135 190 135 261 q 180 75 135 115 q 314 35 224 35 m 373 -215 q 342 -203 354 -215 q 330 -172 330 -192 q 342 -140 330 -153 q 373 -128 354 -128 q 404 -140 392 -128 q 416 -172 416 -153 q 404 -203 416 -192 q 373 -215 392 -215 m 361 886 q 219 944 270 886 q 164 1103 168 1003 l 205 1103 q 361 926 216 926 q 473 972 436 926 q 515 1103 510 1017 l 556 1103 q 502 944 552 1002 q 361 886 451 886 z "},"ằ":{"ha":724,"x_min":84,"x_max":608,"o":"m 341 761 q 488 738 429 761 q 577 661 547 715 q 608 515 608 607 l 608 0 l 567 0 l 563 91 l 557 91 q 451 17 516 44 q 313 -11 385 -11 q 145 41 206 -11 q 84 186 84 93 q 146 331 84 280 q 344 398 208 382 l 561 424 l 561 515 q 536 636 561 592 q 464 698 511 681 q 342 715 416 715 q 236 707 292 715 q 126 678 180 698 l 126 726 q 228 752 171 743 q 341 761 285 761 m 314 35 q 448 64 383 35 q 561 152 512 93 l 561 378 l 343 352 q 184 300 233 340 q 135 190 135 261 q 180 75 135 115 q 314 35 224 35 m 336 1108 l 188 1297 l 246 1297 l 383 1108 l 336 1108 m 361 886 q 219 944 270 886 q 164 1103 168 1003 l 205 1103 q 361 926 216 926 q 473 972 436 926 q 515 1103 510 1017 l 556 1103 q 502 944 552 1002 q 361 886 451 886 z "},"ẳ":{"ha":724,"x_min":84,"x_max":608,"o":"m 341 761 q 488 738 429 761 q 577 661 547 715 q 608 515 608 607 l 608 0 l 567 0 l 563 91 l 557 91 q 451 17 516 44 q 313 -11 385 -11 q 145 41 206 -11 q 84 186 84 93 q 146 331 84 280 q 344 398 208 382 l 561 424 l 561 515 q 536 636 561 592 q 464 698 511 681 q 342 715 416 715 q 236 707 292 715 q 126 678 180 698 l 126 726 q 228 752 171 743 q 341 761 285 761 m 314 35 q 448 64 383 35 q 561 152 512 93 l 561 378 l 343 352 q 184 300 233 340 q 135 190 135 261 q 180 75 135 115 q 314 35 224 35 m 337 1108 q 348 1142 338 1128 q 372 1163 358 1155 q 408 1180 385 1170 q 447 1199 434 1190 q 459 1223 459 1208 q 440 1250 459 1241 q 372 1260 421 1260 q 299 1254 332 1260 q 228 1235 267 1249 l 228 1272 q 372 1297 290 1297 q 468 1277 437 1297 q 500 1223 500 1256 q 484 1182 500 1196 q 436 1156 467 1169 q 397 1135 410 1144 q 382 1108 384 1126 l 337 1108 m 361 886 q 219 944 270 886 q 164 1103 168 1003 l 205 1103 q 361 926 216 926 q 473 972 436 926 q 515 1103 510 1017 l 556 1103 q 502 944 552 1002 q 361 886 451 886 z "},"ẵ":{"ha":724,"x_min":84,"x_max":608,"o":"m 341 761 q 488 738 429 761 q 577 661 547 715 q 608 515 608 607 l 608 0 l 567 0 l 563 91 l 557 91 q 451 17 516 44 q 313 -11 385 -11 q 145 41 206 -11 q 84 186 84 93 q 146 331 84 280 q 344 398 208 382 l 561 424 l 561 515 q 536 636 561 592 q 464 698 511 681 q 342 715 416 715 q 236 707 292 715 q 126 678 180 698 l 126 726 q 228 752 171 743 q 341 761 285 761 m 314 35 q 448 64 383 35 q 561 152 512 93 l 561 378 l 343 352 q 184 300 233 340 q 135 190 135 261 q 180 75 135 115 q 314 35 224 35 m 458 1164 q 407 1171 432 1164 q 349 1192 383 1178 q 299 1210 317 1205 q 261 1216 280 1216 q 202 1204 228 1216 q 152 1167 176 1192 l 152 1214 q 261 1256 191 1256 q 312 1249 288 1256 q 370 1228 337 1242 q 421 1210 402 1215 q 458 1204 440 1204 q 517 1216 491 1204 q 568 1253 544 1228 l 568 1206 q 458 1164 528 1164 m 361 886 q 219 944 270 886 q 164 1103 168 1003 l 205 1103 q 361 926 216 926 q 473 972 436 926 q 515 1103 510 1017 l 556 1103 q 502 944 552 1002 q 361 886 451 886 z "},"â":{"ha":724,"x_min":84,"x_max":608,"o":"m 341 761 q 488 738 429 761 q 577 661 547 715 q 608 515 608 607 l 608 0 l 567 0 l 563 91 l 557 91 q 451 17 516 44 q 313 -11 385 -11 q 145 41 206 -11 q 84 186 84 93 q 146 331 84 280 q 344 398 208 382 l 561 424 l 561 515 q 536 636 561 592 q 464 698 511 681 q 342 715 416 715 q 236 707 292 715 q 126 678 180 698 l 126 726 q 228 752 171 743 q 341 761 285 761 m 314 35 q 448 64 383 35 q 561 152 512 93 l 561 378 l 343 352 q 184 300 233 340 q 135 190 135 261 q 180 75 135 115 q 314 35 224 35 m 552 878 l 501 878 l 360 1090 l 219 878 l 167 878 l 333 1122 l 386 1122 l 552 878 z "},"ấ":{"ha":724,"x_min":84,"x_max":703,"o":"m 341 761 q 488 738 429 761 q 577 661 547 715 q 608 515 608 607 l 608 0 l 567 0 l 563 91 l 557 91 q 451 17 516 44 q 313 -11 385 -11 q 145 41 206 -11 q 84 186 84 93 q 146 331 84 280 q 344 398 208 382 l 561 424 l 561 515 q 536 636 561 592 q 464 698 511 681 q 342 715 416 715 q 236 707 292 715 q 126 678 180 698 l 126 726 q 228 752 171 743 q 341 761 285 761 m 314 35 q 448 64 383 35 q 561 152 512 93 l 561 378 l 343 352 q 184 300 233 340 q 135 190 135 261 q 180 75 135 115 q 314 35 224 35 m 645 1297 l 703 1297 l 555 1108 l 508 1108 l 645 1297 m 333 1122 l 386 1122 l 552 878 l 501 878 l 360 1090 l 219 878 l 167 878 l 333 1122 z "},"ậ":{"ha":724,"x_min":84,"x_max":608,"o":"m 341 761 q 488 738 429 761 q 577 661 547 715 q 608 515 608 607 l 608 0 l 567 0 l 563 91 l 557 91 q 451 17 516 44 q 313 -11 385 -11 q 145 41 206 -11 q 84 186 84 93 q 146 331 84 280 q 344 398 208 382 l 561 424 l 561 515 q 536 636 561 592 q 464 698 511 681 q 342 715 416 715 q 236 707 292 715 q 126 678 180 698 l 126 726 q 228 752 171 743 q 341 761 285 761 m 314 35 q 448 64 383 35 q 561 152 512 93 l 561 378 l 343 352 q 184 300 233 340 q 135 190 135 261 q 180 75 135 115 q 314 35 224 35 m 373 -215 q 342 -203 354 -215 q 330 -172 330 -192 q 342 -140 330 -153 q 373 -128 354 -128 q 404 -140 392 -128 q 416 -172 416 -153 q 404 -203 416 -192 q 373 -215 392 -215 m 552 878 l 501 878 l 360 1090 l 219 878 l 167 878 l 333 1122 l 386 1122 l 552 878 z "},"ầ":{"ha":724,"x_min":84,"x_max":608,"o":"m 341 761 q 488 738 429 761 q 577 661 547 715 q 608 515 608 607 l 608 0 l 567 0 l 563 91 l 557 91 q 451 17 516 44 q 313 -11 385 -11 q 145 41 206 -11 q 84 186 84 93 q 146 331 84 280 q 344 398 208 382 l 561 424 l 561 515 q 536 636 561 592 q 464 698 511 681 q 342 715 416 715 q 236 707 292 715 q 126 678 180 698 l 126 726 q 228 752 171 743 q 341 761 285 761 m 314 35 q 448 64 383 35 q 561 152 512 93 l 561 378 l 343 352 q 184 300 233 340 q 135 190 135 261 q 180 75 135 115 q 314 35 224 35 m 568 1108 l 521 1108 l 373 1297 l 431 1297 l 568 1108 m 333 1122 l 386 1122 l 552 878 l 501 878 l 360 1090 l 219 878 l 167 878 l 333 1122 z "},"ẩ":{"ha":724,"x_min":84,"x_max":670,"o":"m 341 761 q 488 738 429 761 q 577 661 547 715 q 608 515 608 607 l 608 0 l 567 0 l 563 91 l 557 91 q 451 17 516 44 q 313 -11 385 -11 q 145 41 206 -11 q 84 186 84 93 q 146 331 84 280 q 344 398 208 382 l 561 424 l 561 515 q 536 636 561 592 q 464 698 511 681 q 342 715 416 715 q 236 707 292 715 q 126 678 180 698 l 126 726 q 228 752 171 743 q 341 761 285 761 m 314 35 q 448 64 383 35 q 561 152 512 93 l 561 378 l 343 352 q 184 300 233 340 q 135 190 135 261 q 180 75 135 115 q 314 35 224 35 m 542 1297 q 639 1277 607 1297 q 670 1223 670 1257 q 654 1182 670 1196 q 606 1156 638 1169 q 567 1135 580 1144 q 552 1108 554 1126 l 508 1108 q 519 1142 508 1128 q 543 1163 529 1155 q 579 1180 556 1170 q 617 1199 605 1190 q 630 1223 630 1208 q 610 1250 630 1240 q 542 1260 591 1260 q 470 1254 502 1260 q 399 1235 438 1249 l 399 1272 q 542 1297 460 1297 m 333 1122 l 386 1122 l 552 878 l 501 878 l 360 1090 l 219 878 l 167 878 l 333 1122 z "},"ẫ":{"ha":724,"x_min":84,"x_max":608,"o":"m 341 761 q 488 738 429 761 q 577 661 547 715 q 608 515 608 607 l 608 0 l 567 0 l 563 91 l 557 91 q 451 17 516 44 q 313 -11 385 -11 q 145 41 206 -11 q 84 186 84 93 q 146 331 84 280 q 344 398 208 382 l 561 424 l 561 515 q 536 636 561 592 q 464 698 511 681 q 342 715 416 715 q 236 707 292 715 q 126 678 180 698 l 126 726 q 228 752 171 743 q 341 761 285 761 m 314 35 q 448 64 383 35 q 561 152 512 93 l 561 378 l 343 352 q 184 300 233 340 q 135 190 135 261 q 180 75 135 115 q 314 35 224 35 m 458 1204 q 517 1216 491 1204 q 568 1253 544 1228 l 568 1206 q 458 1164 528 1164 q 407 1171 432 1164 q 349 1192 383 1178 q 299 1210 317 1205 q 261 1216 280 1216 q 202 1204 228 1216 q 152 1167 176 1192 l 152 1214 q 261 1256 191 1256 q 312 1249 288 1256 q 370 1228 337 1242 q 421 1210 402 1215 q 458 1204 440 1204 m 333 1122 l 386 1122 l 552 878 l 501 878 l 360 1090 l 219 878 l 167 878 l 333 1122 z "},"ȁ":{"ha":724,"x_min":84,"x_max":608,"o":"m 341 761 q 488 738 429 761 q 577 661 547 715 q 608 515 608 607 l 608 0 l 567 0 l 563 91 l 557 91 q 451 17 516 44 q 313 -11 385 -11 q 145 41 206 -11 q 84 186 84 93 q 146 331 84 280 q 344 398 208 382 l 561 424 l 561 515 q 536 636 561 592 q 464 698 511 681 q 342 715 416 715 q 236 707 292 715 q 126 678 180 698 l 126 726 q 228 752 171 743 q 341 761 285 761 m 314 35 q 448 64 383 35 q 561 152 512 93 l 561 378 l 343 352 q 184 300 233 340 q 135 190 135 261 q 180 75 135 115 q 314 35 224 35 m 228 878 l 113 1122 l 163 1122 l 273 878 l 228 878 m 447 878 l 333 1122 l 383 1122 l 492 878 l 447 878 z "},"ä":{"ha":724,"x_min":84,"x_max":608,"o":"m 341 761 q 488 738 429 761 q 577 661 547 715 q 608 515 608 607 l 608 0 l 567 0 l 563 91 l 557 91 q 451 17 516 44 q 313 -11 385 -11 q 145 41 206 -11 q 84 186 84 93 q 146 331 84 280 q 344 398 208 382 l 561 424 l 561 515 q 536 636 561 592 q 464 698 511 681 q 342 715 416 715 q 236 707 292 715 q 126 678 180 698 l 126 726 q 228 752 171 743 q 341 761 285 761 m 314 35 q 448 64 383 35 q 561 152 512 93 l 561 378 l 343 352 q 184 300 233 340 q 135 190 135 261 q 180 75 135 115 q 314 35 224 35 m 207 944 q 176 956 188 944 q 164 988 164 968 q 176 1019 164 1007 q 207 1032 188 1032 q 238 1019 226 1032 q 250 988 250 1007 q 238 956 250 968 q 207 944 226 944 m 513 944 q 482 956 494 944 q 469 988 469 968 q 482 1019 469 1007 q 513 1032 494 1032 q 543 1019 531 1032 q 556 988 556 1007 q 543 956 556 968 q 513 944 531 944 z "},"ạ":{"ha":724,"x_min":84,"x_max":608,"o":"m 341 761 q 488 738 429 761 q 577 661 547 715 q 608 515 608 607 l 608 0 l 567 0 l 563 91 l 557 91 q 451 17 516 44 q 313 -11 385 -11 q 145 41 206 -11 q 84 186 84 93 q 146 331 84 280 q 344 398 208 382 l 561 424 l 561 515 q 536 636 561 592 q 464 698 511 681 q 342 715 416 715 q 236 707 292 715 q 126 678 180 698 l 126 726 q 228 752 171 743 q 341 761 285 761 m 314 35 q 448 64 383 35 q 561 152 512 93 l 561 378 l 343 352 q 184 300 233 340 q 135 190 135 261 q 180 75 135 115 q 314 35 224 35 m 373 -215 q 342 -203 354 -215 q 330 -172 330 -192 q 342 -140 330 -153 q 373 -128 354 -128 q 404 -140 392 -128 q 416 -172 416 -153 q 404 -203 416 -192 q 373 -215 392 -215 z "},"à":{"ha":724,"x_min":84,"x_max":608,"o":"m 341 761 q 488 738 429 761 q 577 661 547 715 q 608 515 608 607 l 608 0 l 567 0 l 563 91 l 557 91 q 451 17 516 44 q 313 -11 385 -11 q 145 41 206 -11 q 84 186 84 93 q 146 331 84 280 q 344 398 208 382 l 561 424 l 561 515 q 536 636 561 592 q 464 698 511 681 q 342 715 416 715 q 236 707 292 715 q 126 678 180 698 l 126 726 q 228 752 171 743 q 341 761 285 761 m 314 35 q 448 64 383 35 q 561 152 512 93 l 561 378 l 343 352 q 184 300 233 340 q 135 190 135 261 q 180 75 135 115 q 314 35 224 35 m 336 878 l 162 1122 l 218 1122 l 383 878 l 336 878 z "},"ả":{"ha":724,"x_min":84,"x_max":608,"o":"m 341 761 q 488 738 429 761 q 577 661 547 715 q 608 515 608 607 l 608 0 l 567 0 l 563 91 l 557 91 q 451 17 516 44 q 313 -11 385 -11 q 145 41 206 -11 q 84 186 84 93 q 146 331 84 280 q 344 398 208 382 l 561 424 l 561 515 q 536 636 561 592 q 464 698 511 681 q 342 715 416 715 q 236 707 292 715 q 126 678 180 698 l 126 726 q 228 752 171 743 q 341 761 285 761 m 314 35 q 448 64 383 35 q 561 152 512 93 l 561 378 l 343 352 q 184 300 233 340 q 135 190 135 261 q 180 75 135 115 q 314 35 224 35 m 339 878 q 350 923 340 904 q 373 953 360 941 q 408 979 387 965 q 445 1007 433 995 q 456 1038 456 1019 q 433 1079 456 1066 q 362 1092 410 1092 q 304 1088 334 1092 q 251 1075 274 1083 l 251 1114 q 301 1126 272 1122 q 358 1131 331 1131 q 463 1107 428 1131 q 497 1038 497 1083 q 482 990 497 1008 q 438 954 467 973 q 397 920 411 936 q 382 878 383 905 l 339 878 z "},"ȃ":{"ha":724,"x_min":84,"x_max":608,"o":"m 341 761 q 488 738 429 761 q 577 661 547 715 q 608 515 608 607 l 608 0 l 567 0 l 563 91 l 557 91 q 451 17 516 44 q 313 -11 385 -11 q 145 41 206 -11 q 84 186 84 93 q 146 331 84 280 q 344 398 208 382 l 561 424 l 561 515 q 536 636 561 592 q 464 698 511 681 q 342 715 416 715 q 236 707 292 715 q 126 678 180 698 l 126 726 q 228 752 171 743 q 341 761 285 761 m 314 35 q 448 64 383 35 q 561 152 512 93 l 561 378 l 343 352 q 184 300 233 340 q 135 190 135 261 q 180 75 135 115 q 314 35 224 35 m 164 897 q 218 1056 168 999 q 358 1114 267 1114 q 501 1056 449 1114 q 556 897 552 998 l 515 897 q 471 1027 509 982 q 358 1073 433 1073 q 205 897 215 1073 l 164 897 z "},"ā":{"ha":724,"x_min":84,"x_max":608,"o":"m 341 761 q 488 738 429 761 q 577 661 547 715 q 608 515 608 607 l 608 0 l 567 0 l 563 91 l 557 91 q 451 17 516 44 q 313 -11 385 -11 q 145 41 206 -11 q 84 186 84 93 q 146 331 84 280 q 344 398 208 382 l 561 424 l 561 515 q 536 636 561 592 q 464 698 511 681 q 342 715 416 715 q 236 707 292 715 q 126 678 180 698 l 126 726 q 228 752 171 743 q 341 761 285 761 m 314 35 q 448 64 383 35 q 561 152 512 93 l 561 378 l 343 352 q 184 300 233 340 q 135 190 135 261 q 180 75 135 115 q 314 35 224 35 m 152 968 l 152 1010 l 568 1010 l 568 968 l 152 968 z "},"ą":{"ha":724,"x_min":84,"x_max":687,"o":"m 574 -242 q 687 -210 631 -242 l 687 -249 q 633 -270 663 -262 q 576 -278 603 -278 q 478 -246 514 -278 q 442 -160 442 -215 q 472 -66 442 -109 q 566 18 501 -22 l 563 91 l 557 91 q 451 17 516 44 q 313 -11 385 -11 q 145 41 206 -11 q 84 186 84 93 q 146 331 84 280 q 344 398 208 382 l 561 424 l 561 515 q 536 636 561 592 q 464 698 511 681 q 342 715 416 715 q 236 707 292 715 q 126 678 180 698 l 126 726 q 228 752 171 743 q 341 761 285 761 q 488 738 429 761 q 577 661 547 715 q 608 515 608 607 l 608 0 q 510 -76 540 -40 q 481 -158 481 -113 q 506 -219 481 -197 q 574 -242 531 -242 m 314 35 q 448 64 383 35 q 561 152 512 93 l 561 378 l 343 352 q 184 300 233 340 q 135 190 135 261 q 180 75 135 115 q 314 35 224 35 z "},"å":{"ha":724,"x_min":84,"x_max":608,"o":"m 341 761 q 488 738 429 761 q 577 661 547 715 q 608 515 608 607 l 608 0 l 567 0 l 563 91 l 557 91 q 451 17 516 44 q 313 -11 385 -11 q 145 41 206 -11 q 84 186 84 93 q 146 331 84 280 q 344 398 208 382 l 561 424 l 561 515 q 536 636 561 592 q 464 698 511 681 q 342 715 416 715 q 236 707 292 715 q 126 678 180 698 l 126 726 q 228 752 171 743 q 341 761 285 761 m 314 35 q 448 64 383 35 q 561 152 512 93 l 561 378 l 343 352 q 184 300 233 340 q 135 190 135 261 q 180 75 135 115 q 314 35 224 35 m 360 875 q 294 892 324 875 q 249 938 265 908 q 232 1003 232 967 q 249 1068 232 1039 q 294 1114 265 1097 q 360 1131 324 1131 q 425 1114 396 1131 q 471 1068 454 1097 q 488 1003 488 1039 q 471 938 488 967 q 425 892 454 908 q 360 875 396 875 m 360 911 q 425 936 400 911 q 450 1003 450 960 q 425 1070 450 1045 q 360 1094 400 1094 q 294 1070 319 1094 q 269 1003 269 1045 q 294 936 269 960 q 360 911 319 911 z "},"ǻ":{"ha":724,"x_min":84,"x_max":608,"o":"m 341 761 q 488 738 429 761 q 577 661 547 715 q 608 515 608 607 l 608 0 l 567 0 l 563 91 l 557 91 q 451 17 516 44 q 313 -11 385 -11 q 145 41 206 -11 q 84 186 84 93 q 146 331 84 280 q 344 398 208 382 l 561 424 l 561 515 q 536 636 561 592 q 464 698 511 681 q 342 715 416 715 q 236 707 292 715 q 126 678 180 698 l 126 726 q 228 752 171 743 q 341 761 285 761 m 314 35 q 448 64 383 35 q 561 152 512 93 l 561 378 l 343 352 q 184 300 233 340 q 135 190 135 261 q 180 75 135 115 q 314 35 224 35 m 457 1088 q 488 1003 488 1053 q 471 938 488 967 q 425 892 454 908 q 360 875 396 875 q 294 892 324 875 q 249 938 265 908 q 232 1003 232 967 q 249 1068 232 1039 q 294 1114 265 1097 q 360 1131 324 1131 q 429 1112 399 1131 l 536 1236 l 591 1236 l 457 1088 m 360 911 q 425 936 400 911 q 450 1003 450 960 q 425 1070 450 1045 q 360 1094 400 1094 q 294 1070 319 1094 q 269 1003 269 1045 q 294 936 269 960 q 360 911 319 911 z "},"ã":{"ha":724,"x_min":84,"x_max":608,"o":"m 341 761 q 488 738 429 761 q 577 661 547 715 q 608 515 608 607 l 608 0 l 567 0 l 563 91 l 557 91 q 451 17 516 44 q 313 -11 385 -11 q 145 41 206 -11 q 84 186 84 93 q 146 331 84 280 q 344 398 208 382 l 561 424 l 561 515 q 536 636 561 592 q 464 698 511 681 q 342 715 416 715 q 236 707 292 715 q 126 678 180 698 l 126 726 q 228 752 171 743 q 341 761 285 761 m 314 35 q 448 64 383 35 q 561 152 512 93 l 561 378 l 343 352 q 184 300 233 340 q 135 190 135 261 q 180 75 135 115 q 314 35 224 35 m 458 958 q 407 966 432 958 q 349 987 383 973 q 299 1005 317 999 q 261 1010 280 1010 q 202 999 228 1010 q 152 962 176 987 l 152 1008 q 261 1051 191 1051 q 312 1043 288 1051 q 370 1022 337 1036 q 421 1004 402 1010 q 458 999 440 999 q 517 1010 491 999 q 568 1047 544 1022 l 568 1001 q 458 958 528 958 z "},"æ":{"ha":1201,"x_min":84,"x_max":1133,"o":"m 1133 354 l 608 354 q 687 110 613 187 q 900 33 761 33 q 1097 70 988 33 l 1097 23 q 897 -12 995 -12 q 609 138 688 -12 q 468 23 541 56 q 314 -11 394 -11 q 192 12 244 -11 q 112 80 140 35 q 84 186 84 124 q 152 342 84 285 q 367 400 221 400 l 561 400 l 561 516 q 536 637 561 593 q 464 698 511 681 q 342 715 416 715 q 236 707 292 715 q 126 678 180 698 l 126 726 q 228 752 171 743 q 341 761 285 761 q 516 722 452 761 q 598 592 581 683 q 694 720 631 678 q 849 762 758 762 q 1059 666 985 762 q 1133 377 1133 571 l 1133 354 m 849 716 q 674 640 735 716 q 608 400 612 564 l 1084 400 q 1021 641 1081 565 q 849 716 962 716 m 315 35 q 462 70 391 35 q 588 187 533 106 q 561 354 564 258 l 363 354 q 189 310 242 354 q 135 190 135 266 q 181 75 135 115 q 315 35 226 35 z "},"ǽ":{"ha":1201,"x_min":84,"x_max":1133,"o":"m 1133 354 l 608 354 q 687 110 613 187 q 900 33 761 33 q 1097 70 988 33 l 1097 23 q 897 -12 995 -12 q 609 138 688 -12 q 468 23 541 56 q 314 -11 394 -11 q 192 12 244 -11 q 112 80 140 35 q 84 186 84 124 q 152 342 84 285 q 367 400 221 400 l 561 400 l 561 516 q 536 637 561 593 q 464 698 511 681 q 342 715 416 715 q 236 707 292 715 q 126 678 180 698 l 126 726 q 228 752 171 743 q 341 761 285 761 q 516 722 452 761 q 598 592 581 683 q 694 720 631 678 q 849 762 758 762 q 1059 666 985 762 q 1133 377 1133 571 l 1133 354 m 849 716 q 674 640 735 716 q 608 400 612 564 l 1084 400 q 1021 641 1081 565 q 849 716 962 716 m 315 35 q 462 70 391 35 q 588 187 533 106 q 561 354 564 258 l 363 354 q 189 310 242 354 q 135 190 135 266 q 181 75 135 115 q 315 35 226 35 m 561 878 l 726 1122 l 783 1122 l 608 878 l 561 878 z "},"b":{"ha":799,"x_min":127,"x_max":717,"o":"m 344 -12 q 127 19 231 -12 l 127 1122 l 174 1122 l 174 666 l 178 666 q 280 736 220 710 q 413 761 340 761 q 634 672 551 761 q 717 389 717 583 q 622 87 717 187 q 344 -12 528 -12 m 348 33 q 587 118 507 33 q 667 383 667 203 q 598 639 667 562 q 410 715 529 715 q 278 687 340 715 q 174 602 217 659 l 174 57 q 255 40 210 47 q 348 33 300 33 z "},"c":{"ha":617,"x_min":82,"x_max":588,"o":"m 398 -12 q 163 82 244 -12 q 82 375 82 176 q 169 668 82 574 q 429 761 257 761 q 588 739 517 761 l 588 692 q 430 715 508 715 q 264 682 329 715 q 165 574 198 648 q 132 378 132 499 q 200 115 132 196 q 403 33 267 33 q 588 70 487 33 l 588 23 q 398 -12 495 -12 z "},"ć":{"ha":617,"x_min":82,"x_max":588,"o":"m 398 -12 q 163 82 244 -12 q 82 375 82 176 q 169 668 82 574 q 429 761 257 761 q 588 739 517 761 l 588 692 q 430 715 508 715 q 264 682 329 715 q 165 574 198 648 q 132 378 132 499 q 200 115 132 196 q 403 33 267 33 q 588 70 487 33 l 588 23 q 398 -12 495 -12 m 349 878 l 515 1122 l 571 1122 l 397 878 l 349 878 z "},"č":{"ha":617,"x_min":82,"x_max":588,"o":"m 398 -12 q 163 82 244 -12 q 82 375 82 176 q 169 668 82 574 q 429 761 257 761 q 588 739 517 761 l 588 692 q 430 715 508 715 q 264 682 329 715 q 165 574 198 648 q 132 378 132 499 q 200 115 132 196 q 403 33 267 33 q 588 70 487 33 l 588 23 q 398 -12 495 -12 m 518 1122 l 569 1122 l 399 878 l 347 878 l 176 1122 l 228 1122 l 374 910 l 518 1122 z "},"ç":{"ha":617,"x_min":82,"x_max":588,"o":"m 430 715 q 264 682 329 715 q 165 574 198 648 q 132 378 132 499 q 200 115 132 196 q 403 33 267 33 q 588 70 487 33 l 588 23 q 398 -12 495 -12 l 391 -12 l 391 -78 q 474 -108 444 -82 q 503 -178 503 -133 q 469 -252 503 -226 q 377 -278 436 -278 q 312 -271 345 -278 q 257 -251 279 -264 l 257 -212 q 378 -242 315 -242 q 443 -226 422 -242 q 464 -178 464 -210 q 442 -130 464 -145 q 376 -114 421 -114 l 352 -114 l 352 -10 q 82 375 82 17 q 169 668 82 574 q 429 761 257 761 q 588 739 517 761 l 588 692 q 430 715 508 715 z "},"ḉ":{"ha":617,"x_min":82,"x_max":588,"o":"m 571 1122 l 397 878 l 349 878 l 515 1122 l 571 1122 m 430 715 q 264 682 329 715 q 165 574 198 648 q 132 378 132 499 q 200 115 132 196 q 403 33 267 33 q 588 70 487 33 l 588 23 q 398 -12 495 -12 l 391 -12 l 391 -78 q 474 -108 444 -82 q 503 -178 503 -133 q 469 -252 503 -226 q 377 -278 436 -278 q 312 -271 345 -278 q 257 -251 279 -264 l 257 -212 q 378 -242 315 -242 q 443 -226 422 -242 q 464 -178 464 -210 q 442 -130 464 -145 q 376 -114 421 -114 l 352 -114 l 352 -10 q 82 375 82 17 q 169 668 82 574 q 429 761 257 761 q 588 739 517 761 l 588 692 q 430 715 508 715 z "},"ĉ":{"ha":617,"x_min":82,"x_max":588,"o":"m 398 -12 q 163 82 244 -12 q 82 375 82 176 q 169 668 82 574 q 429 761 257 761 q 588 739 517 761 l 588 692 q 430 715 508 715 q 264 682 329 715 q 165 574 198 648 q 132 378 132 499 q 200 115 132 196 q 403 33 267 33 q 588 70 487 33 l 588 23 q 398 -12 495 -12 m 565 878 l 514 878 l 374 1090 l 233 878 l 181 878 l 347 1122 l 399 1122 l 565 878 z "},"ċ":{"ha":617,"x_min":82,"x_max":588,"o":"m 398 -12 q 163 82 244 -12 q 82 375 82 176 q 169 668 82 574 q 429 761 257 761 q 588 739 517 761 l 588 692 q 430 715 508 715 q 264 682 329 715 q 165 574 198 648 q 132 378 132 499 q 200 115 132 196 q 403 33 267 33 q 588 70 487 33 l 588 23 q 398 -12 495 -12 m 373 944 q 342 956 354 944 q 330 988 330 968 q 342 1019 330 1007 q 373 1032 354 1032 q 404 1019 392 1032 q 416 988 416 1007 q 404 956 416 968 q 373 944 392 944 z "},"d":{"ha":799,"x_min":82,"x_max":672,"o":"m 390 -12 q 165 78 249 -12 q 82 360 82 169 q 178 662 82 563 q 463 761 274 761 q 624 746 540 761 l 624 1122 l 672 1122 l 672 0 l 630 0 l 626 88 l 620 88 q 520 14 580 41 q 390 -12 460 -12 m 392 33 q 522 63 461 33 q 624 154 582 92 l 624 697 q 548 710 591 706 q 460 715 504 715 q 213 631 294 715 q 132 365 132 546 q 200 111 132 188 q 392 33 268 33 z "},"ð":{"ha":785,"x_min":82,"x_max":702,"o":"m 526 921 q 655 668 608 806 q 702 396 702 531 q 664 166 702 258 q 557 31 626 75 q 394 -12 488 -12 q 165 82 247 -12 q 82 375 82 176 q 165 666 82 572 q 393 761 248 761 q 511 741 458 761 q 605 673 565 720 q 477 913 559 803 l 159 863 l 153 903 l 448 950 q 258 1122 368 1044 l 327 1122 q 499 958 419 1059 l 681 987 l 688 947 l 526 921 m 394 33 q 585 116 517 33 q 653 374 653 199 q 586 635 653 555 q 393 715 519 715 q 200 636 267 715 q 132 377 132 556 q 200 114 132 195 q 394 33 268 33 z "},"ď":{"ha":799,"x_min":82,"x_max":806,"o":"m 390 -12 q 165 78 249 -12 q 82 360 82 169 q 178 662 82 563 q 463 761 274 761 q 624 746 540 761 l 624 1122 l 672 1122 l 672 0 l 630 0 l 626 88 l 620 88 q 520 14 580 41 q 390 -12 460 -12 m 392 33 q 522 63 461 33 q 624 154 582 92 l 624 697 q 548 710 591 706 q 460 715 504 715 q 213 631 294 715 q 132 365 132 546 q 200 111 132 188 q 392 33 268 33 m 749 819 q 762 1122 762 929 l 806 1122 q 781 819 806 947 l 749 819 z "},"đ":{"ha":799,"x_min":82,"x_max":790,"o":"m 790 921 l 672 921 l 672 0 l 630 0 l 626 88 l 620 88 q 520 14 580 41 q 390 -12 460 -12 q 165 78 249 -12 q 82 360 82 169 q 178 662 82 563 q 463 761 274 761 q 624 746 540 761 l 624 921 l 349 921 l 349 963 l 624 963 l 624 1122 l 672 1122 l 672 963 l 790 963 l 790 921 m 624 697 q 548 710 591 706 q 460 715 504 715 q 213 631 294 715 q 132 365 132 546 q 200 111 132 188 q 392 33 268 33 q 522 63 461 33 q 624 154 582 92 l 624 697 z "},"ḍ":{"ha":799,"x_min":82,"x_max":672,"o":"m 390 -12 q 165 78 249 -12 q 82 360 82 169 q 178 662 82 563 q 463 761 274 761 q 624 746 540 761 l 624 1122 l 672 1122 l 672 0 l 630 0 l 626 88 l 620 88 q 520 14 580 41 q 390 -12 460 -12 m 392 33 q 522 63 461 33 q 624 154 582 92 l 624 697 q 548 710 591 706 q 460 715 504 715 q 213 631 294 715 q 132 365 132 546 q 200 111 132 188 q 392 33 268 33 m 398 -215 q 367 -203 379 -215 q 355 -172 355 -192 q 367 -140 355 -153 q 398 -128 379 -128 q 429 -140 417 -128 q 441 -172 441 -153 q 429 -203 441 -192 q 398 -215 417 -215 z "},"ḏ":{"ha":799,"x_min":82,"x_max":672,"o":"m 390 -12 q 165 78 249 -12 q 82 360 82 169 q 178 662 82 563 q 463 761 274 761 q 624 746 540 761 l 624 1122 l 672 1122 l 672 0 l 630 0 l 626 88 l 620 88 q 520 14 580 41 q 390 -12 460 -12 m 392 33 q 522 63 461 33 q 624 154 582 92 l 624 697 q 548 710 591 706 q 460 715 504 715 q 213 631 294 715 q 132 365 132 546 q 200 111 132 188 q 392 33 268 33 m 214 -194 l 214 -153 l 582 -153 l 582 -194 l 214 -194 z "},"ǳ":{"ha":1442,"x_min":82,"x_max":1400,"o":"m 390 -12 q 165 78 249 -12 q 82 360 82 169 q 178 662 82 563 q 463 761 274 761 q 624 746 540 761 l 624 1122 l 672 1122 l 672 0 l 630 0 l 626 88 l 620 88 q 520 14 580 41 q 390 -12 460 -12 m 392 33 q 522 63 461 33 q 624 154 582 92 l 624 697 q 548 710 591 706 q 460 715 504 715 q 213 631 294 715 q 132 365 132 546 q 200 111 132 188 q 392 33 268 33 m 910 44 l 1400 44 l 1400 0 l 844 0 l 844 28 l 1324 706 l 853 706 l 853 750 l 1391 750 l 1391 722 l 910 44 z "},"ǆ":{"ha":1442,"x_min":82,"x_max":1400,"o":"m 390 -12 q 165 78 249 -12 q 82 360 82 169 q 178 662 82 563 q 463 761 274 761 q 624 746 540 761 l 624 1122 l 672 1122 l 672 0 l 630 0 l 626 88 l 620 88 q 520 14 580 41 q 390 -12 460 -12 m 392 33 q 522 63 461 33 q 624 154 582 92 l 624 697 q 548 710 591 706 q 460 715 504 715 q 213 631 294 715 q 132 365 132 546 q 200 111 132 188 q 392 33 268 33 m 910 44 l 1400 44 l 1400 0 l 844 0 l 844 28 l 1324 706 l 853 706 l 853 750 l 1391 750 l 1391 722 l 910 44 m 1267 1122 l 1319 1122 l 1149 878 l 1096 878 l 926 1122 l 978 1122 l 1123 910 l 1267 1122 z "},"e":{"ha":731,"x_min":82,"x_max":663,"o":"m 663 354 l 132 354 q 211 110 136 186 q 426 33 286 33 q 627 70 513 33 l 627 23 q 424 -12 522 -12 q 82 375 82 -12 q 160 665 82 569 q 376 761 238 761 q 589 666 515 761 q 663 375 663 570 l 663 354 m 376 715 q 198 640 261 715 q 132 400 135 564 l 613 400 q 550 640 610 564 q 376 715 490 715 z "},"é":{"ha":731,"x_min":82,"x_max":663,"o":"m 663 354 l 132 354 q 211 110 136 186 q 426 33 286 33 q 627 70 513 33 l 627 23 q 424 -12 522 -12 q 82 375 82 -12 q 160 665 82 569 q 376 761 238 761 q 589 666 515 761 q 663 375 663 570 l 663 354 m 376 715 q 198 640 261 715 q 132 400 135 564 l 613 400 q 550 640 610 564 q 376 715 490 715 m 355 878 l 520 1122 l 576 1122 l 402 878 l 355 878 z "},"ĕ":{"ha":731,"x_min":82,"x_max":663,"o":"m 663 354 l 132 354 q 211 110 136 186 q 426 33 286 33 q 627 70 513 33 l 627 23 q 424 -12 522 -12 q 82 375 82 -12 q 160 665 82 569 q 376 761 238 761 q 589 666 515 761 q 663 375 663 570 l 663 354 m 376 715 q 198 640 261 715 q 132 400 135 564 l 613 400 q 550 640 610 564 q 376 715 490 715 m 380 886 q 238 944 289 886 q 183 1103 187 1003 l 224 1103 q 380 926 235 926 q 492 972 455 926 q 533 1103 528 1017 l 574 1103 q 520 944 571 1002 q 380 886 470 886 z "},"ě":{"ha":731,"x_min":82,"x_max":663,"o":"m 663 354 l 132 354 q 211 110 136 186 q 426 33 286 33 q 627 70 513 33 l 627 23 q 424 -12 522 -12 q 82 375 82 -12 q 160 665 82 569 q 376 761 238 761 q 589 666 515 761 q 663 375 663 570 l 663 354 m 376 715 q 198 640 261 715 q 132 400 135 564 l 613 400 q 550 640 610 564 q 376 715 490 715 m 524 1122 l 575 1122 l 405 878 l 352 878 l 182 1122 l 234 1122 l 379 910 l 524 1122 z "},"ḝ":{"ha":731,"x_min":82,"x_max":663,"o":"m 380 886 q 238 944 289 886 q 183 1103 187 1003 l 224 1103 q 380 926 235 926 q 492 972 455 926 q 533 1103 528 1017 l 574 1103 q 520 944 571 1002 q 380 886 470 886 m 663 354 l 132 354 q 211 110 136 186 q 426 33 286 33 q 627 70 513 33 l 627 23 q 424 -12 522 -12 q 399 -12 407 -12 l 399 -78 q 482 -108 453 -82 q 511 -178 511 -133 q 478 -252 511 -226 q 385 -278 444 -278 q 320 -271 353 -278 q 265 -251 288 -264 l 265 -212 q 386 -242 324 -242 q 451 -226 430 -242 q 472 -178 472 -210 q 451 -130 472 -145 q 385 -114 429 -114 l 360 -114 l 360 -9 q 82 375 82 25 q 160 665 82 569 q 376 761 238 761 q 589 666 515 761 q 663 375 663 570 l 663 354 m 376 715 q 198 640 261 715 q 132 400 135 564 l 613 400 q 550 640 610 564 q 376 715 490 715 z "},"ê":{"ha":731,"x_min":82,"x_max":663,"o":"m 663 354 l 132 354 q 211 110 136 186 q 426 33 286 33 q 627 70 513 33 l 627 23 q 424 -12 522 -12 q 82 375 82 -12 q 160 665 82 569 q 376 761 238 761 q 589 666 515 761 q 663 375 663 570 l 663 354 m 376 715 q 198 640 261 715 q 132 400 135 564 l 613 400 q 550 640 610 564 q 376 715 490 715 m 571 878 l 519 878 l 379 1090 l 238 878 l 186 878 l 352 1122 l 405 1122 l 571 878 z "},"ế":{"ha":731,"x_min":82,"x_max":722,"o":"m 663 354 l 132 354 q 211 110 136 186 q 426 33 286 33 q 627 70 513 33 l 627 23 q 424 -12 522 -12 q 82 375 82 -12 q 160 665 82 569 q 376 761 238 761 q 589 666 515 761 q 663 375 663 570 l 663 354 m 376 715 q 198 640 261 715 q 132 400 135 564 l 613 400 q 550 640 610 564 q 376 715 490 715 m 664 1297 l 722 1297 l 574 1108 l 526 1108 l 664 1297 m 352 1122 l 405 1122 l 571 878 l 519 878 l 379 1090 l 238 878 l 186 878 l 352 1122 z "},"ệ":{"ha":731,"x_min":82,"x_max":663,"o":"m 663 354 l 132 354 q 211 110 136 186 q 426 33 286 33 q 627 70 513 33 l 627 23 q 424 -12 522 -12 q 82 375 82 -12 q 160 665 82 569 q 376 761 238 761 q 589 666 515 761 q 663 375 663 570 l 663 354 m 376 715 q 198 640 261 715 q 132 400 135 564 l 613 400 q 550 640 610 564 q 376 715 490 715 m 378 -215 q 348 -203 360 -215 q 335 -172 335 -192 q 348 -140 335 -153 q 378 -128 360 -128 q 409 -140 397 -128 q 422 -172 422 -153 q 409 -203 422 -192 q 378 -215 397 -215 m 571 878 l 519 878 l 379 1090 l 238 878 l 186 878 l 352 1122 l 405 1122 l 571 878 z "},"ề":{"ha":731,"x_min":82,"x_max":663,"o":"m 663 354 l 132 354 q 211 110 136 186 q 426 33 286 33 q 627 70 513 33 l 627 23 q 424 -12 522 -12 q 82 375 82 -12 q 160 665 82 569 q 376 761 238 761 q 589 666 515 761 q 663 375 663 570 l 663 354 m 376 715 q 198 640 261 715 q 132 400 135 564 l 613 400 q 550 640 610 564 q 376 715 490 715 m 587 1108 l 540 1108 l 392 1297 l 449 1297 l 587 1108 m 352 1122 l 405 1122 l 571 878 l 519 878 l 379 1090 l 238 878 l 186 878 l 352 1122 z "},"ể":{"ha":731,"x_min":82,"x_max":689,"o":"m 663 354 l 132 354 q 211 110 136 186 q 426 33 286 33 q 627 70 513 33 l 627 23 q 424 -12 522 -12 q 82 375 82 -12 q 160 665 82 569 q 376 761 238 761 q 589 666 515 761 q 663 375 663 570 l 663 354 m 376 715 q 198 640 261 715 q 132 400 135 564 l 613 400 q 550 640 610 564 q 376 715 490 715 m 561 1297 q 657 1277 626 1297 q 689 1223 689 1257 q 673 1182 689 1196 q 625 1156 656 1169 q 586 1135 599 1144 q 571 1108 573 1126 l 526 1108 q 538 1142 527 1128 q 561 1163 548 1155 q 598 1180 575 1170 q 636 1199 624 1190 q 649 1223 649 1208 q 629 1250 649 1240 q 561 1260 610 1260 q 489 1254 521 1260 q 418 1235 456 1249 l 418 1272 q 561 1297 478 1297 m 352 1122 l 405 1122 l 571 878 l 519 878 l 379 1090 l 238 878 l 186 878 l 352 1122 z "},"ễ":{"ha":731,"x_min":82,"x_max":663,"o":"m 663 354 l 132 354 q 211 110 136 186 q 426 33 286 33 q 627 70 513 33 l 627 23 q 424 -12 522 -12 q 82 375 82 -12 q 160 665 82 569 q 376 761 238 761 q 589 666 515 761 q 663 375 663 570 l 663 354 m 376 715 q 198 640 261 715 q 132 400 135 564 l 613 400 q 550 640 610 564 q 376 715 490 715 m 477 1204 q 536 1216 510 1204 q 587 1253 563 1228 l 587 1206 q 477 1164 547 1164 q 426 1171 451 1164 q 368 1192 401 1178 q 317 1210 336 1205 q 280 1216 299 1216 q 221 1204 247 1216 q 171 1167 194 1192 l 171 1214 q 280 1256 210 1256 q 331 1249 306 1256 q 389 1228 356 1242 q 440 1210 421 1215 q 477 1204 458 1204 m 352 1122 l 405 1122 l 571 878 l 519 878 l 379 1090 l 238 878 l 186 878 l 352 1122 z "},"ȅ":{"ha":731,"x_min":82,"x_max":663,"o":"m 663 354 l 132 354 q 211 110 136 186 q 426 33 286 33 q 627 70 513 33 l 627 23 q 424 -12 522 -12 q 82 375 82 -12 q 160 665 82 569 q 376 761 238 761 q 589 666 515 761 q 663 375 663 570 l 663 354 m 376 715 q 198 640 261 715 q 132 400 135 564 l 613 400 q 550 640 610 564 q 376 715 490 715 m 247 878 l 132 1122 l 182 1122 l 292 878 l 247 878 m 466 878 l 351 1122 l 401 1122 l 510 878 l 466 878 z "},"ë":{"ha":731,"x_min":82,"x_max":663,"o":"m 663 354 l 132 354 q 211 110 136 186 q 426 33 286 33 q 627 70 513 33 l 627 23 q 424 -12 522 -12 q 82 375 82 -12 q 160 665 82 569 q 376 761 238 761 q 589 666 515 761 q 663 375 663 570 l 663 354 m 376 715 q 198 640 261 715 q 132 400 135 564 l 613 400 q 550 640 610 564 q 376 715 490 715 m 226 944 q 195 956 207 944 q 183 988 183 968 q 195 1019 183 1007 q 226 1032 207 1032 q 257 1019 244 1032 q 269 988 269 1007 q 257 956 269 968 q 226 944 244 944 m 531 944 q 500 956 513 944 q 488 988 488 968 q 500 1019 488 1007 q 531 1032 513 1032 q 562 1019 550 1032 q 574 988 574 1007 q 562 956 574 968 q 531 944 550 944 z "},"ė":{"ha":731,"x_min":82,"x_max":663,"o":"m 663 354 l 132 354 q 211 110 136 186 q 426 33 286 33 q 627 70 513 33 l 627 23 q 424 -12 522 -12 q 82 375 82 -12 q 160 665 82 569 q 376 761 238 761 q 589 666 515 761 q 663 375 663 570 l 663 354 m 376 715 q 198 640 261 715 q 132 400 135 564 l 613 400 q 550 640 610 564 q 376 715 490 715 m 378 944 q 348 956 360 944 q 335 988 335 968 q 348 1019 335 1007 q 378 1032 360 1032 q 409 1019 397 1032 q 422 988 422 1007 q 409 956 422 968 q 378 944 397 944 z "},"ẹ":{"ha":731,"x_min":82,"x_max":663,"o":"m 663 354 l 132 354 q 211 110 136 186 q 426 33 286 33 q 627 70 513 33 l 627 23 q 424 -12 522 -12 q 82 375 82 -12 q 160 665 82 569 q 376 761 238 761 q 589 666 515 761 q 663 375 663 570 l 663 354 m 376 715 q 198 640 261 715 q 132 400 135 564 l 613 400 q 550 640 610 564 q 376 715 490 715 m 378 -215 q 348 -203 360 -215 q 335 -172 335 -192 q 348 -140 335 -153 q 378 -128 360 -128 q 409 -140 397 -128 q 422 -172 422 -153 q 409 -203 422 -192 q 378 -215 397 -215 z "},"è":{"ha":731,"x_min":82,"x_max":663,"o":"m 663 354 l 132 354 q 211 110 136 186 q 426 33 286 33 q 627 70 513 33 l 627 23 q 424 -12 522 -12 q 82 375 82 -12 q 160 665 82 569 q 376 761 238 761 q 589 666 515 761 q 663 375 663 570 l 663 354 m 376 715 q 198 640 261 715 q 132 400 135 564 l 613 400 q 550 640 610 564 q 376 715 490 715 m 355 878 l 181 1122 l 237 1122 l 402 878 l 355 878 z "},"ẻ":{"ha":731,"x_min":82,"x_max":663,"o":"m 663 354 l 132 354 q 211 110 136 186 q 426 33 286 33 q 627 70 513 33 l 627 23 q 424 -12 522 -12 q 82 375 82 -12 q 160 665 82 569 q 376 761 238 761 q 589 666 515 761 q 663 375 663 570 l 663 354 m 376 715 q 198 640 261 715 q 132 400 135 564 l 613 400 q 550 640 610 564 q 376 715 490 715 m 358 878 q 368 923 358 904 q 392 953 378 941 q 427 979 406 965 q 464 1007 452 995 q 475 1038 475 1019 q 452 1079 475 1066 q 381 1092 429 1092 q 323 1088 353 1092 q 269 1075 292 1083 l 269 1114 q 320 1126 291 1122 q 377 1131 349 1131 q 482 1107 447 1131 q 516 1038 516 1083 q 501 990 516 1008 q 457 954 486 973 q 416 920 430 936 q 401 878 401 905 l 358 878 z "},"ȇ":{"ha":731,"x_min":82,"x_max":663,"o":"m 663 354 l 132 354 q 211 110 136 186 q 426 33 286 33 q 627 70 513 33 l 627 23 q 424 -12 522 -12 q 82 375 82 -12 q 160 665 82 569 q 376 761 238 761 q 589 666 515 761 q 663 375 663 570 l 663 354 m 376 715 q 198 640 261 715 q 132 400 135 564 l 613 400 q 550 640 610 564 q 376 715 490 715 m 183 897 q 236 1056 187 999 q 377 1114 286 1114 q 519 1056 468 1114 q 574 897 571 998 l 533 897 q 490 1027 528 982 q 377 1073 451 1073 q 224 897 234 1073 l 183 897 z "},"ē":{"ha":731,"x_min":82,"x_max":663,"o":"m 663 354 l 132 354 q 211 110 136 186 q 426 33 286 33 q 627 70 513 33 l 627 23 q 424 -12 522 -12 q 82 375 82 -12 q 160 665 82 569 q 376 761 238 761 q 589 666 515 761 q 663 375 663 570 l 663 354 m 376 715 q 198 640 261 715 q 132 400 135 564 l 613 400 q 550 640 610 564 q 376 715 490 715 m 171 968 l 171 1010 l 587 1010 l 587 968 l 171 968 z "},"ḗ":{"ha":731,"x_min":82,"x_max":663,"o":"m 663 354 l 132 354 q 211 110 136 186 q 426 33 286 33 q 627 70 513 33 l 627 23 q 424 -12 522 -12 q 82 375 82 -12 q 160 665 82 569 q 376 761 238 761 q 589 666 515 761 q 663 375 663 570 l 663 354 m 376 715 q 198 640 261 715 q 132 400 135 564 l 613 400 q 550 640 610 564 q 376 715 490 715 m 171 968 l 171 1010 l 587 1010 l 587 968 l 171 968 m 355 1108 l 493 1297 l 550 1297 l 402 1108 l 355 1108 z "},"ḕ":{"ha":731,"x_min":82,"x_max":663,"o":"m 663 354 l 132 354 q 211 110 136 186 q 426 33 286 33 q 627 70 513 33 l 627 23 q 424 -12 522 -12 q 82 375 82 -12 q 160 665 82 569 q 376 761 238 761 q 589 666 515 761 q 663 375 663 570 l 663 354 m 376 715 q 198 640 261 715 q 132 400 135 564 l 613 400 q 550 640 610 564 q 376 715 490 715 m 171 968 l 171 1010 l 587 1010 l 587 968 l 171 968 m 355 1108 l 207 1297 l 265 1297 l 402 1108 l 355 1108 z "},"ę":{"ha":731,"x_min":82,"x_max":663,"o":"m 663 354 l 132 354 q 211 110 136 186 q 426 33 286 33 q 627 70 513 33 l 627 23 q 420 -158 420 -42 q 445 -219 420 -197 q 514 -242 470 -242 q 627 -210 572 -242 l 627 -249 q 573 -270 603 -262 q 517 -278 543 -278 q 417 -246 453 -278 q 381 -160 381 -215 q 405 -77 381 -116 q 470 -10 428 -38 q 424 -12 447 -12 q 82 375 82 -12 q 160 665 82 569 q 376 761 238 761 q 589 666 515 761 q 663 375 663 570 l 663 354 m 376 715 q 198 640 261 715 q 132 400 135 564 l 613 400 q 550 640 610 564 q 376 715 490 715 z "},"ẽ":{"ha":731,"x_min":82,"x_max":663,"o":"m 663 354 l 132 354 q 211 110 136 186 q 426 33 286 33 q 627 70 513 33 l 627 23 q 424 -12 522 -12 q 82 375 82 -12 q 160 665 82 569 q 376 761 238 761 q 589 666 515 761 q 663 375 663 570 l 663 354 m 376 715 q 198 640 261 715 q 132 400 135 564 l 613 400 q 550 640 610 564 q 376 715 490 715 m 477 958 q 426 966 451 958 q 368 987 401 973 q 317 1005 336 999 q 280 1010 299 1010 q 221 999 247 1010 q 171 962 194 987 l 171 1008 q 280 1051 210 1051 q 331 1043 306 1051 q 389 1022 356 1036 q 440 1004 421 1010 q 477 999 458 999 q 536 1010 510 999 q 587 1047 563 1022 l 587 1001 q 477 958 547 958 z "},"ə":{"ha":731,"x_min":68,"x_max":649,"o":"m 307 763 q 649 375 649 763 q 570 85 649 181 q 354 -11 492 -11 q 142 84 216 -11 q 68 375 68 180 l 68 396 l 599 396 q 519 640 594 564 q 304 717 444 717 q 103 680 217 717 l 103 727 q 307 763 209 763 m 354 35 q 532 110 469 35 q 599 350 595 186 l 117 350 q 181 110 121 186 q 354 35 240 35 z "},"f":{"ha":500,"x_min":13,"x_max":531,"o":"m 424 1090 q 309 1070 354 1090 q 242 1003 265 1049 q 220 881 220 958 l 220 750 l 502 750 l 502 706 l 220 706 l 220 0 l 173 0 l 173 706 l 13 706 l 13 750 l 173 750 l 173 878 q 236 1072 173 1008 q 427 1136 299 1136 q 531 1127 477 1136 l 531 1080 q 424 1090 478 1090 z "},"g":{"ha":799,"x_min":82,"x_max":672,"o":"m 349 -319 q 238 -309 298 -319 q 129 -282 177 -299 l 129 -235 q 351 -274 245 -274 q 506 -247 446 -274 q 595 -159 565 -220 q 624 3 624 -99 l 624 83 l 620 83 q 518 13 578 39 q 385 -12 458 -12 q 165 76 248 -12 q 82 360 82 165 q 455 761 82 761 q 672 730 566 761 l 672 8 q 592 -242 672 -165 q 349 -319 513 -319 m 388 33 q 519 62 457 33 q 624 147 582 90 l 624 694 q 451 715 546 715 q 212 630 292 715 q 132 365 132 545 q 388 33 132 33 z "},"ǵ":{"ha":799,"x_min":82,"x_max":672,"o":"m 349 -319 q 238 -309 298 -319 q 129 -282 177 -299 l 129 -235 q 351 -274 245 -274 q 506 -247 446 -274 q 595 -159 565 -220 q 624 3 624 -99 l 624 83 l 620 83 q 518 13 578 39 q 385 -12 458 -12 q 165 76 248 -12 q 82 360 82 165 q 455 761 82 761 q 672 730 566 761 l 672 8 q 592 -242 672 -165 q 349 -319 513 -319 m 388 33 q 519 62 457 33 q 624 147 582 90 l 624 694 q 451 715 546 715 q 212 630 292 715 q 132 365 132 545 q 388 33 132 33 m 388 878 l 553 1122 l 609 1122 l 435 878 l 388 878 z "},"ğ":{"ha":799,"x_min":82,"x_max":672,"o":"m 349 -319 q 238 -309 298 -319 q 129 -282 177 -299 l 129 -235 q 351 -274 245 -274 q 506 -247 446 -274 q 595 -159 565 -220 q 624 3 624 -99 l 624 83 l 620 83 q 518 13 578 39 q 385 -12 458 -12 q 165 76 248 -12 q 82 360 82 165 q 455 761 82 761 q 672 730 566 761 l 672 8 q 592 -242 672 -165 q 349 -319 513 -319 m 388 33 q 519 62 457 33 q 624 147 582 90 l 624 694 q 451 715 546 715 q 212 630 292 715 q 132 365 132 545 q 388 33 132 33 m 413 886 q 270 944 322 886 q 215 1103 219 1003 l 256 1103 q 413 926 267 926 q 524 972 488 926 q 566 1103 561 1017 l 607 1103 q 553 944 603 1002 q 413 886 503 886 z "},"ǧ":{"ha":799,"x_min":82,"x_max":672,"o":"m 349 -319 q 238 -309 298 -319 q 129 -282 177 -299 l 129 -235 q 351 -274 245 -274 q 506 -247 446 -274 q 595 -159 565 -220 q 624 3 624 -99 l 624 83 l 620 83 q 518 13 578 39 q 385 -12 458 -12 q 165 76 248 -12 q 82 360 82 165 q 455 761 82 761 q 672 730 566 761 l 672 8 q 592 -242 672 -165 q 349 -319 513 -319 m 388 33 q 519 62 457 33 q 624 147 582 90 l 624 694 q 451 715 546 715 q 212 630 292 715 q 132 365 132 545 q 388 33 132 33 m 556 1122 l 608 1122 l 438 878 l 385 878 l 215 1122 l 267 1122 l 412 910 l 556 1122 z "},"ĝ":{"ha":799,"x_min":82,"x_max":672,"o":"m 349 -319 q 238 -309 298 -319 q 129 -282 177 -299 l 129 -235 q 351 -274 245 -274 q 506 -247 446 -274 q 595 -159 565 -220 q 624 3 624 -99 l 624 83 l 620 83 q 518 13 578 39 q 385 -12 458 -12 q 165 76 248 -12 q 82 360 82 165 q 455 761 82 761 q 672 730 566 761 l 672 8 q 592 -242 672 -165 q 349 -319 513 -319 m 388 33 q 519 62 457 33 q 624 147 582 90 l 624 694 q 451 715 546 715 q 212 630 292 715 q 132 365 132 545 q 388 33 132 33 m 603 878 l 552 878 l 412 1090 l 271 878 l 219 878 l 385 1122 l 438 1122 l 603 878 z "},"ģ":{"ha":799,"x_min":82,"x_max":672,"o":"m 349 -319 q 238 -309 298 -319 q 129 -282 177 -299 l 129 -235 q 351 -274 245 -274 q 506 -247 446 -274 q 595 -159 565 -220 q 624 3 624 -99 l 624 83 l 620 83 q 518 13 578 39 q 385 -12 458 -12 q 165 76 248 -12 q 82 360 82 165 q 455 761 82 761 q 672 730 566 761 l 672 8 q 592 -242 672 -165 q 349 -319 513 -319 m 388 33 q 519 62 457 33 q 624 147 582 90 l 624 694 q 451 715 546 715 q 212 630 292 715 q 132 365 132 545 q 388 33 132 33 m 411 1032 q 442 1019 430 1032 q 454 988 454 1007 q 443 957 454 969 q 414 944 431 944 q 380 960 392 944 q 368 1004 368 975 q 376 1064 368 1031 q 399 1128 383 1097 l 429 1128 q 406 1032 410 1078 l 411 1032 z "},"ġ":{"ha":799,"x_min":82,"x_max":672,"o":"m 349 -319 q 238 -309 298 -319 q 129 -282 177 -299 l 129 -235 q 351 -274 245 -274 q 506 -247 446 -274 q 595 -159 565 -220 q 624 3 624 -99 l 624 83 l 620 83 q 518 13 578 39 q 385 -12 458 -12 q 165 76 248 -12 q 82 360 82 165 q 455 761 82 761 q 672 730 566 761 l 672 8 q 592 -242 672 -165 q 349 -319 513 -319 m 388 33 q 519 62 457 33 q 624 147 582 90 l 624 694 q 451 715 546 715 q 212 630 292 715 q 132 365 132 545 q 388 33 132 33 m 411 944 q 380 956 392 944 q 368 988 368 968 q 380 1019 368 1007 q 411 1032 392 1032 q 442 1019 430 1032 q 454 988 454 1007 q 442 956 454 968 q 411 944 430 944 z "},"ḡ":{"ha":799,"x_min":82,"x_max":672,"o":"m 349 -319 q 238 -309 298 -319 q 129 -282 177 -299 l 129 -235 q 351 -274 245 -274 q 506 -247 446 -274 q 595 -159 565 -220 q 624 3 624 -99 l 624 83 l 620 83 q 518 13 578 39 q 385 -12 458 -12 q 165 76 248 -12 q 82 360 82 165 q 455 761 82 761 q 672 730 566 761 l 672 8 q 592 -242 672 -165 q 349 -319 513 -319 m 388 33 q 519 62 457 33 q 624 147 582 90 l 624 694 q 451 715 546 715 q 212 630 292 715 q 132 365 132 545 q 388 33 132 33 m 203 968 l 203 1010 l 619 1010 l 619 968 l 203 968 z "},"h":{"ha":810,"x_min":127,"x_max":694,"o":"m 127 1122 l 174 1122 l 174 661 l 178 661 q 299 736 231 710 q 444 761 367 761 q 628 700 562 761 q 694 503 694 638 l 694 0 l 647 0 l 647 502 q 593 665 647 616 q 442 714 540 714 q 297 684 368 714 q 174 592 226 654 l 174 0 l 127 0 l 127 1122 z "},"ħ":{"ha":810,"x_min":10,"x_max":694,"o":"m 444 761 q 628 700 562 761 q 694 503 694 638 l 694 0 l 647 0 l 647 502 q 593 665 647 616 q 442 714 540 714 q 297 684 368 714 q 174 592 226 654 l 174 0 l 127 0 l 127 921 l 10 921 l 10 963 l 127 963 l 127 1122 l 174 1122 l 174 963 l 449 963 l 449 921 l 174 921 l 174 661 l 178 661 q 299 736 231 710 q 444 761 367 761 z "},"ḫ":{"ha":810,"x_min":127,"x_max":694,"o":"m 127 1122 l 174 1122 l 174 661 l 178 661 q 299 736 231 710 q 444 761 367 761 q 628 700 562 761 q 694 503 694 638 l 694 0 l 647 0 l 647 502 q 593 665 647 616 q 442 714 540 714 q 297 684 368 714 q 174 592 226 654 l 174 0 l 127 0 l 127 1122 m 413 -278 q 306 -256 350 -278 q 239 -197 262 -235 q 215 -111 216 -160 l 256 -111 q 298 -204 260 -172 q 413 -237 336 -237 q 566 -111 560 -237 l 607 -111 q 556 -232 606 -187 q 413 -278 506 -278 z "},"ĥ":{"ha":810,"x_min":127,"x_max":694,"o":"m 127 1122 l 174 1122 l 174 661 l 178 661 q 299 736 231 710 q 444 761 367 761 q 628 700 562 761 q 694 503 694 638 l 694 0 l 647 0 l 647 502 q 593 665 647 616 q 442 714 540 714 q 297 684 368 714 q 174 592 226 654 l 174 0 l 127 0 l 127 1122 m 619 1189 l 560 1189 l 412 1347 l 263 1189 l 203 1189 l 385 1378 l 438 1378 l 619 1189 z "},"ḥ":{"ha":810,"x_min":127,"x_max":694,"o":"m 127 1122 l 174 1122 l 174 661 l 178 661 q 299 736 231 710 q 444 761 367 761 q 628 700 562 761 q 694 503 694 638 l 694 0 l 647 0 l 647 502 q 593 665 647 616 q 442 714 540 714 q 297 684 368 714 q 174 592 226 654 l 174 0 l 127 0 l 127 1122 m 411 -215 q 380 -203 392 -215 q 368 -172 368 -192 q 380 -140 368 -153 q 411 -128 392 -128 q 442 -140 430 -128 q 454 -172 454 -153 q 442 -203 454 -192 q 411 -215 430 -215 z "},"i":{"ha":301,"x_min":108,"x_max":194,"o":"m 127 0 l 127 750 l 174 750 l 174 0 l 127 0 m 151 944 q 120 956 132 944 q 108 988 108 968 q 120 1019 108 1007 q 151 1032 132 1032 q 182 1019 169 1032 q 194 988 194 1007 q 182 956 194 968 q 151 944 169 944 z "},"ı":{"ha":301,"x_min":127,"x_max":174,"o":"m 127 0 l 127 750 l 174 750 l 174 0 l 127 0 z "},"í":{"ha":301,"x_min":127,"x_max":349,"o":"m 127 0 l 127 750 l 174 750 l 174 0 l 127 0 m 127 878 l 292 1122 l 349 1122 l 174 878 l 127 878 z "},"ĭ":{"ha":301,"x_min":-45,"x_max":347,"o":"m 127 0 l 127 750 l 174 750 l 174 0 l 127 0 m 152 886 q 10 944 61 886 q -45 1103 -41 1003 l -4 1103 q 152 926 7 926 q 264 972 227 926 q 306 1103 301 1017 l 347 1103 q 293 944 343 1002 q 152 886 242 886 z "},"î":{"ha":301,"x_min":-42,"x_max":343,"o":"m 127 0 l 127 750 l 174 750 l 174 0 l 127 0 m 343 878 l 292 878 l 151 1090 l 10 878 l -42 878 l 124 1122 l 177 1122 l 343 878 z "},"ȉ":{"ha":301,"x_min":-96,"x_max":283,"o":"m 127 0 l 127 750 l 174 750 l 174 0 l 127 0 m 19 878 l -96 1122 l -46 1122 l 64 878 l 19 878 m 238 878 l 124 1122 l 174 1122 l 283 878 l 238 878 z "},"ï":{"ha":301,"x_min":-45,"x_max":347,"o":"m 127 0 l 127 750 l 174 750 l 174 0 l 127 0 m -2 944 q -33 956 -21 944 q -45 988 -45 968 q -33 1019 -45 1007 q -2 1032 -21 1032 q 29 1019 17 1032 q 41 988 41 1007 q 29 956 41 968 q -2 944 17 944 m 303 944 q 273 956 285 944 q 260 988 260 968 q 273 1019 260 1007 q 303 1032 285 1032 q 334 1019 322 1032 q 347 988 347 1007 q 334 956 347 968 q 303 944 322 944 z "},"ḯ":{"ha":301,"x_min":-45,"x_max":347,"o":"m 127 0 l 127 750 l 174 750 l 174 0 l 127 0 m -2 944 q -33 956 -21 944 q -45 988 -45 968 q -33 1019 -45 1007 q -2 1032 -21 1032 q 29 1019 17 1032 q 41 988 41 1007 q 29 956 41 968 q -2 944 17 944 m 303 944 q 273 956 285 944 q 260 988 260 968 q 273 1019 260 1007 q 303 1032 285 1032 q 334 1019 322 1032 q 347 988 347 1007 q 334 956 347 968 q 303 944 322 944 m 127 1108 l 265 1297 l 322 1297 l 174 1108 l 127 1108 z "},"ị":{"ha":301,"x_min":108,"x_max":194,"o":"m 127 0 l 127 750 l 174 750 l 174 0 l 127 0 m 151 944 q 120 956 132 944 q 108 988 108 968 q 120 1019 108 1007 q 151 1032 132 1032 q 182 1019 169 1032 q 194 988 194 1007 q 182 956 194 968 q 151 944 169 944 m 151 -215 q 120 -203 132 -215 q 108 -172 108 -192 q 120 -140 108 -153 q 151 -128 132 -128 q 182 -140 169 -128 q 194 -172 194 -153 q 182 -203 194 -192 q 151 -215 169 -215 z "},"ì":{"ha":301,"x_min":-47,"x_max":174,"o":"m 127 0 l 127 750 l 174 750 l 174 0 l 127 0 m 127 878 l -47 1122 l 9 1122 l 174 878 l 127 878 z "},"ỉ":{"ha":301,"x_min":42,"x_max":288,"o":"m 127 0 l 127 750 l 174 750 l 174 0 l 127 0 m 130 878 q 141 923 131 904 q 164 953 151 941 q 199 979 178 965 q 236 1007 224 995 q 247 1038 247 1019 q 224 1079 247 1066 q 153 1092 201 1092 q 95 1088 125 1092 q 42 1075 65 1083 l 42 1114 q 92 1126 63 1122 q 149 1131 122 1131 q 254 1107 219 1131 q 288 1038 288 1083 q 273 990 288 1008 q 229 954 258 973 q 188 920 202 936 q 173 878 174 905 l 130 878 z "},"ȋ":{"ha":301,"x_min":-45,"x_max":347,"o":"m 127 0 l 127 750 l 174 750 l 174 0 l 127 0 m -45 897 q 9 1056 -41 999 q 149 1114 58 1114 q 292 1056 240 1114 q 347 897 343 998 l 306 897 q 262 1027 300 982 q 149 1073 224 1073 q -4 897 6 1073 l -45 897 z "},"ī":{"ha":301,"x_min":-57,"x_max":359,"o":"m 127 0 l 127 750 l 174 750 l 174 0 l 127 0 m -57 968 l -57 1010 l 359 1010 l 359 968 l -57 968 z "},"į":{"ha":301,"x_min":8,"x_max":253,"o":"m 151 944 q 120 956 132 944 q 108 988 108 968 q 120 1019 108 1007 q 151 1032 132 1032 q 182 1019 169 1032 q 194 988 194 1007 q 182 956 194 968 q 151 944 169 944 m 140 -242 q 253 -210 197 -242 l 253 -249 q 199 -270 229 -262 q 142 -278 169 -278 q 44 -246 80 -278 q 8 -160 8 -215 q 36 -67 8 -110 q 127 15 65 -25 l 127 750 l 174 750 l 174 0 q 76 -76 106 -40 q 47 -158 47 -113 q 72 -219 47 -197 q 140 -242 97 -242 z "},"ĩ":{"ha":301,"x_min":-57,"x_max":359,"o":"m 127 0 l 127 750 l 174 750 l 174 0 l 127 0 m 249 958 q 198 966 223 958 q 140 987 174 973 q 90 1005 108 999 q 52 1010 71 1010 q -7 999 19 1010 q -57 962 -33 987 l -57 1008 q 52 1051 -18 1051 q 103 1043 78 1051 q 161 1022 128 1036 q 212 1004 193 1010 q 249 999 231 999 q 308 1010 282 999 q 359 1047 335 1022 l 359 1001 q 249 958 319 958 z "},"j":{"ha":301,"x_min":-13,"x_max":194,"o":"m -13 -295 q 94 -103 60 -201 q 127 115 127 -6 l 127 750 l 174 750 l 174 119 q 138 -114 174 -12 q 21 -319 101 -217 l -13 -295 m 151 951 q 120 963 132 951 q 108 994 108 974 q 120 1026 108 1013 q 151 1038 132 1038 q 182 1026 169 1038 q 194 994 194 1013 q 182 963 194 974 q 151 951 169 951 z "},"ȷ":{"ha":301,"x_min":-13,"x_max":174,"o":"m -13 -295 q 94 -103 60 -201 q 127 115 127 -6 l 127 750 l 174 750 l 174 119 q 138 -114 174 -12 q 21 -319 101 -217 l -13 -295 z "},"ĵ":{"ha":301,"x_min":-42,"x_max":343,"o":"m -13 -295 q 94 -103 60 -201 q 127 115 127 -6 l 127 750 l 174 750 l 174 119 q 138 -114 174 -12 q 21 -319 101 -217 l -13 -295 m 343 884 l 292 884 l 151 1096 l 10 884 l -42 884 l 124 1128 l 177 1128 l 343 884 z "},"k":{"ha":708,"x_min":127,"x_max":715,"o":"m 656 0 l 335 361 l 174 361 l 174 0 l 127 0 l 127 1122 l 174 1122 l 174 406 l 335 406 l 634 750 l 693 750 l 376 384 l 715 0 l 656 0 z "},"ķ":{"ha":708,"x_min":127,"x_max":715,"o":"m 656 0 l 335 361 l 174 361 l 174 0 l 127 0 l 127 1122 l 174 1122 l 174 406 l 335 406 l 634 750 l 693 750 l 376 384 l 715 0 l 656 0 m 378 -128 q 411 -143 399 -128 q 424 -187 424 -158 q 416 -247 424 -214 q 393 -311 408 -281 l 363 -311 q 385 -215 382 -262 l 381 -215 q 350 -203 362 -215 q 338 -171 338 -190 q 349 -140 338 -152 q 378 -128 360 -128 z "},"ĸ":{"ha":708,"x_min":127,"x_max":715,"o":"m 656 0 l 335 361 l 174 361 l 174 0 l 127 0 l 127 750 l 174 750 l 174 406 l 335 406 l 634 750 l 693 750 l 376 384 l 715 0 l 656 0 z "},"l":{"ha":301,"x_min":127,"x_max":174,"o":"m 127 0 l 127 1122 l 174 1122 l 174 0 l 127 0 z "},"ĺ":{"ha":301,"x_min":127,"x_max":322,"o":"m 127 0 l 127 1122 l 174 1122 l 174 0 l 127 0 m 127 1189 l 265 1378 l 322 1378 l 174 1189 l 127 1189 z "},"ľ":{"ha":301,"x_min":127,"x_max":309,"o":"m 127 0 l 127 1122 l 174 1122 l 174 0 l 127 0 m 252 819 q 265 1122 265 929 l 309 1122 q 284 819 309 947 l 252 819 z "},"ļ":{"ha":301,"x_min":108,"x_max":194,"o":"m 127 0 l 127 1122 l 174 1122 l 174 0 l 127 0 m 148 -128 q 182 -143 169 -128 q 194 -187 194 -158 q 186 -247 194 -214 q 163 -311 178 -281 l 133 -311 q 156 -215 152 -262 l 151 -215 q 120 -203 132 -215 q 108 -171 108 -190 q 119 -140 108 -152 q 148 -128 131 -128 z "},"ŀ":{"ha":301,"x_min":127,"x_max":335,"o":"m 127 0 l 127 1122 l 174 1122 l 174 0 l 127 0 m 292 507 q 261 519 274 507 q 249 550 249 531 q 261 582 249 569 q 292 594 274 594 q 323 582 311 594 q 335 550 335 569 q 323 519 335 531 q 292 507 311 507 z "},"ḷ":{"ha":301,"x_min":108,"x_max":194,"o":"m 127 0 l 127 1122 l 174 1122 l 174 0 l 127 0 m 151 -215 q 120 -203 132 -215 q 108 -172 108 -192 q 120 -140 108 -153 q 151 -128 132 -128 q 182 -140 169 -128 q 194 -172 194 -153 q 182 -203 194 -192 q 151 -215 169 -215 z "},"ǉ":{"ha":603,"x_min":127,"x_max":495,"o":"m 127 0 l 127 1122 l 174 1122 l 174 0 l 127 0 m 288 -295 q 395 -103 362 -201 q 428 115 428 -6 l 428 750 l 476 750 l 476 119 q 439 -114 476 -12 q 322 -319 403 -217 l 288 -295 m 452 951 q 421 963 433 951 q 409 994 409 974 q 421 1026 409 1013 q 452 1038 433 1038 q 483 1026 471 1038 q 495 994 495 1013 q 483 963 495 974 q 452 951 471 951 z "},"ḻ":{"ha":301,"x_min":-33,"x_max":335,"o":"m 127 0 l 127 1122 l 174 1122 l 174 0 l 127 0 m -33 -194 l -33 -153 l 335 -153 l 335 -194 l -33 -194 z "},"ł":{"ha":301,"x_min":10,"x_max":293,"o":"m 293 585 l 174 488 l 174 0 l 127 0 l 127 449 l 38 374 l 10 406 l 127 502 l 127 1122 l 174 1122 l 174 541 l 267 617 l 293 585 z "},"m":{"ha":1197,"x_min":127,"x_max":1081,"o":"m 856 761 q 1021 699 961 761 q 1081 503 1081 638 l 1081 0 l 1033 0 l 1033 501 q 986 665 1033 615 q 853 715 939 715 q 730 686 792 715 q 622 592 667 657 q 630 503 630 553 l 630 0 l 583 0 l 583 501 q 537 665 583 615 q 407 715 491 715 q 281 684 343 715 q 174 590 219 653 l 174 0 l 127 0 l 127 750 l 169 750 l 173 658 l 178 658 q 285 735 225 709 q 411 761 345 761 q 606 646 556 761 q 725 734 660 707 q 856 761 790 761 z "},"ṃ":{"ha":1197,"x_min":127,"x_max":1081,"o":"m 856 761 q 1021 699 961 761 q 1081 503 1081 638 l 1081 0 l 1033 0 l 1033 501 q 986 665 1033 615 q 853 715 939 715 q 730 686 792 715 q 622 592 667 657 q 630 503 630 553 l 630 0 l 583 0 l 583 501 q 537 665 583 615 q 407 715 491 715 q 281 684 343 715 q 174 590 219 653 l 174 0 l 127 0 l 127 750 l 169 750 l 173 658 l 178 658 q 285 735 225 709 q 411 761 345 761 q 606 646 556 761 q 725 734 660 707 q 856 761 790 761 m 606 -215 q 575 -203 588 -215 q 563 -172 563 -192 q 575 -140 563 -153 q 606 -128 588 -128 q 637 -140 625 -128 q 649 -172 649 -153 q 637 -203 649 -192 q 606 -215 625 -215 z "},"n":{"ha":810,"x_min":127,"x_max":694,"o":"m 127 750 l 169 750 l 173 659 l 178 659 q 300 735 232 708 q 442 761 368 761 q 694 499 694 761 l 694 0 l 647 0 l 647 500 q 594 665 647 615 q 442 715 541 715 q 298 686 370 715 q 174 594 226 657 l 174 0 l 127 0 l 127 750 z "},"ń":{"ha":810,"x_min":127,"x_max":694,"o":"m 127 750 l 169 750 l 173 659 l 178 659 q 300 735 232 708 q 442 761 368 761 q 694 499 694 761 l 694 0 l 647 0 l 647 500 q 594 665 647 615 q 442 715 541 715 q 298 686 370 715 q 174 594 226 657 l 174 0 l 127 0 l 127 750 m 388 878 l 553 1122 l 609 1122 l 435 878 l 388 878 z "},"ŉ":{"ha":810,"x_min":10,"x_max":694,"o":"m 127 750 l 169 750 l 173 659 l 178 659 q 300 735 232 708 q 442 761 368 761 q 694 499 694 761 l 694 0 l 647 0 l 647 500 q 594 665 647 615 q 442 715 541 715 q 298 686 370 715 q 174 594 226 657 l 174 0 l 127 0 l 127 750 m 51 1128 q 84 1113 72 1128 q 97 1068 97 1097 q 89 1008 97 1042 q 66 944 81 975 l 35 944 q 58 1040 55 994 l 53 1040 q 23 1053 35 1040 q 10 1085 10 1065 q 22 1116 10 1103 q 51 1128 33 1128 z "},"ň":{"ha":810,"x_min":127,"x_max":694,"o":"m 127 750 l 169 750 l 173 659 l 178 659 q 300 735 232 708 q 442 761 368 761 q 694 499 694 761 l 694 0 l 647 0 l 647 500 q 594 665 647 615 q 442 715 541 715 q 298 686 370 715 q 174 594 226 657 l 174 0 l 127 0 l 127 750 m 556 1122 l 608 1122 l 438 878 l 385 878 l 215 1122 l 267 1122 l 412 910 l 556 1122 z "},"ņ":{"ha":810,"x_min":127,"x_max":694,"o":"m 127 750 l 169 750 l 173 659 l 178 659 q 300 735 232 708 q 442 761 368 761 q 694 499 694 761 l 694 0 l 647 0 l 647 500 q 594 665 647 615 q 442 715 541 715 q 298 686 370 715 q 174 594 226 657 l 174 0 l 127 0 l 127 750 m 408 -128 q 442 -143 430 -128 q 454 -187 454 -158 q 447 -247 454 -214 q 424 -311 439 -281 l 393 -311 q 416 -215 413 -262 l 411 -215 q 380 -203 392 -215 q 368 -171 368 -190 q 380 -140 368 -152 q 408 -128 391 -128 z "},"ṅ":{"ha":810,"x_min":127,"x_max":694,"o":"m 127 750 l 169 750 l 173 659 l 178 659 q 300 735 232 708 q 442 761 368 761 q 694 499 694 761 l 694 0 l 647 0 l 647 500 q 594 665 647 615 q 442 715 541 715 q 298 686 370 715 q 174 594 226 657 l 174 0 l 127 0 l 127 750 m 411 944 q 380 956 392 944 q 368 988 368 968 q 380 1019 368 1007 q 411 1032 392 1032 q 442 1019 430 1032 q 454 988 454 1007 q 442 956 454 968 q 411 944 430 944 z "},"ṇ":{"ha":810,"x_min":127,"x_max":694,"o":"m 127 750 l 169 750 l 173 659 l 178 659 q 300 735 232 708 q 442 761 368 761 q 694 499 694 761 l 694 0 l 647 0 l 647 500 q 594 665 647 615 q 442 715 541 715 q 298 686 370 715 q 174 594 226 657 l 174 0 l 127 0 l 127 750 m 411 -215 q 380 -203 392 -215 q 368 -172 368 -192 q 380 -140 368 -153 q 411 -128 392 -128 q 442 -140 430 -128 q 454 -172 454 -153 q 442 -203 454 -192 q 411 -215 430 -215 z "},"ŋ":{"ha":810,"x_min":127,"x_max":694,"o":"m 506 -295 q 613 -103 580 -201 q 647 115 647 -6 l 647 502 q 593 666 647 616 q 442 715 540 715 q 297 685 368 715 q 174 592 226 655 l 174 0 l 127 0 l 127 750 l 169 750 l 173 659 l 178 659 q 299 735 231 710 q 444 761 367 761 q 628 700 562 761 q 694 503 694 638 l 694 92 q 652 -126 687 -31 q 540 -319 618 -220 l 506 -295 z "},"ǌ":{"ha":1111,"x_min":127,"x_max":1003,"o":"m 127 750 l 169 750 l 173 659 l 178 659 q 300 735 232 708 q 442 761 368 761 q 694 499 694 761 l 694 0 l 647 0 l 647 500 q 594 665 647 615 q 442 715 541 715 q 298 686 370 715 q 174 594 226 657 l 174 0 l 127 0 l 127 750 m 797 -295 q 903 -103 870 -201 q 937 115 937 -6 l 937 750 l 984 750 l 984 119 q 948 -114 984 -12 q 831 -319 911 -217 l 797 -295 m 960 951 q 930 963 942 951 q 917 994 917 974 q 930 1026 917 1013 q 960 1038 942 1038 q 991 1026 979 1038 q 1003 994 1003 1013 q 991 963 1003 974 q 960 951 979 951 z "},"ṉ":{"ha":810,"x_min":127,"x_max":694,"o":"m 127 750 l 169 750 l 173 659 l 178 659 q 300 735 232 708 q 442 761 368 761 q 694 499 694 761 l 694 0 l 647 0 l 647 500 q 594 665 647 615 q 442 715 541 715 q 298 686 370 715 q 174 594 226 657 l 174 0 l 127 0 l 127 750 m 227 -194 l 227 -153 l 595 -153 l 595 -194 l 227 -194 z "},"ñ":{"ha":810,"x_min":127,"x_max":694,"o":"m 127 750 l 169 750 l 173 659 l 178 659 q 300 735 232 708 q 442 761 368 761 q 694 499 694 761 l 694 0 l 647 0 l 647 500 q 594 665 647 615 q 442 715 541 715 q 298 686 370 715 q 174 594 226 657 l 174 0 l 127 0 l 127 750 m 510 958 q 459 966 483 958 q 401 987 434 973 q 350 1005 369 999 q 313 1010 331 1010 q 253 999 280 1010 q 203 962 227 987 l 203 1008 q 313 1051 242 1051 q 364 1043 339 1051 q 422 1022 388 1036 q 472 1004 453 1010 q 510 999 491 999 q 569 1010 542 999 q 619 1047 595 1022 l 619 1001 q 510 958 579 958 z "},"o":{"ha":785,"x_min":82,"x_max":703,"o":"m 393 -12 q 164 82 247 -12 q 82 375 82 176 q 165 666 82 572 q 393 761 248 761 q 622 668 540 761 q 703 375 703 574 q 621 83 703 178 q 393 -12 538 -12 m 393 33 q 586 114 518 33 q 653 374 653 194 q 586 635 653 555 q 393 715 519 715 q 200 636 267 715 q 132 377 132 556 q 200 114 132 195 q 393 33 267 33 z "},"ó":{"ha":785,"x_min":82,"x_max":703,"o":"m 393 -12 q 164 82 247 -12 q 82 375 82 176 q 165 666 82 572 q 393 761 248 761 q 622 668 540 761 q 703 375 703 574 q 621 83 703 178 q 393 -12 538 -12 m 393 33 q 586 114 518 33 q 653 374 653 194 q 586 635 653 555 q 393 715 519 715 q 200 636 267 715 q 132 377 132 556 q 200 114 132 195 q 393 33 267 33 m 369 878 l 535 1122 l 591 1122 l 417 878 l 369 878 z "},"ŏ":{"ha":785,"x_min":82,"x_max":703,"o":"m 393 -12 q 164 82 247 -12 q 82 375 82 176 q 165 666 82 572 q 393 761 248 761 q 622 668 540 761 q 703 375 703 574 q 621 83 703 178 q 393 -12 538 -12 m 393 33 q 586 114 518 33 q 653 374 653 194 q 586 635 653 555 q 393 715 519 715 q 200 636 267 715 q 132 377 132 556 q 200 114 132 195 q 393 33 267 33 m 394 886 q 252 944 303 886 q 197 1103 201 1003 l 238 1103 q 394 926 249 926 q 506 972 469 926 q 548 1103 543 1017 l 589 1103 q 535 944 585 1002 q 394 886 485 886 z "},"ô":{"ha":785,"x_min":82,"x_max":703,"o":"m 393 -12 q 164 82 247 -12 q 82 375 82 176 q 165 666 82 572 q 393 761 248 761 q 622 668 540 761 q 703 375 703 574 q 621 83 703 178 q 393 -12 538 -12 m 393 33 q 586 114 518 33 q 653 374 653 194 q 586 635 653 555 q 393 715 519 715 q 200 636 267 715 q 132 377 132 556 q 200 114 132 195 q 393 33 267 33 m 585 878 l 534 878 l 394 1090 l 253 878 l 201 878 l 367 1122 l 419 1122 l 585 878 z "},"ố":{"ha":785,"x_min":82,"x_max":736,"o":"m 393 -12 q 164 82 247 -12 q 82 375 82 176 q 165 666 82 572 q 393 761 248 761 q 622 668 540 761 q 703 375 703 574 q 621 83 703 178 q 393 -12 538 -12 m 393 33 q 586 114 518 33 q 653 374 653 194 q 586 635 653 555 q 393 715 519 715 q 200 636 267 715 q 132 377 132 556 q 200 114 132 195 q 393 33 267 33 m 678 1297 l 736 1297 l 588 1108 l 541 1108 l 678 1297 m 367 1122 l 419 1122 l 585 878 l 534 878 l 394 1090 l 253 878 l 201 878 l 367 1122 z "},"ộ":{"ha":785,"x_min":82,"x_max":703,"o":"m 393 -12 q 164 82 247 -12 q 82 375 82 176 q 165 666 82 572 q 393 761 248 761 q 622 668 540 761 q 703 375 703 574 q 621 83 703 178 q 393 -12 538 -12 m 393 33 q 586 114 518 33 q 653 374 653 194 q 586 635 653 555 q 393 715 519 715 q 200 636 267 715 q 132 377 132 556 q 200 114 132 195 q 393 33 267 33 m 393 -215 q 362 -203 374 -215 q 350 -172 350 -192 q 362 -140 350 -153 q 393 -128 374 -128 q 424 -140 412 -128 q 436 -172 436 -153 q 424 -203 436 -192 q 393 -215 412 -215 m 585 878 l 534 878 l 394 1090 l 253 878 l 201 878 l 367 1122 l 419 1122 l 585 878 z "},"ồ":{"ha":785,"x_min":82,"x_max":703,"o":"m 393 -12 q 164 82 247 -12 q 82 375 82 176 q 165 666 82 572 q 393 761 248 761 q 622 668 540 761 q 703 375 703 574 q 621 83 703 178 q 393 -12 538 -12 m 393 33 q 586 114 518 33 q 653 374 653 194 q 586 635 653 555 q 393 715 519 715 q 200 636 267 715 q 132 377 132 556 q 200 114 132 195 q 393 33 267 33 m 601 1108 l 554 1108 l 406 1297 l 464 1297 l 601 1108 m 367 1122 l 419 1122 l 585 878 l 534 878 l 394 1090 l 253 878 l 201 878 l 367 1122 z "},"ổ":{"ha":785,"x_min":82,"x_max":703,"o":"m 393 -12 q 164 82 247 -12 q 82 375 82 176 q 165 666 82 572 q 393 761 248 761 q 622 668 540 761 q 703 375 703 574 q 621 83 703 178 q 393 -12 538 -12 m 393 33 q 586 114 518 33 q 653 374 653 194 q 586 635 653 555 q 393 715 519 715 q 200 636 267 715 q 132 377 132 556 q 200 114 132 195 q 393 33 267 33 m 576 1297 q 672 1277 640 1297 q 703 1223 703 1257 q 687 1182 703 1196 q 640 1156 671 1169 q 600 1135 613 1144 q 585 1108 588 1126 l 541 1108 q 552 1142 542 1128 q 576 1163 563 1155 q 613 1180 590 1170 q 651 1199 638 1190 q 663 1223 663 1208 q 644 1250 663 1240 q 576 1260 624 1260 q 503 1254 535 1260 q 433 1235 471 1249 l 433 1272 q 576 1297 493 1297 m 367 1122 l 419 1122 l 585 878 l 534 878 l 394 1090 l 253 878 l 201 878 l 367 1122 z "},"ỗ":{"ha":785,"x_min":82,"x_max":703,"o":"m 393 -12 q 164 82 247 -12 q 82 375 82 176 q 165 666 82 572 q 393 761 248 761 q 622 668 540 761 q 703 375 703 574 q 621 83 703 178 q 393 -12 538 -12 m 393 33 q 586 114 518 33 q 653 374 653 194 q 586 635 653 555 q 393 715 519 715 q 200 636 267 715 q 132 377 132 556 q 200 114 132 195 q 393 33 267 33 m 492 1204 q 551 1216 524 1204 q 601 1253 577 1228 l 601 1206 q 492 1164 561 1164 q 441 1171 465 1164 q 383 1192 416 1178 q 332 1210 351 1205 q 294 1216 313 1216 q 235 1204 262 1216 q 185 1167 209 1192 l 185 1214 q 294 1256 224 1256 q 345 1249 321 1256 q 403 1228 370 1242 q 454 1210 435 1215 q 492 1204 473 1204 m 367 1122 l 419 1122 l 585 878 l 534 878 l 394 1090 l 253 878 l 201 878 l 367 1122 z "},"ȍ":{"ha":785,"x_min":82,"x_max":703,"o":"m 393 -12 q 164 82 247 -12 q 82 375 82 176 q 165 666 82 572 q 393 761 248 761 q 622 668 540 761 q 703 375 703 574 q 621 83 703 178 q 393 -12 538 -12 m 393 33 q 586 114 518 33 q 653 374 653 194 q 586 635 653 555 q 393 715 519 715 q 200 636 267 715 q 132 377 132 556 q 200 114 132 195 q 393 33 267 33 m 261 878 l 147 1122 l 197 1122 l 306 878 l 261 878 m 481 878 l 366 1122 l 416 1122 l 525 878 l 481 878 z "},"ö":{"ha":785,"x_min":82,"x_max":703,"o":"m 393 -12 q 164 82 247 -12 q 82 375 82 176 q 165 666 82 572 q 393 761 248 761 q 622 668 540 761 q 703 375 703 574 q 621 83 703 178 q 393 -12 538 -12 m 393 33 q 586 114 518 33 q 653 374 653 194 q 586 635 653 555 q 393 715 519 715 q 200 636 267 715 q 132 377 132 556 q 200 114 132 195 q 393 33 267 33 m 240 944 q 209 956 222 944 q 197 988 197 968 q 209 1019 197 1007 q 240 1032 222 1032 q 271 1019 259 1032 q 283 988 283 1007 q 271 956 283 968 q 240 944 259 944 m 546 944 q 515 956 527 944 q 503 988 503 968 q 515 1019 503 1007 q 546 1032 527 1032 q 577 1019 565 1032 q 589 988 589 1007 q 577 956 589 968 q 546 944 565 944 z "},"ȫ":{"ha":785,"x_min":82,"x_max":703,"o":"m 393 -12 q 164 82 247 -12 q 82 375 82 176 q 165 666 82 572 q 393 761 248 761 q 622 668 540 761 q 703 375 703 574 q 621 83 703 178 q 393 -12 538 -12 m 393 33 q 586 114 518 33 q 653 374 653 194 q 586 635 653 555 q 393 715 519 715 q 200 636 267 715 q 132 377 132 556 q 200 114 132 195 q 393 33 267 33 m 240 944 q 209 956 222 944 q 197 988 197 968 q 209 1019 197 1007 q 240 1032 222 1032 q 271 1019 259 1032 q 283 988 283 1007 q 271 956 283 968 q 240 944 259 944 m 546 944 q 515 956 527 944 q 503 988 503 968 q 515 1019 503 1007 q 546 1032 527 1032 q 577 1019 565 1032 q 589 988 589 1007 q 577 956 589 968 q 546 944 565 944 m 185 1151 l 185 1193 l 601 1193 l 601 1151 l 185 1151 z "},"ȱ":{"ha":785,"x_min":82,"x_max":703,"o":"m 393 -12 q 164 82 247 -12 q 82 375 82 176 q 165 666 82 572 q 393 761 248 761 q 622 668 540 761 q 703 375 703 574 q 621 83 703 178 q 393 -12 538 -12 m 393 33 q 586 114 518 33 q 653 374 653 194 q 586 635 653 555 q 393 715 519 715 q 200 636 267 715 q 132 377 132 556 q 200 114 132 195 q 393 33 267 33 m 393 944 q 362 956 374 944 q 350 988 350 968 q 362 1019 350 1007 q 393 1032 374 1032 q 424 1019 412 1032 q 436 988 436 1007 q 424 956 436 968 q 393 944 412 944 m 185 1151 l 185 1193 l 601 1193 l 601 1151 l 185 1151 z "},"ọ":{"ha":785,"x_min":82,"x_max":703,"o":"m 393 -12 q 164 82 247 -12 q 82 375 82 176 q 165 666 82 572 q 393 761 248 761 q 622 668 540 761 q 703 375 703 574 q 621 83 703 178 q 393 -12 538 -12 m 393 33 q 586 114 518 33 q 653 374 653 194 q 586 635 653 555 q 393 715 519 715 q 200 636 267 715 q 132 377 132 556 q 200 114 132 195 q 393 33 267 33 m 393 -215 q 362 -203 374 -215 q 350 -172 350 -192 q 362 -140 350 -153 q 393 -128 374 -128 q 424 -140 412 -128 q 436 -172 436 -153 q 424 -203 436 -192 q 393 -215 412 -215 z "},"ò":{"ha":785,"x_min":82,"x_max":703,"o":"m 393 -12 q 164 82 247 -12 q 82 375 82 176 q 165 666 82 572 q 393 761 248 761 q 622 668 540 761 q 703 375 703 574 q 621 83 703 178 q 393 -12 538 -12 m 393 33 q 586 114 518 33 q 653 374 653 194 q 586 635 653 555 q 393 715 519 715 q 200 636 267 715 q 132 377 132 556 q 200 114 132 195 q 393 33 267 33 m 369 878 l 195 1122 l 251 1122 l 417 878 l 369 878 z "},"ỏ":{"ha":785,"x_min":82,"x_max":703,"o":"m 393 -12 q 164 82 247 -12 q 82 375 82 176 q 165 666 82 572 q 393 761 248 761 q 622 668 540 761 q 703 375 703 574 q 621 83 703 178 q 393 -12 538 -12 m 393 33 q 586 114 518 33 q 653 374 653 194 q 586 635 653 555 q 393 715 519 715 q 200 636 267 715 q 132 377 132 556 q 200 114 132 195 q 393 33 267 33 m 372 878 q 383 923 373 904 q 407 953 393 941 q 442 979 420 965 q 478 1007 467 995 q 490 1038 490 1019 q 467 1079 490 1066 q 395 1092 444 1092 q 337 1088 367 1092 q 284 1075 307 1083 l 284 1114 q 335 1126 306 1122 q 392 1131 364 1131 q 496 1107 462 1131 q 531 1038 531 1083 q 516 990 531 1008 q 472 954 501 973 q 430 920 444 936 q 415 878 416 905 l 372 878 z "},"ơ":{"ha":785,"x_min":82,"x_max":717,"o":"m 574 710 q 672 581 640 664 q 703 375 703 498 q 621 83 703 178 q 393 -12 538 -12 q 164 82 247 -12 q 82 375 82 176 q 165 666 82 572 q 393 761 248 761 q 474 757 426 761 q 526 754 512 754 q 633 783 596 754 q 671 871 671 812 q 667 920 671 898 q 653 969 663 942 l 699 969 q 713 922 708 944 q 717 869 717 899 q 680 762 717 803 q 574 710 642 721 m 393 33 q 586 114 518 33 q 653 374 653 194 q 586 635 653 555 q 393 715 519 715 q 200 636 267 715 q 132 377 132 556 q 200 114 132 195 q 393 33 267 33 z "},"ớ":{"ha":785,"x_min":82,"x_max":717,"o":"m 574 710 q 672 581 640 664 q 703 375 703 498 q 621 83 703 178 q 393 -12 538 -12 q 164 82 247 -12 q 82 375 82 176 q 165 666 82 572 q 393 761 248 761 q 474 757 426 761 q 526 754 512 754 q 633 783 596 754 q 671 871 671 812 q 667 920 671 898 q 653 969 663 942 l 699 969 q 713 922 708 944 q 717 869 717 899 q 680 762 717 803 q 574 710 642 721 m 393 33 q 586 114 518 33 q 653 374 653 194 q 586 635 653 555 q 393 715 519 715 q 200 636 267 715 q 132 377 132 556 q 200 114 132 195 q 393 33 267 33 m 366 878 l 531 1122 l 588 1122 l 413 878 l 366 878 z "},"ợ":{"ha":785,"x_min":82,"x_max":717,"o":"m 574 710 q 672 581 640 664 q 703 375 703 498 q 621 83 703 178 q 393 -12 538 -12 q 164 82 247 -12 q 82 375 82 176 q 165 666 82 572 q 393 761 248 761 q 474 757 426 761 q 526 754 512 754 q 633 783 596 754 q 671 871 671 812 q 667 920 671 898 q 653 969 663 942 l 699 969 q 713 922 708 944 q 717 869 717 899 q 680 762 717 803 q 574 710 642 721 m 393 33 q 586 114 518 33 q 653 374 653 194 q 586 635 653 555 q 393 715 519 715 q 200 636 267 715 q 132 377 132 556 q 200 114 132 195 q 393 33 267 33 m 390 -215 q 359 -203 371 -215 q 347 -172 347 -192 q 359 -140 347 -153 q 390 -128 371 -128 q 420 -140 408 -128 q 433 -172 433 -153 q 420 -203 433 -192 q 390 -215 408 -215 z "},"ờ":{"ha":785,"x_min":82,"x_max":717,"o":"m 574 710 q 672 581 640 664 q 703 375 703 498 q 621 83 703 178 q 393 -12 538 -12 q 164 82 247 -12 q 82 375 82 176 q 165 666 82 572 q 393 761 248 761 q 474 757 426 761 q 526 754 512 754 q 633 783 596 754 q 671 871 671 812 q 667 920 671 898 q 653 969 663 942 l 699 969 q 713 922 708 944 q 717 869 717 899 q 680 762 717 803 q 574 710 642 721 m 393 33 q 586 114 518 33 q 653 374 653 194 q 586 635 653 555 q 393 715 519 715 q 200 636 267 715 q 132 377 132 556 q 200 114 132 195 q 393 33 267 33 m 366 878 l 192 1122 l 248 1122 l 413 878 l 366 878 z "},"ở":{"ha":785,"x_min":82,"x_max":717,"o":"m 574 710 q 672 581 640 664 q 703 375 703 498 q 621 83 703 178 q 393 -12 538 -12 q 164 82 247 -12 q 82 375 82 176 q 165 666 82 572 q 393 761 248 761 q 474 757 426 761 q 526 754 512 754 q 633 783 596 754 q 671 871 671 812 q 667 920 671 898 q 653 969 663 942 l 699 969 q 713 922 708 944 q 717 869 717 899 q 680 762 717 803 q 574 710 642 721 m 393 33 q 586 114 518 33 q 653 374 653 194 q 586 635 653 555 q 393 715 519 715 q 200 636 267 715 q 132 377 132 556 q 200 114 132 195 q 393 33 267 33 m 369 878 q 380 923 369 904 q 403 953 390 941 q 438 979 417 965 q 475 1007 463 995 q 486 1038 486 1019 q 463 1079 486 1066 q 392 1092 440 1092 q 334 1088 364 1092 q 281 1075 303 1083 l 281 1114 q 331 1126 302 1122 q 388 1131 360 1131 q 493 1107 458 1131 q 527 1038 527 1083 q 512 990 527 1008 q 468 954 497 973 q 427 920 441 936 q 412 878 413 905 l 369 878 z "},"ỡ":{"ha":785,"x_min":82,"x_max":717,"o":"m 291 1010 q 232 999 258 1010 q 182 962 206 987 l 182 1008 q 291 1051 221 1051 q 342 1043 317 1051 q 400 1022 367 1036 q 451 1004 432 1010 q 488 999 469 999 q 547 1010 521 999 q 598 1047 574 1022 l 598 1001 q 488 958 558 958 q 437 966 462 958 q 379 987 413 973 q 328 1005 347 999 q 291 1010 310 1010 m 574 710 q 672 581 640 664 q 703 375 703 498 q 621 83 703 178 q 393 -12 538 -12 q 164 82 247 -12 q 82 375 82 176 q 165 666 82 572 q 393 761 248 761 q 474 757 426 761 q 526 754 512 754 q 633 783 596 754 q 671 871 671 812 q 667 920 671 898 q 653 969 663 942 l 699 969 q 713 922 708 944 q 717 869 717 899 q 680 762 717 803 q 574 710 642 721 m 393 33 q 586 114 518 33 q 653 374 653 194 q 586 635 653 555 q 393 715 519 715 q 200 636 267 715 q 132 377 132 556 q 200 114 132 195 q 393 33 267 33 z "},"ő":{"ha":785,"x_min":82,"x_max":703,"o":"m 393 -12 q 164 82 247 -12 q 82 375 82 176 q 165 666 82 572 q 393 761 248 761 q 622 668 540 761 q 703 375 703 574 q 621 83 703 178 q 393 -12 538 -12 m 393 33 q 586 114 518 33 q 653 374 653 194 q 586 635 653 555 q 393 715 519 715 q 200 636 267 715 q 132 377 132 556 q 200 114 132 195 q 393 33 267 33 m 264 878 l 374 1122 l 421 1122 l 306 878 l 264 878 m 481 878 l 590 1122 l 638 1122 l 523 878 l 481 878 z "},"ȏ":{"ha":785,"x_min":82,"x_max":703,"o":"m 393 -12 q 164 82 247 -12 q 82 375 82 176 q 165 666 82 572 q 393 761 248 761 q 622 668 540 761 q 703 375 703 574 q 621 83 703 178 q 393 -12 538 -12 m 393 33 q 586 114 518 33 q 653 374 653 194 q 586 635 653 555 q 393 715 519 715 q 200 636 267 715 q 132 377 132 556 q 200 114 132 195 q 393 33 267 33 m 197 897 q 251 1056 201 999 q 392 1114 301 1114 q 534 1056 483 1114 q 589 897 585 998 l 548 897 q 504 1027 542 982 q 392 1073 466 1073 q 238 897 249 1073 l 197 897 z "},"ō":{"ha":785,"x_min":82,"x_max":703,"o":"m 393 -12 q 164 82 247 -12 q 82 375 82 176 q 165 666 82 572 q 393 761 248 761 q 622 668 540 761 q 703 375 703 574 q 621 83 703 178 q 393 -12 538 -12 m 393 33 q 586 114 518 33 q 653 374 653 194 q 586 635 653 555 q 393 715 519 715 q 200 636 267 715 q 132 377 132 556 q 200 114 132 195 q 393 33 267 33 m 185 968 l 185 1010 l 601 1010 l 601 968 l 185 968 z "},"ṓ":{"ha":785,"x_min":82,"x_max":703,"o":"m 393 -12 q 164 82 247 -12 q 82 375 82 176 q 165 666 82 572 q 393 761 248 761 q 622 668 540 761 q 703 375 703 574 q 621 83 703 178 q 393 -12 538 -12 m 393 33 q 586 114 518 33 q 653 374 653 194 q 586 635 653 555 q 393 715 519 715 q 200 636 267 715 q 132 377 132 556 q 200 114 132 195 q 393 33 267 33 m 185 968 l 185 1010 l 601 1010 l 601 968 l 185 968 m 369 1108 l 508 1297 l 565 1297 l 417 1108 l 369 1108 z "},"ṑ":{"ha":785,"x_min":82,"x_max":703,"o":"m 393 -12 q 164 82 247 -12 q 82 375 82 176 q 165 666 82 572 q 393 761 248 761 q 622 668 540 761 q 703 375 703 574 q 621 83 703 178 q 393 -12 538 -12 m 393 33 q 586 114 518 33 q 653 374 653 194 q 586 635 653 555 q 393 715 519 715 q 200 636 267 715 q 132 377 132 556 q 200 114 132 195 q 393 33 267 33 m 185 968 l 185 1010 l 601 1010 l 601 968 l 185 968 m 369 1108 l 222 1297 l 279 1297 l 417 1108 l 369 1108 z "},"ǫ":{"ha":785,"x_min":82,"x_max":703,"o":"m 490 0 q 365 -67 401 -25 q 328 -158 328 -110 q 353 -220 328 -198 q 422 -242 378 -242 q 521 -217 473 -242 l 534 -251 q 480 -271 509 -264 q 424 -278 451 -278 q 326 -247 363 -278 q 289 -160 289 -215 q 378 -12 289 -68 q 160 87 238 -8 q 82 375 82 181 q 165 666 82 572 q 393 761 248 761 q 622 668 540 761 q 703 375 703 574 q 648 121 703 214 q 490 0 592 28 m 132 377 q 200 114 132 195 q 393 33 267 33 q 586 114 518 33 q 653 374 653 194 q 586 635 653 555 q 393 715 519 715 q 200 636 267 715 q 132 377 132 556 z "},"ø":{"ha":785,"x_min":82,"x_max":703,"o":"m 630 657 q 703 375 703 560 q 621 83 703 178 q 393 -12 538 -12 q 185 60 262 -12 l 132 -11 l 97 15 l 156 93 q 82 375 82 190 q 165 666 82 572 q 393 761 248 761 q 601 690 523 761 l 653 761 l 688 735 l 630 657 m 393 715 q 200 636 267 715 q 132 377 132 556 q 185 134 132 220 l 572 651 q 393 715 508 715 m 393 33 q 586 114 518 33 q 653 374 653 194 q 599 617 653 532 l 213 99 q 393 33 278 33 z "},"ǿ":{"ha":785,"x_min":82,"x_max":703,"o":"m 630 657 q 703 375 703 560 q 621 83 703 178 q 393 -12 538 -12 q 185 60 262 -12 l 132 -11 l 97 15 l 156 93 q 82 375 82 190 q 165 666 82 572 q 393 761 248 761 q 601 690 523 761 l 653 761 l 688 735 l 630 657 m 393 715 q 200 636 267 715 q 132 377 132 556 q 185 134 132 220 l 572 651 q 393 715 508 715 m 393 33 q 586 114 518 33 q 653 374 653 194 q 599 617 653 532 l 213 99 q 393 33 278 33 m 363 878 l 528 1122 l 585 1122 l 410 878 l 363 878 z "},"õ":{"ha":785,"x_min":82,"x_max":703,"o":"m 393 -12 q 164 82 247 -12 q 82 375 82 176 q 165 666 82 572 q 393 761 248 761 q 622 668 540 761 q 703 375 703 574 q 621 83 703 178 q 393 -12 538 -12 m 393 33 q 586 114 518 33 q 653 374 653 194 q 586 635 653 555 q 393 715 519 715 q 200 636 267 715 q 132 377 132 556 q 200 114 132 195 q 393 33 267 33 m 492 958 q 441 966 465 958 q 383 987 416 973 q 332 1005 351 999 q 294 1010 313 1010 q 235 999 262 1010 q 185 962 209 987 l 185 1008 q 294 1051 224 1051 q 345 1043 321 1051 q 403 1022 370 1036 q 454 1004 435 1010 q 492 999 473 999 q 551 1010 524 999 q 601 1047 577 1022 l 601 1001 q 492 958 561 958 z "},"ṍ":{"ha":785,"x_min":82,"x_max":703,"o":"m 393 -12 q 164 82 247 -12 q 82 375 82 176 q 165 666 82 572 q 393 761 248 761 q 622 668 540 761 q 703 375 703 574 q 621 83 703 178 q 393 -12 538 -12 m 393 33 q 586 114 518 33 q 653 374 653 194 q 586 635 653 555 q 393 715 519 715 q 200 636 267 715 q 132 377 132 556 q 200 114 132 195 q 393 33 267 33 m 492 958 q 441 966 465 958 q 383 987 416 973 q 332 1005 351 999 q 294 1010 313 1010 q 235 999 262 1010 q 185 962 209 987 l 185 1008 q 294 1051 224 1051 q 345 1043 321 1051 q 403 1022 370 1036 q 454 1004 435 1010 q 492 999 473 999 q 551 1010 524 999 q 601 1047 577 1022 l 601 1001 q 492 958 561 958 m 369 1108 l 508 1297 l 565 1297 l 417 1108 l 369 1108 z "},"ṏ":{"ha":785,"x_min":82,"x_max":703,"o":"m 393 -12 q 164 82 247 -12 q 82 375 82 176 q 165 666 82 572 q 393 761 248 761 q 622 668 540 761 q 703 375 703 574 q 621 83 703 178 q 393 -12 538 -12 m 393 33 q 586 114 518 33 q 653 374 653 194 q 586 635 653 555 q 393 715 519 715 q 200 636 267 715 q 132 377 132 556 q 200 114 132 195 q 393 33 267 33 m 492 958 q 441 966 465 958 q 383 987 416 973 q 332 1005 351 999 q 294 1010 313 1010 q 235 999 262 1010 q 185 962 209 987 l 185 1008 q 294 1051 224 1051 q 345 1043 321 1051 q 403 1022 370 1036 q 454 1004 435 1010 q 492 999 473 999 q 551 1010 524 999 q 601 1047 577 1022 l 601 1001 q 492 958 561 958 m 240 1128 q 209 1140 222 1128 q 197 1171 197 1151 q 209 1203 197 1190 q 240 1215 222 1215 q 271 1203 259 1215 q 283 1171 283 1190 q 271 1140 283 1151 q 240 1128 259 1128 m 546 1128 q 515 1140 527 1128 q 503 1171 503 1151 q 515 1203 503 1190 q 546 1215 527 1215 q 577 1203 565 1215 q 589 1171 589 1190 q 577 1140 589 1151 q 546 1128 565 1128 z "},"ȭ":{"ha":785,"x_min":82,"x_max":703,"o":"m 393 -12 q 164 82 247 -12 q 82 375 82 176 q 165 666 82 572 q 393 761 248 761 q 622 668 540 761 q 703 375 703 574 q 621 83 703 178 q 393 -12 538 -12 m 393 33 q 586 114 518 33 q 653 374 653 194 q 586 635 653 555 q 393 715 519 715 q 200 636 267 715 q 132 377 132 556 q 200 114 132 195 q 393 33 267 33 m 492 958 q 441 966 465 958 q 383 987 416 973 q 332 1005 351 999 q 294 1010 313 1010 q 235 999 262 1010 q 185 962 209 987 l 185 1008 q 294 1051 224 1051 q 345 1043 321 1051 q 403 1022 370 1036 q 454 1004 435 1010 q 492 999 473 999 q 551 1010 524 999 q 601 1047 577 1022 l 601 1001 q 492 958 561 958 m 185 1151 l 185 1193 l 601 1193 l 601 1151 l 185 1151 z "},"œ":{"ha":1291,"x_min":82,"x_max":1223,"o":"m 1223 354 l 698 354 q 777 110 702 187 q 990 33 851 33 q 1188 70 1077 33 l 1188 23 q 987 -12 1085 -12 q 672 204 737 -12 q 569 41 642 94 q 390 -12 497 -12 q 164 82 246 -12 q 82 375 82 176 q 165 666 82 572 q 390 761 247 761 q 570 709 498 761 q 673 547 642 657 q 768 708 701 655 q 939 762 836 762 q 1149 666 1076 762 q 1223 377 1223 571 l 1223 354 m 939 716 q 764 640 826 716 q 698 400 701 564 l 1174 400 q 1111 641 1170 565 q 939 716 1051 716 m 390 33 q 581 114 514 33 q 648 374 648 194 q 581 635 648 555 q 390 715 514 715 q 199 635 267 715 q 132 377 132 556 q 199 114 132 195 q 390 33 267 33 z "},"p":{"ha":799,"x_min":127,"x_max":717,"o":"m 127 750 l 169 750 l 174 662 l 178 662 q 278 735 219 708 q 408 761 338 761 q 633 672 549 761 q 717 389 717 583 q 621 87 717 186 q 335 -12 526 -12 q 174 2 262 -12 l 174 -306 l 127 -306 l 127 750 m 338 33 q 585 118 504 33 q 667 383 667 203 q 598 639 667 563 q 406 715 528 715 q 277 686 338 715 q 174 595 217 657 l 174 53 q 252 39 208 44 q 338 33 295 33 z "},"þ":{"ha":799,"x_min":127,"x_max":717,"o":"m 127 1122 l 174 1122 l 174 664 l 178 664 q 280 735 220 709 q 413 761 340 761 q 634 672 551 761 q 717 389 717 583 q 621 87 717 186 q 335 -12 526 -12 q 174 2 262 -12 l 174 -306 l 127 -306 l 127 1122 m 338 33 q 585 118 504 33 q 667 383 667 203 q 598 639 667 562 q 409 715 529 715 q 278 686 340 715 q 174 597 217 657 l 174 53 q 252 39 208 44 q 338 33 295 33 z "},"q":{"ha":799,"x_min":82,"x_max":672,"o":"m 624 83 l 620 83 q 518 13 578 39 q 385 -12 458 -12 q 165 76 248 -12 q 82 360 82 165 q 455 761 82 761 q 672 730 566 761 l 672 -306 l 624 -306 l 624 83 m 388 33 q 519 62 457 33 q 624 147 582 90 l 624 694 q 451 715 546 715 q 212 630 292 715 q 132 365 132 545 q 388 33 132 33 z "},"r":{"ha":505,"x_min":127,"x_max":494,"o":"m 127 750 l 169 750 l 173 648 l 178 648 q 290 727 223 698 q 426 756 358 756 q 494 750 463 756 l 494 703 q 426 707 468 707 q 290 675 360 707 q 174 583 219 644 l 174 0 l 127 0 l 127 750 z "},"ŕ":{"ha":505,"x_min":127,"x_max":504,"o":"m 127 750 l 169 750 l 173 648 l 178 648 q 290 727 223 698 q 426 756 358 756 q 494 750 463 756 l 494 703 q 426 707 468 707 q 290 675 360 707 q 174 583 219 644 l 174 0 l 127 0 l 127 750 m 283 878 l 448 1122 l 504 1122 l 330 878 l 283 878 z "},"ř":{"ha":505,"x_min":110,"x_max":503,"o":"m 127 750 l 169 750 l 173 648 l 178 648 q 290 727 223 698 q 426 756 358 756 q 494 750 463 756 l 494 703 q 426 707 468 707 q 290 675 360 707 q 174 583 219 644 l 174 0 l 127 0 l 127 750 m 451 1122 l 503 1122 l 333 878 l 280 878 l 110 1122 l 162 1122 l 307 910 l 451 1122 z "},"ŗ":{"ha":505,"x_min":108,"x_max":494,"o":"m 127 750 l 169 750 l 173 648 l 178 648 q 290 727 223 698 q 426 756 358 756 q 494 750 463 756 l 494 703 q 426 707 468 707 q 290 675 360 707 q 174 583 219 644 l 174 0 l 127 0 l 127 750 m 148 -128 q 182 -143 169 -128 q 194 -187 194 -158 q 186 -247 194 -214 q 163 -311 178 -281 l 133 -311 q 156 -215 152 -262 l 151 -215 q 120 -203 132 -215 q 108 -171 108 -190 q 119 -140 108 -152 q 148 -128 131 -128 z "},"ȑ":{"ha":505,"x_min":60,"x_max":494,"o":"m 127 750 l 169 750 l 173 648 l 178 648 q 290 727 223 698 q 426 756 358 756 q 494 750 463 756 l 494 703 q 426 707 468 707 q 290 675 360 707 q 174 583 219 644 l 174 0 l 127 0 l 127 750 m 174 878 l 60 1122 l 110 1122 l 219 878 l 174 878 m 394 878 l 279 1122 l 329 1122 l 438 878 l 394 878 z "},"ṛ":{"ha":505,"x_min":108,"x_max":494,"o":"m 127 750 l 169 750 l 173 648 l 178 648 q 290 727 223 698 q 426 756 358 756 q 494 750 463 756 l 494 703 q 426 707 468 707 q 290 675 360 707 q 174 583 219 644 l 174 0 l 127 0 l 127 750 m 151 -215 q 120 -203 132 -215 q 108 -172 108 -192 q 120 -140 108 -153 q 151 -128 132 -128 q 182 -140 169 -128 q 194 -172 194 -153 q 182 -203 194 -192 q 151 -215 169 -215 z "},"ȓ":{"ha":505,"x_min":110,"x_max":502,"o":"m 127 750 l 169 750 l 173 648 l 178 648 q 290 727 223 698 q 426 756 358 756 q 494 750 463 756 l 494 703 q 426 707 468 707 q 290 675 360 707 q 174 583 219 644 l 174 0 l 127 0 l 127 750 m 110 897 q 164 1056 115 999 q 305 1114 214 1114 q 447 1056 396 1114 q 502 897 499 998 l 461 897 q 417 1027 456 982 q 305 1073 379 1073 q 151 897 162 1073 l 110 897 z "},"ṟ":{"ha":505,"x_min":-33,"x_max":494,"o":"m 127 750 l 169 750 l 173 648 l 178 648 q 290 727 223 698 q 426 756 358 756 q 494 750 463 756 l 494 703 q 426 707 468 707 q 290 675 360 707 q 174 583 219 644 l 174 0 l 127 0 l 127 750 m -33 -194 l -33 -153 l 335 -153 l 335 -194 l -33 -194 z "},"s":{"ha":640,"x_min":82,"x_max":579,"o":"m 297 -12 q 190 -6 240 -12 q 92 17 140 1 l 92 65 q 199 40 151 47 q 301 33 247 33 q 474 74 419 33 q 530 190 530 114 q 515 262 530 233 q 467 310 501 291 q 377 340 434 328 l 275 360 q 127 430 173 381 q 82 557 82 478 q 112 663 82 617 q 205 735 142 708 q 361 761 267 761 q 538 738 452 761 l 538 690 q 448 710 489 704 q 361 715 408 715 q 187 673 242 715 q 132 558 132 631 q 165 463 132 500 q 278 410 197 426 l 381 390 q 533 321 487 368 q 579 195 579 274 q 508 42 579 97 q 297 -12 438 -12 z "},"ś":{"ha":640,"x_min":82,"x_max":579,"o":"m 297 -12 q 190 -6 240 -12 q 92 17 140 1 l 92 65 q 199 40 151 47 q 301 33 247 33 q 474 74 419 33 q 530 190 530 114 q 515 262 530 233 q 467 310 501 291 q 377 340 434 328 l 275 360 q 127 430 173 381 q 82 557 82 478 q 112 663 82 617 q 205 735 142 708 q 361 761 267 761 q 538 738 452 761 l 538 690 q 448 710 489 704 q 361 715 408 715 q 187 673 242 715 q 132 558 132 631 q 165 463 132 500 q 278 410 197 426 l 381 390 q 533 321 487 368 q 579 195 579 274 q 508 42 579 97 q 297 -12 438 -12 m 300 878 l 465 1122 l 522 1122 l 347 878 l 300 878 z "},"ṥ":{"ha":640,"x_min":82,"x_max":579,"o":"m 297 -12 q 190 -6 240 -12 q 92 17 140 1 l 92 65 q 199 40 151 47 q 301 33 247 33 q 474 74 419 33 q 530 190 530 114 q 515 262 530 233 q 467 310 501 291 q 377 340 434 328 l 275 360 q 127 430 173 381 q 82 557 82 478 q 112 663 82 617 q 205 735 142 708 q 361 761 267 761 q 538 738 452 761 l 538 690 q 448 710 489 704 q 361 715 408 715 q 187 673 242 715 q 132 558 132 631 q 165 463 132 500 q 278 410 197 426 l 381 390 q 533 321 487 368 q 579 195 579 274 q 508 42 579 97 q 297 -12 438 -12 m 296 1094 q 265 1106 277 1094 q 253 1138 253 1118 q 265 1169 253 1157 q 296 1182 277 1182 q 327 1169 315 1182 q 339 1138 339 1157 q 327 1106 339 1118 q 296 1094 315 1094 m 300 878 l 465 1122 l 522 1122 l 347 878 l 300 878 z "},"š":{"ha":640,"x_min":82,"x_max":579,"o":"m 297 -12 q 190 -6 240 -12 q 92 17 140 1 l 92 65 q 199 40 151 47 q 301 33 247 33 q 474 74 419 33 q 530 190 530 114 q 515 262 530 233 q 467 310 501 291 q 377 340 434 328 l 275 360 q 127 430 173 381 q 82 557 82 478 q 112 663 82 617 q 205 735 142 708 q 361 761 267 761 q 538 738 452 761 l 538 690 q 448 710 489 704 q 361 715 408 715 q 187 673 242 715 q 132 558 132 631 q 165 463 132 500 q 278 410 197 426 l 381 390 q 533 321 487 368 q 579 195 579 274 q 508 42 579 97 q 297 -12 438 -12 m 469 1122 l 520 1122 l 350 878 l 297 878 l 127 1122 l 179 1122 l 324 910 l 469 1122 z "},"ṧ":{"ha":640,"x_min":82,"x_max":579,"o":"m 297 -12 q 190 -6 240 -12 q 92 17 140 1 l 92 65 q 199 40 151 47 q 301 33 247 33 q 474 74 419 33 q 530 190 530 114 q 515 262 530 233 q 467 310 501 291 q 377 340 434 328 l 275 360 q 127 430 173 381 q 82 557 82 478 q 112 663 82 617 q 205 735 142 708 q 361 761 267 761 q 538 738 452 761 l 538 690 q 448 710 489 704 q 361 715 408 715 q 187 673 242 715 q 132 558 132 631 q 165 463 132 500 q 278 410 197 426 l 381 390 q 533 321 487 368 q 579 195 579 274 q 508 42 579 97 q 297 -12 438 -12 m 324 1121 q 293 1133 305 1121 q 281 1164 281 1144 q 293 1196 281 1183 q 324 1208 305 1208 q 355 1196 342 1208 q 367 1164 367 1183 q 355 1133 367 1144 q 324 1121 342 1121 m 469 1122 l 520 1122 l 350 878 l 297 878 l 127 1122 l 179 1122 l 324 910 l 469 1122 z "},"ş":{"ha":640,"x_min":82,"x_max":579,"o":"m 579 195 q 520 52 579 106 q 344 -10 461 -2 l 344 -78 q 427 -108 398 -82 q 456 -178 456 -133 q 423 -252 456 -226 q 331 -278 390 -278 q 266 -271 299 -278 q 210 -251 233 -264 l 210 -212 q 331 -242 269 -242 q 396 -226 375 -242 q 417 -178 417 -210 q 396 -130 417 -145 q 330 -114 374 -114 l 306 -114 l 306 -12 l 297 -12 q 190 -6 240 -12 q 92 17 140 1 l 92 65 q 199 40 151 47 q 301 33 247 33 q 474 74 419 33 q 530 190 530 114 q 515 262 530 233 q 467 310 501 291 q 377 340 434 328 l 275 360 q 127 430 173 381 q 82 557 82 478 q 112 663 82 617 q 205 735 142 708 q 361 761 267 761 q 538 738 452 761 l 538 690 q 448 710 489 704 q 361 715 408 715 q 187 673 242 715 q 132 558 132 631 q 165 463 132 500 q 278 410 197 426 l 381 390 q 533 321 487 368 q 579 195 579 274 z "},"ŝ":{"ha":640,"x_min":82,"x_max":579,"o":"m 297 -12 q 190 -6 240 -12 q 92 17 140 1 l 92 65 q 199 40 151 47 q 301 33 247 33 q 474 74 419 33 q 530 190 530 114 q 515 262 530 233 q 467 310 501 291 q 377 340 434 328 l 275 360 q 127 430 173 381 q 82 557 82 478 q 112 663 82 617 q 205 735 142 708 q 361 761 267 761 q 538 738 452 761 l 538 690 q 448 710 489 704 q 361 715 408 715 q 187 673 242 715 q 132 558 132 631 q 165 463 132 500 q 278 410 197 426 l 381 390 q 533 321 487 368 q 579 195 579 274 q 508 42 579 97 q 297 -12 438 -12 m 516 878 l 465 878 l 324 1090 l 183 878 l 131 878 l 297 1122 l 350 1122 l 516 878 z "},"ș":{"ha":640,"x_min":82,"x_max":579,"o":"m 297 -12 q 190 -6 240 -12 q 92 17 140 1 l 92 65 q 199 40 151 47 q 301 33 247 33 q 474 74 419 33 q 530 190 530 114 q 515 262 530 233 q 467 310 501 291 q 377 340 434 328 l 275 360 q 127 430 173 381 q 82 557 82 478 q 112 663 82 617 q 205 735 142 708 q 361 761 267 761 q 538 738 452 761 l 538 690 q 448 710 489 704 q 361 715 408 715 q 187 673 242 715 q 132 558 132 631 q 165 463 132 500 q 278 410 197 426 l 381 390 q 533 321 487 368 q 579 195 579 274 q 508 42 579 97 q 297 -12 438 -12 m 321 -128 q 355 -143 342 -128 q 367 -187 367 -158 q 359 -247 367 -214 q 336 -311 351 -281 l 306 -311 q 328 -215 325 -262 l 324 -215 q 293 -203 305 -215 q 281 -171 281 -190 q 292 -140 281 -152 q 321 -128 303 -128 z "},"ṡ":{"ha":640,"x_min":82,"x_max":579,"o":"m 297 -12 q 190 -6 240 -12 q 92 17 140 1 l 92 65 q 199 40 151 47 q 301 33 247 33 q 474 74 419 33 q 530 190 530 114 q 515 262 530 233 q 467 310 501 291 q 377 340 434 328 l 275 360 q 127 430 173 381 q 82 557 82 478 q 112 663 82 617 q 205 735 142 708 q 361 761 267 761 q 538 738 452 761 l 538 690 q 448 710 489 704 q 361 715 408 715 q 187 673 242 715 q 132 558 132 631 q 165 463 132 500 q 278 410 197 426 l 381 390 q 533 321 487 368 q 579 195 579 274 q 508 42 579 97 q 297 -12 438 -12 m 324 944 q 293 956 305 944 q 281 988 281 968 q 293 1019 281 1007 q 324 1032 305 1032 q 355 1019 342 1032 q 367 988 367 1007 q 355 956 367 968 q 324 944 342 944 z "},"ṣ":{"ha":640,"x_min":82,"x_max":579,"o":"m 297 -12 q 190 -6 240 -12 q 92 17 140 1 l 92 65 q 199 40 151 47 q 301 33 247 33 q 474 74 419 33 q 530 190 530 114 q 515 262 530 233 q 467 310 501 291 q 377 340 434 328 l 275 360 q 127 430 173 381 q 82 557 82 478 q 112 663 82 617 q 205 735 142 708 q 361 761 267 761 q 538 738 452 761 l 538 690 q 448 710 489 704 q 361 715 408 715 q 187 673 242 715 q 132 558 132 631 q 165 463 132 500 q 278 410 197 426 l 381 390 q 533 321 487 368 q 579 195 579 274 q 508 42 579 97 q 297 -12 438 -12 m 324 -215 q 293 -203 305 -215 q 281 -172 281 -192 q 293 -140 281 -153 q 324 -128 305 -128 q 355 -140 342 -128 q 367 -172 367 -153 q 355 -203 367 -192 q 324 -215 342 -215 z "},"ṩ":{"ha":640,"x_min":82,"x_max":579,"o":"m 297 -12 q 190 -6 240 -12 q 92 17 140 1 l 92 65 q 199 40 151 47 q 301 33 247 33 q 474 74 419 33 q 530 190 530 114 q 515 262 530 233 q 467 310 501 291 q 377 340 434 328 l 275 360 q 127 430 173 381 q 82 557 82 478 q 112 663 82 617 q 205 735 142 708 q 361 761 267 761 q 538 738 452 761 l 538 690 q 448 710 489 704 q 361 715 408 715 q 187 673 242 715 q 132 558 132 631 q 165 463 132 500 q 278 410 197 426 l 381 390 q 533 321 487 368 q 579 195 579 274 q 508 42 579 97 q 297 -12 438 -12 m 324 -215 q 293 -203 305 -215 q 281 -172 281 -192 q 293 -140 281 -153 q 324 -128 305 -128 q 355 -140 342 -128 q 367 -172 367 -153 q 355 -203 367 -192 q 324 -215 342 -215 m 324 944 q 293 956 305 944 q 281 988 281 968 q 293 1019 281 1007 q 324 1032 305 1032 q 355 1019 342 1032 q 367 988 367 1007 q 355 956 367 968 q 324 944 342 944 z "},"ß":{"ha":950,"x_min":13,"x_max":889,"o":"m 690 390 q 843 321 798 367 q 889 195 889 275 q 818 42 889 97 q 608 -12 747 -12 q 500 -6 550 -12 q 402 17 450 1 l 402 64 q 508 40 460 47 q 610 33 556 33 q 784 74 728 33 q 840 190 840 114 q 825 262 840 233 q 777 310 810 291 q 687 340 744 328 l 585 360 q 437 429 483 381 q 392 555 392 477 q 422 662 392 616 q 514 734 451 708 q 671 760 576 760 q 740 756 701 760 q 749 839 749 798 q 680 1031 749 972 q 494 1090 612 1090 q 290 1019 359 1090 q 220 789 220 947 l 220 0 l 173 0 l 173 704 l 13 704 l 13 750 l 173 750 l 173 793 q 256 1051 173 966 q 494 1136 339 1136 q 650 1105 583 1136 q 755 1007 717 1074 q 794 840 794 941 q 789 771 794 809 q 776 706 784 733 q 671 715 726 715 q 497 673 551 715 q 442 558 442 631 q 475 463 442 500 q 588 410 508 426 l 690 390 z "},"t":{"ha":517,"x_min":8,"x_max":513,"o":"m 405 33 q 513 48 452 33 l 513 1 q 457 -10 483 -7 q 402 -12 432 -12 q 228 46 289 -12 q 167 226 167 105 l 167 706 l 8 706 l 8 750 l 167 750 l 173 1028 l 215 1028 l 215 750 l 497 750 l 497 706 l 215 706 l 215 235 q 263 81 215 128 q 405 33 310 33 z "},"ŧ":{"ha":517,"x_min":8,"x_max":513,"o":"m 405 33 q 513 48 452 33 l 513 1 q 457 -10 483 -7 q 402 -12 432 -12 q 228 46 289 -12 q 167 226 167 105 l 167 438 l 50 438 l 50 479 l 167 479 l 167 706 l 8 706 l 8 750 l 167 750 l 173 1028 l 215 1028 l 215 750 l 497 750 l 497 706 l 215 706 l 215 479 l 462 479 l 462 438 l 215 438 l 215 235 q 263 81 215 128 q 405 33 310 33 z "},"ť":{"ha":517,"x_min":8,"x_max":513,"o":"m 405 33 q 513 48 452 33 l 513 1 q 457 -10 483 -7 q 402 -12 432 -12 q 228 46 289 -12 q 167 226 167 105 l 167 706 l 8 706 l 8 750 l 167 750 l 173 1028 l 215 1028 l 215 750 l 497 750 l 497 706 l 215 706 l 215 235 q 263 81 215 128 q 405 33 310 33 m 342 819 q 354 1122 354 929 l 399 1122 q 374 819 399 947 l 342 819 z "}}}
